<svg width="442" height="443" viewBox="0 0 442 443" fill="none" xmlns="http://www.w3.org/2000/svg">
<path d="M254.197 442.006H187.819C183.745 442.006 179.815 440.499 176.786 437.775C173.757 435.051 171.844 431.301 171.415 427.25L166.5 380.971C159.639 378.636 152.936 375.86 146.434 372.659L110.27 401.906C107.105 404.455 103.111 405.746 99.0523 405.531C94.994 405.316 91.158 403.61 88.2802 400.741L41.3418 353.802C38.4723 350.924 36.7665 347.088 36.5514 343.03C36.3363 338.972 37.6271 334.977 40.1763 331.812L69.4344 295.605C66.2282 289.104 63.4479 282.401 61.1111 275.539L14.7555 270.591C10.706 270.162 6.95841 268.25 4.23419 265.223C1.50997 262.197 0.00177944 258.269 0 254.197V187.808C0.00177944 183.736 1.50997 179.809 4.23419 176.782C6.95841 173.755 10.706 171.844 14.7555 171.415L61.0341 166.5C63.3709 159.638 66.1512 152.935 69.3575 146.434L40.0994 110.227C37.5502 107.061 36.2593 103.067 36.4744 99.0084C36.6895 94.9501 38.3954 91.1141 41.2648 88.2362L88.2032 41.2979C91.0811 38.4284 94.917 36.7225 98.9753 36.5074C103.034 36.2923 107.028 37.5832 110.194 40.1324L146.401 69.3795C152.903 66.1787 159.606 63.4021 166.467 61.0672L171.382 14.7885C171.804 10.7256 173.719 6.96379 176.755 4.23174C179.792 1.4997 183.735 -0.00821634 187.819 3.36745e-05H254.197C258.271 -0.000902099 262.201 1.50607 265.23 4.23055C268.259 6.95502 270.173 10.7042 270.602 14.7555L275.506 61.0342C282.37 63.3691 289.077 66.1457 295.583 69.3465L331.779 40.0994C334.944 37.5502 338.939 36.2593 342.997 36.4744C347.055 36.6895 350.891 38.3954 353.769 41.2649L400.708 88.2032C403.577 91.0811 405.283 94.9171 405.498 98.9754C405.713 103.034 404.422 107.028 401.873 110.194L372.615 146.401C375.817 152.904 378.597 159.607 380.938 166.467L427.217 171.382C431.264 171.813 435.009 173.726 437.731 176.752C440.453 179.779 441.96 183.705 441.962 187.775V254.164C441.969 258.233 440.472 262.162 437.759 265.194C435.045 268.227 431.306 270.149 427.261 270.591L380.982 275.506C378.641 282.366 375.861 289.069 372.659 295.572L401.917 331.779C404.466 334.944 405.757 338.939 405.542 342.997C405.327 347.055 403.621 350.891 400.752 353.769L353.813 400.741C350.935 403.61 347.099 405.316 343.041 405.531C338.983 405.746 334.988 404.455 331.823 401.906L295.627 372.659C289.121 375.86 282.414 378.636 275.55 380.971L270.646 427.25C270.216 431.309 268.296 435.064 265.258 437.79C262.22 440.515 258.279 442.017 254.197 442.006ZM202.63 409.02H239.343L243.84 366.623C244.193 363.304 245.544 360.171 247.715 357.636C249.886 355.102 252.775 353.286 256 352.428C267.617 349.33 278.77 344.697 289.162 338.651C292.055 336.965 295.393 336.2 298.732 336.457C302.071 336.714 305.253 337.982 307.854 340.091L341.015 366.887L366.975 340.927L340.135 307.865C338.026 305.264 336.758 302.082 336.501 298.743C336.244 295.404 337.009 292.066 338.695 289.173C344.728 278.787 349.347 267.642 352.428 256.033C353.286 252.807 355.104 249.917 357.641 247.745C360.177 245.574 363.313 244.223 366.634 243.873L409.02 239.365V202.652L366.634 198.144C363.313 197.793 360.177 196.443 357.641 194.271C355.104 192.1 353.286 189.21 352.428 185.983C349.348 174.371 344.729 163.222 338.695 152.833C337.009 149.939 336.244 146.601 336.501 143.262C336.758 139.923 338.026 136.742 340.135 134.141L366.931 100.98L340.971 75.02L307.81 101.815C305.209 103.925 302.027 105.192 298.688 105.449C295.349 105.707 292.011 104.942 289.118 103.256C278.73 97.2267 267.586 92.6085 255.978 89.5226C252.753 88.6648 249.864 86.8487 247.693 84.3143C245.522 81.7799 244.171 78.6464 243.818 75.3279L239.365 32.9855H202.63L198.133 75.3829C197.779 78.7028 196.426 81.8373 194.253 84.3718C192.08 86.9064 189.188 88.7216 185.961 89.5776C174.362 92.6775 163.229 97.3106 152.855 103.355C149.961 105.041 146.623 105.806 143.284 105.548C139.945 105.291 136.764 104.024 134.163 101.914L101.035 75.075L75.086 101.035L101.892 134.196C104 136.798 105.265 139.98 105.521 143.319C105.776 146.658 105.009 149.995 103.322 152.888C97.2975 163.278 92.6795 174.422 89.5886 186.027C88.7307 189.252 86.9146 192.141 84.3802 194.312C81.8458 196.484 78.7124 197.835 75.3938 198.188L32.9965 202.696V239.398L75.3938 243.906C78.7124 244.259 81.8458 245.61 84.3802 247.781C86.9146 249.952 88.7307 252.841 89.5886 256.066C92.6787 267.66 97.293 278.793 103.311 289.173C104.998 292.065 105.765 295.403 105.51 298.742C105.254 302.08 103.989 305.262 101.881 307.865L75.086 340.971L101.046 366.931L134.218 340.135C136.819 338.026 140 336.758 143.339 336.501C146.678 336.244 150.016 337.009 152.91 338.695C163.293 344.725 174.434 349.344 186.038 352.428C189.265 353.284 192.157 355.099 194.33 357.634C196.503 360.168 197.856 363.303 198.21 366.623L202.63 409.02Z" fill="url(#paint0_linear_81_24)"/>
<path d="M175.282 257.635H151.49V293.358H175.282V257.635Z" fill="url(#paint1_linear_81_24)"/>
<path d="M216.941 213.717H193.141V293.358H216.941V213.717Z" fill="url(#paint2_linear_81_24)"/>
<path d="M258.591 236.794H234.786V293.359H258.591V236.794Z" fill="url(#paint3_linear_81_24)"/>
<path d="M300.231 184.697H276.435V293.358H300.231V184.697Z" fill="url(#paint4_linear_81_24)"/>
<path d="M153.141 249.565L142.504 240.589L203.878 167.768L241.164 199.892L285.089 142.116L296.157 150.545L243.281 220.103L205.448 187.489L153.141 249.565Z" fill="url(#paint5_linear_81_24)"/>
<path d="M265.465 138.894H300.052V173.497L265.465 138.894Z" fill="url(#paint6_linear_81_24)"/>
<path d="M324.032 302.277H118.761V138.556H130.663V290.366H324.032V302.277Z" fill="url(#paint7_linear_81_24)"/>
<defs>
<linearGradient id="paint0_linear_81_24" x1="220.981" y1="0" x2="220.981" y2="442.006" gradientUnits="userSpaceOnUse">
<stop stop-color="#9D9FD6"/>
<stop offset="1" stop-color="#F2B9DA"/>
</linearGradient>
<linearGradient id="paint1_linear_81_24" x1="163.386" y1="257.635" x2="163.386" y2="293.358" gradientUnits="userSpaceOnUse">
<stop stop-color="#B1B3F1"/>
<stop offset="1" stop-color="#F2B9DA"/>
</linearGradient>
<linearGradient id="paint2_linear_81_24" x1="205.041" y1="213.717" x2="205.041" y2="293.358" gradientUnits="userSpaceOnUse">
<stop stop-color="#B1B3F1"/>
<stop offset="1" stop-color="#F2B9DA"/>
</linearGradient>
<linearGradient id="paint3_linear_81_24" x1="246.688" y1="236.794" x2="246.688" y2="293.359" gradientUnits="userSpaceOnUse">
<stop stop-color="#B1B3F1"/>
<stop offset="1" stop-color="#F2B9DA"/>
</linearGradient>
<linearGradient id="paint4_linear_81_24" x1="288.333" y1="184.697" x2="288.333" y2="293.358" gradientUnits="userSpaceOnUse">
<stop stop-color="#B1B3F1"/>
<stop offset="1" stop-color="#F2B9DA"/>
</linearGradient>
<linearGradient id="paint5_linear_81_24" x1="219.33" y1="142.116" x2="219.33" y2="249.565" gradientUnits="userSpaceOnUse">
<stop stop-color="#B1B3F1"/>
<stop offset="1" stop-color="#F2B9DA"/>
</linearGradient>
<linearGradient id="paint6_linear_81_24" x1="282.759" y1="138.894" x2="282.759" y2="173.497" gradientUnits="userSpaceOnUse">
<stop stop-color="#B1B3F1"/>
<stop offset="1" stop-color="#F2B9DA"/>
</linearGradient>
<linearGradient id="paint7_linear_81_24" x1="221.396" y1="138.556" x2="221.396" y2="302.277" gradientUnits="userSpaceOnUse">
<stop stop-color="#B1B3F1"/>
<stop offset="1" stop-color="#F2B9DA"/>
</linearGradient>
</defs>
</svg>
