<svg width="261" height="76" viewBox="0 0 261 76" fill="none" xmlns="http://www.w3.org/2000/svg">
<path d="M0 75.9675L13.7115 47.0448H260.348L250.273 75.8479L0 75.9675Z" fill="#152A49"/>
<path fill-rule="evenodd" clip-rule="evenodd" d="M27.9694 54.7027H25.038L23.1232 63.0924C22.7749 64.6293 21.7583 65.5303 19.7856 65.5303C18.4503 65.5303 17.5211 64.7449 17.9286 62.9767L19.8138 54.7027H16.881L14.9661 63.1502C14.7039 64.4263 14.7617 65.4429 15.3144 66.2269C16.2436 67.5043 18.0724 67.7666 19.3203 67.7666C22.7735 67.7666 25.2988 66.3439 26.0532 62.9782L27.9694 54.7027Z" fill="white"/>
<path fill-rule="evenodd" clip-rule="evenodd" d="M36.7046 63.5549H36.6468L33.2514 54.7027H30.2325L27.3011 67.4451H29.9717L32.0599 58.3603H32.0895L35.6315 67.4451H38.4756L41.407 54.7027H38.7364L36.7046 63.5549Z" fill="white"/>
<path fill-rule="evenodd" clip-rule="evenodd" d="M46.3703 54.7027H43.5263L40.5934 67.4451H43.4685L46.3703 54.7027Z" fill="white"/>
<path fill-rule="evenodd" clip-rule="evenodd" d="M51.3914 64.3388H51.3632L50.637 54.7027H47.5604L49.2735 67.4451H52.002L59.5766 54.7027H56.5874L51.3914 64.3388Z" fill="white"/>
<path fill-rule="evenodd" clip-rule="evenodd" d="M71.0712 54.7027H60.9994L58.0665 67.4451H68.4866L69.0097 65.1834H61.4054L62.1598 61.8727H68.8363L69.358 59.6378H62.6829L63.2921 56.939H70.5777L71.0712 54.7027Z" fill="white"/>
<path fill-rule="evenodd" clip-rule="evenodd" d="M70.4028 67.4451H73.2187L74.3805 62.4536H77.3402C79.4594 62.4536 79.4002 63.122 79.0223 64.862C78.7037 66.1676 78.6741 66.8346 78.7333 67.4451H81.896L81.9834 67.0969C81.4307 66.8938 81.5181 66.4299 81.9538 64.5715C82.5051 62.1914 81.9834 61.7867 80.9372 61.3214C82.4177 60.9153 83.4343 59.6956 83.753 58.3011C84.0138 57.1999 83.9278 54.7013 80.2702 54.7013H73.3343L70.4028 67.4451ZM74.8444 60.3062L75.627 56.9094H79.2268C80.9104 56.9094 80.9978 57.8964 80.8526 58.5634C80.5607 59.8127 79.7203 60.3062 78.2102 60.3062H74.8444Z" fill="white"/>
<path fill-rule="evenodd" clip-rule="evenodd" d="M83.987 63.5281C83.6388 65.0946 83.87 67.7666 88.8925 67.7666C90.0826 67.7666 94.3775 67.4451 95.2489 63.6141C95.7721 61.3228 94.2323 60.5952 92.4331 60.1891L89.2704 59.4051C88.7177 59.2895 87.9055 59.0851 88.1368 58.098C88.3976 56.939 89.7611 56.5611 90.8652 56.5611C93.3609 56.5611 93.2735 57.895 93.2453 58.4759H95.9737C96.322 56.908 95.7706 54.353 91.5913 54.353C87.1215 54.353 85.7284 56.8502 85.4098 58.2715C84.771 61.0873 86.8029 61.5512 88.8925 62.0151L90.3138 62.3352C91.6787 62.6553 92.6644 62.9161 92.4317 63.9313C92.113 65.2666 90.5465 65.5867 89.1802 65.5867C86.6844 65.5867 86.5984 64.2218 86.7422 63.5267H83.987V63.5281Z" fill="white"/>
<path fill-rule="evenodd" clip-rule="evenodd" d="M101.691 54.7027H98.8473L95.9159 67.4451H98.7895L101.691 54.7027Z" fill="white"/>
<path fill-rule="evenodd" clip-rule="evenodd" d="M101.053 67.4451H107.003C111.529 67.4451 113.591 63.4985 114.231 60.77C114.781 58.3603 114.665 54.7027 110.02 54.7027H103.954L101.053 67.4451ZM106.278 56.908H109.036C110.256 56.908 112.113 57.1999 111.241 60.9717C110.776 63.0613 109.499 65.2398 107.148 65.2398H104.362L106.278 56.908Z" fill="white"/>
<path fill-rule="evenodd" clip-rule="evenodd" d="M117.945 64.8027H122.997L123.286 67.4451H126.391L124.477 54.7027H121.168L113.359 67.4451H116.38L117.945 64.8027ZM122.125 57.5777H122.154L122.706 62.5989H119.224L122.125 57.5777Z" fill="white"/>
<path fill-rule="evenodd" clip-rule="evenodd" d="M127.814 67.4451H133.765C138.293 67.4451 140.383 63.4985 140.992 60.77C141.546 58.3603 141.43 54.7027 136.814 54.7027H130.745L127.814 67.4451ZM133.038 56.908H135.794C137.014 56.908 138.901 57.1999 138.032 60.9717C137.539 63.0613 136.261 65.2398 133.94 65.2398H131.152L133.038 56.908Z" fill="white"/>
<path fill-rule="evenodd" clip-rule="evenodd" d="M154.226 54.7027H144.125L141.223 67.4451H151.643L152.138 65.1834H144.534L145.287 61.8727H151.993L152.513 59.6378H145.808L146.419 56.939H153.703L154.226 54.7027Z" fill="white"/>
<path fill-rule="evenodd" clip-rule="evenodd" d="M162.266 62.8315H165.576C169.263 62.8315 170.597 59.9269 170.889 58.7664C171.438 56.2706 170.192 54.7027 167.55 54.7027H161.281L158.351 67.4451H161.223L162.266 62.8315ZM162.789 60.6544L163.631 56.9094H165.922C167.693 56.9094 168.304 57.4043 168.04 58.6508C167.896 59.2303 167.579 60.6544 165.43 60.6544H162.789Z" fill="white"/>
<path fill-rule="evenodd" clip-rule="evenodd" d="M172.803 64.8027H177.853L178.143 67.4451H181.249L179.335 54.7027H176.024L168.216 67.4451H171.235L172.803 64.8027ZM176.983 57.5777H177.012L177.564 62.5989H174.051L176.983 57.5777Z" fill="white"/>
<path fill-rule="evenodd" clip-rule="evenodd" d="M196.574 54.7027H193.67L191.726 63.0924C191.379 64.6293 190.391 65.5303 188.418 65.5303C187.081 65.5303 186.152 64.7449 186.56 62.9767L188.445 54.7027H185.513L183.57 63.1502C183.338 64.4263 183.366 65.4429 183.947 66.2269C184.877 67.5043 186.678 67.7666 187.954 67.7666C191.407 67.7666 193.933 66.3439 194.687 62.9782L196.574 54.7027Z" fill="white"/>
<path fill-rule="evenodd" clip-rule="evenodd" d="M201.856 54.7027H198.985L196.05 67.4451H205.746L206.299 65.1228H199.447L201.856 54.7027Z" fill="white"/>
<path fill-rule="evenodd" clip-rule="evenodd" d="M212.886 54.7027H210.014L207.111 67.4451H209.956L212.886 54.7027Z" fill="white"/>
<path fill-rule="evenodd" clip-rule="evenodd" d="M212.421 63.5281C212.043 65.0946 212.305 67.7666 217.326 67.7666C218.518 67.7666 222.811 67.4451 223.686 63.6141C224.207 61.3228 222.639 60.5952 220.867 60.1891L217.706 59.4051C217.154 59.2895 216.313 59.0851 216.545 58.098C216.807 56.939 218.199 56.5611 219.302 56.5611C221.799 56.5611 221.71 57.895 221.652 58.4759H224.409C224.759 56.908 224.207 54.353 219.997 54.353C215.558 54.353 214.164 56.8502 213.817 58.2715C213.177 61.0873 215.237 61.5512 217.326 62.0151L218.718 62.3352C220.113 62.6553 221.069 62.9161 220.866 63.9313C220.545 65.2666 218.952 65.5867 217.615 65.5867C215.09 65.5867 215.032 64.2218 215.176 63.5267H212.421V63.5281Z" fill="white"/>
<path fill-rule="evenodd" clip-rule="evenodd" d="M232.797 56.939H236.947L237.47 54.7027H226.296L225.802 56.939H229.925L227.542 67.4451H230.417L232.797 56.939Z" fill="white"/>
<path fill-rule="evenodd" clip-rule="evenodd" d="M237.935 64.8027H242.986L243.275 67.4451H246.381L244.465 54.7027H241.156L233.347 67.4451H236.367L237.935 64.8027ZM242.113 57.5777H242.143L242.696 62.5989H239.211L242.113 57.5777Z" fill="white"/>
<path fill-rule="evenodd" clip-rule="evenodd" d="M208.597 8.66683L203.758 18.7064H215.728C216.763 18.7064 217.409 18.5386 218.302 18.0085C219.141 17.5052 219.59 17.0569 220.008 16.163L221.575 12.9175C222.05 11.9673 221.826 11.1284 221.296 10.2318C220.653 9.14196 219.701 8.66683 218.442 8.66683H208.597ZM195.481 1.73038H235.979C237.741 1.73038 238.859 2.51422 239.977 3.85641C241.826 6.12203 241.21 8.72186 239.977 11.3499L235.841 20.1332C234.917 22.1196 234.386 23.3773 232.708 24.8027C230.499 26.6495 228.597 27.2092 225.714 27.2092H199.62C198.167 30.9002 196.516 32.9149 193.217 35.1241C190.252 37.0824 188.071 37.9481 184.519 37.9481H178.533L195.481 1.73038Z" fill="#B3B3B3"/>
<path d="M208.597 8.66683L203.758 18.7064H215.728C216.763 18.7064 217.409 18.5386 218.302 18.0085C219.141 17.5052 219.59 17.0569 220.008 16.163L221.575 12.9175C222.05 11.9673 221.826 11.1284 221.296 10.2318C220.653 9.14196 219.701 8.66683 218.442 8.66683H208.597ZM195.481 1.73038H235.979C237.741 1.73038 238.859 2.51422 239.977 3.85641C241.826 6.12203 241.21 8.72186 239.977 11.3499L235.841 20.1332C234.917 22.1196 234.386 23.3773 232.708 24.8027C230.499 26.6495 228.597 27.2092 225.714 27.2092H199.62C198.167 30.9002 196.516 32.9149 193.217 35.1241C190.252 37.0824 188.071 37.9481 184.519 37.9481H178.533L195.481 1.73038Z" fill="#B3B3B3"/>
<path fill-rule="evenodd" clip-rule="evenodd" d="M147.876 1.86996H163.259L151.43 27.3501C149.668 31.1257 147.655 33.3068 144.157 35.8234C142.032 37.3911 135.936 39.2084 130.761 38.089L120.917 18.9869L117.084 27.3488C115.351 31.068 113.28 33.3055 109.812 35.8221C107.659 37.3897 101.561 39.2071 96.3884 38.0877L113.503 1.86996H128.914L139.457 19.5748L147.876 1.86996Z" fill="#B3B3B3"/>
<path fill-rule="evenodd" clip-rule="evenodd" d="M154.283 37.9508L171.259 1.73038H186.643L174.813 27.2106C173.05 30.9861 171.036 33.1685 167.541 35.6838C165.413 37.2528 159.457 39.0688 154.283 37.9508Z" fill="#B3B3B3"/>
<path fill-rule="evenodd" clip-rule="evenodd" d="M70.8787 1.73038H54.7684L44.0845 24.5248C42.435 27.9649 42.3504 31.013 45.063 34.2866C48.0843 37.8931 54.3214 39.3762 60.7546 39.3762H72.4437C78.3171 39.3762 82.1773 38.285 86.7085 34.5658C89.5043 32.2424 90.876 30.4815 92.4128 27.2106L104.246 1.73038H87.687L78.9896 20.1345C76.5844 25.9234 75.2972 27.2106 67.6065 27.2106C62.741 27.2106 60.8673 23.239 62.3209 20.1345L70.8787 1.73038Z" fill="#B3B3B3"/>
<path fill-rule="evenodd" clip-rule="evenodd" d="M206.487 6.93645L201.648 16.976H213.618C214.653 16.976 215.298 16.8083 216.192 16.2781C217.031 15.7748 217.48 15.3265 217.898 14.4326L219.465 11.1872C219.94 10.2369 219.716 9.39803 219.185 8.50144C218.543 7.41158 217.591 6.93645 216.332 6.93645H206.487ZM193.371 0H233.869C235.631 0 236.749 0.78384 237.867 2.12603C239.716 4.39165 239.1 6.99148 237.867 9.61949L233.731 18.4028C232.807 20.3892 232.276 21.6469 230.598 23.0723C228.389 24.9191 226.487 25.4788 223.604 25.4788H197.51C196.057 29.1699 194.406 31.1845 191.107 33.3937C188.142 35.352 185.961 36.2177 182.409 36.2177H176.423L193.371 0Z" fill="url(#paint0_linear_21_3)"/>
<path d="M206.487 6.93645L201.648 16.976H213.618C214.653 16.976 215.298 16.8083 216.192 16.2781C217.031 15.7748 217.48 15.3265 217.898 14.4326L219.465 11.1872C219.94 10.2369 219.716 9.39803 219.185 8.50144C218.543 7.41158 217.591 6.93645 216.332 6.93645H206.487ZM193.371 0H233.869C235.631 0 236.749 0.78384 237.867 2.12603C239.716 4.39165 239.1 6.99148 237.867 9.61949L233.731 18.4028C232.807 20.3892 232.276 21.6469 230.598 23.0723C228.389 24.9191 226.487 25.4788 223.604 25.4788H197.51C196.057 29.1699 194.406 31.1845 191.107 33.3937C188.142 35.352 185.961 36.2177 182.409 36.2177H176.423L193.371 0Z" fill="url(#paint1_linear_21_3)"/>
<path fill-rule="evenodd" clip-rule="evenodd" d="M145.766 0.139587H161.149L149.32 25.6198C147.558 29.3954 145.545 31.5764 142.047 34.093C139.922 35.6607 133.826 37.478 128.651 36.3586L118.807 17.2566L114.974 25.6184C113.241 29.3376 111.17 31.5751 107.702 34.0917C105.549 35.6594 99.4512 37.4767 94.2784 36.3573L111.393 0.139587H126.804L137.347 17.8444L145.766 0.139587Z" fill="url(#paint2_linear_21_3)"/>
<path fill-rule="evenodd" clip-rule="evenodd" d="M152.172 36.2204L169.149 0H184.533L172.703 25.4802C170.94 29.2558 168.926 31.4382 165.431 33.9534C163.303 35.5225 157.347 37.3384 152.172 36.2204Z" fill="url(#paint3_linear_21_3)"/>
<path fill-rule="evenodd" clip-rule="evenodd" d="M68.7686 0H52.6583L41.9745 22.7945C40.3249 26.2345 40.2403 29.2826 42.9529 32.5562C45.9742 36.1627 52.2114 37.6458 58.6445 37.6458H70.3336C76.2071 37.6458 80.0672 36.5546 84.5985 32.8354C87.3942 30.5121 88.766 28.7511 90.3028 25.4802L102.136 0H85.5769L76.8795 18.4041C74.4743 24.193 73.1871 25.4802 65.4964 25.4802C60.6309 25.4802 58.7572 21.5086 60.2108 18.4041L68.7686 0Z" fill="url(#paint4_linear_21_3)"/>
<defs>
<linearGradient id="paint0_linear_21_3" x1="207.729" y1="0" x2="207.729" y2="36.2177" gradientUnits="userSpaceOnUse">
<stop stop-color="#B1B3F1"/>
<stop offset="1" stop-color="#F3B9DA"/>
</linearGradient>
<linearGradient id="paint1_linear_21_3" x1="207.729" y1="0" x2="207.729" y2="36.2177" gradientUnits="userSpaceOnUse">
<stop stop-color="#B1B3F1"/>
<stop offset="1" stop-color="#F3B9DA"/>
</linearGradient>
<linearGradient id="paint2_linear_21_3" x1="127.714" y1="0.139587" x2="127.714" y2="36.7051" gradientUnits="userSpaceOnUse">
<stop stop-color="#B1B3F1"/>
<stop offset="1" stop-color="#F3B9DA"/>
</linearGradient>
<linearGradient id="paint3_linear_21_3" x1="168.353" y1="0" x2="168.353" y2="36.5663" gradientUnits="userSpaceOnUse">
<stop stop-color="#B1B3F1"/>
<stop offset="1" stop-color="#F3B9DA"/>
</linearGradient>
<linearGradient id="paint4_linear_21_3" x1="71.473" y1="0" x2="71.473" y2="37.6458" gradientUnits="userSpaceOnUse">
<stop stop-color="#B1B3F1"/>
<stop offset="1" stop-color="#F3B9DA"/>
</linearGradient>
</defs>
</svg>
