<svg width="608" height="304" viewBox="0 0 608 304" fill="none" xmlns="http://www.w3.org/2000/svg">
<path fill-rule="evenodd" clip-rule="evenodd" d="M481.765 142.88L481.024 141.311L464.879 110.707C464.599 110.333 464.472 109.867 464.521 109.402C464.571 108.937 464.795 108.509 465.147 108.202L490.683 78.1979C491.03 77.8197 491.267 77.3524 491.365 76.848L483.909 78.7973L452.954 87.0817C451.994 87.34 451.556 87.0574 451.078 86.2631L433.432 56.8825C433.127 56.3096 432.687 55.8195 432.151 55.4547L430.689 63.2762L425.781 90.9072L425.275 93.8945C425.192 94.8448 424.704 95.1956 423.847 95.4685L387.385 106.994C386.898 107.164 386.333 107.383 385.758 107.9L415.728 119.81L414.851 120.502L396.211 132.568C395.47 133.056 394.88 133.119 394.047 132.744L371.738 122.802C368.399 121.311 365.402 119.333 363.063 116.467C357.776 110 358.824 102.647 365.865 98.1537C368.223 96.7026 370.752 95.5518 373.394 94.7278L409.212 83.3489C410.211 83.037 410.674 82.5887 410.869 81.4971L415.772 53.866C416.659 48.9928 417.136 43.8954 419.524 39.3829C420.499 37.648 421.547 35.9521 422.857 34.495C427.599 29.232 434.222 29.0273 439.231 34.0418C440.922 35.7328 442.379 37.7308 443.637 39.7825L460.011 66.9408C460.095 67.1691 460.227 67.3772 460.396 67.552C460.565 67.7267 460.769 67.8643 460.995 67.956C461.22 68.0477 461.463 68.0914 461.706 68.0844C461.949 68.0774 462.188 68.0199 462.408 67.9155L502.369 57.3016C505.122 56.5706 507.904 56.3075 510.726 56.8387C516.876 57.9887 519.561 62.6719 517.48 68.6074C516.535 71.3121 514.898 73.5976 513.065 75.7564L485.234 108.636C484.469 109.528 484.455 110.176 484.981 111.17L501.618 142.714C502.944 145.234 503.957 147.846 503.986 150.735C504.055 157.314 499.245 162.689 492.71 163.649C489.055 164.137 485.644 163.406 482.223 162.348L457.126 154.707C456.794 154.659 456.49 154.494 456.269 154.242C456.048 153.99 455.923 153.668 455.917 153.333L452.886 135.672C452.857 135.512 452.906 135.331 452.935 134.976L481.76 142.929" fill="url(#paint0_linear_8_1834)"/>
<path fill-rule="evenodd" clip-rule="evenodd" d="M465.473 228.712L442.862 228.692C442.437 228.729 442.011 228.641 441.635 228.439C441.259 228.238 440.951 227.931 440.747 227.557L412.814 185.257L407.112 228.599H387.375L388.058 222.966L399.412 136.71C399.479 136.247 399.724 135.827 400.094 135.541L420.562 122.383C420.659 122.32 420.806 122.31 421.147 122.213L414.992 169.122L415.236 169.288L447.535 133.484L450.712 151.827C450.878 152.724 450.639 153.289 450.04 153.908L429.348 175.652L428.374 176.627L429.007 177.631L464.679 227.678C464.893 227.981 465.205 228.166 465.473 228.487V228.751M231.56 185.389C231.258 183.849 231.043 181.588 230.361 179.483C227.057 169.288 216.594 163.693 205.766 166.213C193.885 168.976 185.396 178.318 184.168 190.433C183.257 199.399 188.086 208.039 197.067 211.28C204.299 213.892 211.263 212.801 217.73 208.922C226.306 203.78 230.951 196.144 231.569 185.384L231.56 185.389ZM179.392 223.239L177.701 235.9L175.567 252.4C175.484 253.043 175.289 253.375 174.602 253.375L158.34 253.35C158.218 253.35 158.096 253.282 157.853 253.204L158.842 245.407L162.448 218.044L166.712 186.778C169.86 168.43 185.425 152.665 203.69 148.684C214.279 146.393 224.411 147.456 233.66 153.411C242.88 159.356 248.168 168.03 249.371 178.825C251.077 194.161 245.434 206.894 234.537 217.42C227.388 224.34 218.826 228.726 208.953 230.213C198.783 231.748 189.216 230.052 180.688 224.053C180.372 223.833 180.035 223.643 179.494 223.302" fill="#FAC0E1"/>
<path fill-rule="evenodd" clip-rule="evenodd" d="M170.552 136.052L152.726 149.322L149.934 144.946C147.38 141.379 144.208 138.708 139.603 138.387C137.795 138.215 135.972 138.472 134.282 139.136C132.591 139.801 131.082 140.855 129.876 142.212C127.536 144.746 127.234 148.338 129.418 151.194C131.82 154.337 134.452 157.324 137.137 160.233L150.665 174.551C154.69 178.966 157.897 183.917 158.886 189.95C160.065 197.123 158.632 203.956 155.241 210.262C148.905 221.928 139.071 228.702 126.016 230.817C120.251 231.752 114.501 231.567 108.872 229.91C101.406 227.717 96.2018 222.82 92.8685 215.91C91.6892 213.473 90.7828 210.89 89.7107 208.268L109.043 197.923L109.627 199.326C110.724 201.519 111.577 203.858 113.039 205.885C117.074 211.879 123.594 213.712 130.207 210.744C131.928 209.964 133.521 208.929 134.934 207.674C139.193 203.892 139.992 198.624 136.883 193.863C135.07 191.134 132.804 188.678 130.548 186.227L114.637 168.683C111.08 164.575 108.672 159.78 107.912 154.278C107.084 148.27 108.278 142.597 111.406 137.539C119.179 124.966 130.48 118.421 145.421 118.962C153.939 119.269 160.723 123.251 165.986 129.878L170.601 135.994M314.906 203.566L312.007 225.534C311.958 225.9 311.665 226.392 311.358 226.538C296.651 233.351 277.28 232.401 265.2 218.682C258.708 211.314 255.94 202.567 256.394 192.835C257.334 170.306 276.013 150.643 298.303 147.894C311.354 146.286 322.796 149.814 331.636 159.951C337.659 166.856 340.442 175.058 340.032 184.205C339.759 190.218 338.814 196.202 338.068 202.235L334.73 227.644C334.691 227.946 334.633 228.244 334.56 228.619H317.016L317.713 222.869L321.504 193.522C322.201 187.421 321.763 181.364 318.97 175.711C316.046 169.702 311.027 166.525 304.478 165.833C290.93 164.4 278.036 173.815 275.141 187.148C273.231 195.949 276.242 204.389 283.25 209.053C290.082 213.6 297.402 213.614 304.848 210.661C308.625 209.17 311.841 206.802 314.901 203.61M389.003 149.615L386.601 167.86C382.882 167.86 379.232 167.84 375.587 167.87C372.634 167.894 369.934 169.799 369.047 172.563C368.706 173.644 368.57 174.804 368.424 175.974L362.897 218.005L361.518 228.658H343.195L344.199 220.754L347.786 193.522L350.982 169.97C352.63 159.478 363.068 150.165 373.653 149.697L388.993 149.658" fill="#FAC0E1"/>
<path d="M195.084 123.051H199.626L198.554 116.228L195.084 123.051ZM200.337 127.495H192.784L190.381 132.198H185.031L196.838 110.098H201.994L206.015 132.149H201.054L200.342 127.446" fill="#FAC0E1"/>
<path d="M227.374 114.581H224.684L223.777 119.674H226.467C228.09 119.674 229.391 118.602 229.391 116.594C229.391 115.263 228.578 114.581 227.379 114.581H227.374ZM220.858 110.195H227.925C231.628 110.195 234.26 112.398 234.26 116.189C234.26 120.955 230.887 124.167 226.087 124.167H223.042L221.614 132.242H217.013L220.902 110.19" fill="#FAC0E1"/>
<path d="M249.859 123.051H254.401L253.329 116.228L249.859 123.051ZM255.112 127.495H247.559L245.156 132.198H239.805L251.613 110.098H256.769L260.789 132.149H255.828L255.117 127.446" fill="#FAC0E1"/>
<path d="M284.98 131.413C283.415 132.144 281.712 132.531 279.985 132.549C274.152 132.549 270.482 128.163 270.482 122.69C270.482 115.687 276.33 109.786 283.396 109.786C285.151 109.786 286.734 110.205 288.026 110.921L287.378 116.209C286.403 115.137 284.843 114.391 282.904 114.391C278.884 114.391 275.316 118.026 275.316 122.188C275.316 125.404 277.324 127.89 280.506 127.89C282.354 127.883 284.146 127.255 285.594 126.106L284.975 131.36M313.123 123.304H303.522L301.963 132.188H297.363L301.252 110.137H305.857L304.297 118.909H313.898L315.457 110.137H320.062L316.173 132.188H311.568L313.128 123.304M330.008 132.193L333.897 110.142H346.08L345.3 114.528H337.723L336.943 118.806H343.946L343.166 123.251H336.114L335.335 127.695H342.956L342.177 132.139H329.955" fill="#FAC0E1"/>
<defs>
<linearGradient id="paint0_linear_8_1834" x1="438.952" y1="30.4104" x2="438.952" y2="163.804" gradientUnits="userSpaceOnUse">
<stop stop-color="#B1B3F1"/>
<stop offset="1" stop-color="#F3B9DA"/>
</linearGradient>
</defs>
</svg>
