<svg width="744" height="372" viewBox="0 0 744 372" fill="none" xmlns="http://www.w3.org/2000/svg">
<path d="M25.7969 202.453V233.33L118.428 281.787L211.06 233.33V202.453L178.38 185.775L211.06 168.646V137.994V137.768L210.834 137.994L118.428 90.2131L26.0223 137.768H25.7969V168.646L58.4771 185.775L25.7969 202.453Z" fill="#FFC5E6"/>
<path d="M178.38 185.774L118.428 217.102L58.4771 185.774L25.7969 202.453L118.428 250.909L211.06 202.453L178.38 185.774Z" fill="url(#paint0_linear_8_1795)"/>
<path d="M118.428 90.2131L211.06 137.994L118.428 186.451L25.7969 137.994L118.428 90.2131Z" fill="url(#paint1_linear_8_1795)"/>
<path d="M276.347 181.646H276.713C276.713 181.646 276.347 178.439 276.347 177.98V151.859H268.556V145.169H284.504V219.315H292.019V226.006H278.363L277.172 218.399H276.713C276.713 218.399 271.764 226.739 259.483 226.739C246.102 226.739 236.02 217.757 236.02 200.618C236.02 183.938 246.835 174.589 259.574 174.589C272.497 174.681 276.347 181.646 276.347 181.646ZM276.347 211.525V188.795C274.972 186.596 270.573 181.555 261.133 181.555C252.975 181.555 244.085 187.512 244.085 200.71C244.085 213.816 252.151 220.049 261.224 220.049C267.365 219.957 273.506 217.116 276.347 211.525Z" fill="white"/>
<path d="M333.446 217.574C333.446 217.574 328.955 226.831 314.108 226.831C303.659 226.831 296.602 220.69 296.602 212.167C296.602 202.726 305.492 197.869 319.698 197.869H332.53V193.653C332.53 184.946 327.581 181.28 318.324 181.28C309.525 181.28 305.126 185.496 305.126 191.178V192.278H297.61V189.803C297.61 182.471 304.118 174.772 318.507 174.772C332.163 174.772 340.595 180.822 340.595 194.111V219.499H346.644V226.189H334.454L333.446 217.757V217.574ZM332.53 203.735H320.248C311.358 203.735 304.667 206.301 304.667 212.167C304.667 217.116 309.342 220.415 315.849 220.415C327.581 220.415 332.53 211.617 332.53 211.617V203.735Z" fill="white"/>
<path d="M363.691 161.849V175.414H379.731V181.921H363.691V209.234C363.691 216.383 366.808 219.865 372.123 219.865C377.806 219.865 381.197 218.216 381.197 218.216V225.09C381.197 225.09 377.073 226.831 370.749 226.831C361.033 226.831 355.443 221.148 355.443 209.692V181.921H347.744V175.414H355.443L356.817 161.849H363.691Z" fill="white"/>
<path d="M422.624 217.574C422.624 217.574 418.133 226.831 403.285 226.831C392.837 226.831 385.78 220.69 385.78 212.167C385.78 202.726 394.67 197.869 408.876 197.869H421.708V193.653C421.708 184.946 416.758 181.28 407.501 181.28C398.703 181.28 394.303 185.496 394.303 191.178V192.278H386.788V189.803C386.788 182.471 393.295 174.772 407.685 174.772C421.341 174.772 429.773 180.822 429.773 194.111V219.499H435.822V226.189H423.632L422.624 217.757V217.574ZM421.799 203.735H409.518C400.627 203.735 393.937 206.301 393.937 212.167C393.937 217.116 398.611 220.415 405.118 220.415C416.85 220.415 421.799 211.617 421.799 211.617V203.735Z" fill="white"/>
<path d="M450.945 218.491L449.662 226.098H443.521V151.859H436.005V145.169H451.586V177.889C451.586 178.347 451.22 181.555 451.22 181.555H451.586C451.586 181.555 456.169 174.589 468.542 174.589C481.098 174.589 492.005 183.938 492.005 200.618C492.005 217.757 481.923 226.739 468.725 226.739C456.444 226.739 451.403 218.399 451.403 218.399H450.945V218.491ZM451.586 188.795V211.525C454.336 217.024 460.568 219.957 466.801 219.957C475.783 219.957 483.848 213.816 483.848 200.618C483.848 187.42 475.049 181.463 466.892 181.463C457.544 181.463 453.144 186.504 451.586 188.795Z" fill="white"/>
<path d="M531.599 182.929C530.407 182.471 528.482 182.196 525.825 182.196C513.268 182.196 510.61 197.135 510.61 197.135V219.407H518.859V226.098H495.029V219.407H502.545V182.196H495.029V175.414H508.685L509.419 188.337H509.785C509.785 188.337 512.26 174.681 526.099 174.681C528.391 174.681 530.315 175.047 531.599 175.231V182.929Z" fill="white"/>
<path d="M554.603 219.316H561.844V226.006H538.931V219.316H546.446V182.196H538.931V175.414H554.512V219.316H554.603ZM550.113 166.249C546.63 166.249 543.789 163.408 543.789 159.741C543.789 156.259 546.63 153.417 550.113 153.417C553.687 153.417 556.62 156.259 556.62 159.741C556.62 163.408 553.687 166.249 550.113 166.249Z" fill="white"/>
<path d="M572.384 200.71C572.384 213.908 580.908 220.049 590.623 220.049C602.446 220.049 607.212 214.549 607.212 214.549L610.053 220.324C610.053 220.324 604.371 226.831 590.073 226.831C575.042 226.831 564.41 217.482 564.41 200.71C564.41 183.113 574.034 174.681 589.615 174.681C605.47 174.681 611.153 183.388 611.153 192.828V195.577H603.637V193.928C603.637 186.321 599.33 181.555 589.431 181.555C579.258 181.463 572.384 186.595 572.384 200.71Z" fill="white"/>
<path d="M629.942 196.586H642.498L654.688 181.921H648.364V175.414H671.277V181.921H663.486L648.73 199.794L664.22 219.499H671.918V226.006H659.637L641.857 202.91H629.942V219.315H637.182V226.006H614.177V219.315H621.785V151.859H614.177V145.169H629.942V196.586Z" fill="white"/>
<path d="M683.1 209.6V210.792C683.1 216.016 687.408 220.14 696.665 220.14C706.013 220.14 710.137 217.116 710.137 212.075C710.137 206.851 703.447 205.109 696.115 203.826C687.041 202.176 676.776 199.793 676.776 188.887C676.776 180.18 685.025 174.681 696.298 174.681C711.237 174.681 716.828 180.821 716.828 188.52V192.186H709.221V189.803C709.221 184.396 705.646 181.28 696.665 181.28C690.799 181.28 684.841 183.663 684.841 188.978C684.841 194.936 691.99 196.036 699.414 197.41C708.946 199.243 718.203 202.176 718.203 212.166C718.203 220.324 712.154 226.831 696.939 226.831C681.359 226.831 675.584 219.865 675.584 212.716V209.6H683.1Z" fill="white"/>
<defs>
<linearGradient id="paint0_linear_8_1795" x1="118.428" y1="185.774" x2="118.428" y2="250.909" gradientUnits="userSpaceOnUse">
<stop stop-color="#B1B3F1"/>
<stop offset="1" stop-color="#F3B9DA"/>
</linearGradient>
<linearGradient id="paint1_linear_8_1795" x1="118.428" y1="90.2131" x2="118.428" y2="186.451" gradientUnits="userSpaceOnUse">
<stop stop-color="#B1B3F1"/>
<stop offset="1" stop-color="#F3B9DA"/>
</linearGradient>
</defs>
</svg>
