<svg width="414" height="414" viewBox="0 0 414 414" fill="none" xmlns="http://www.w3.org/2000/svg">
<g clip-path="url(#clip0_8_1813)">
<path d="M360.375 181.939V85.2072H69.3354V285.603H169.872C170.295 287.802 170.802 289.747 171.478 291.522C174.015 298.456 179.765 307.841 192.955 313.676C202.848 318.242 212.826 324.668 223.48 333.377C225.847 335.322 228.469 337.267 231.005 339.127C231.09 339.212 231.174 339.296 231.259 339.381H65.1076H33.2303C14.8817 339.381 0 324.499 0 306.066V285.603H26.8886H28.326V74.215C28.326 57.5576 41.8549 44.1133 58.4278 44.1133H371.367C387.94 44.1133 401.469 57.5576 401.469 74.215V194.875C399.017 193.184 396.311 191.662 393.352 190.479L392.675 190.225L391.999 189.971C381.852 186.42 371.283 183.714 360.375 181.939ZM257.894 321.624C264.32 327.374 271 330.418 278.61 332.87C278.61 332.87 308.543 342.34 331.203 363.902C338.644 370.92 349.89 371.765 358.346 366.438L409.248 333.124C413.476 330.08 415.251 324.414 413.053 319.426L408.656 309.194C407.557 305.136 405.443 299.048 404.259 291.861C403.245 264.38 391.914 234.955 387.602 224.385C386.756 221.595 384.558 219.735 381.937 218.72C334.078 201.894 288.926 213.9 288.926 213.9L282.584 203.838C277.595 195.467 272.184 187.435 267.195 179.148C261.53 169.932 256.203 161.138 250.453 152.344C246.394 146.087 238.784 144.058 232.612 147.271C226.355 150.907 224.072 157.671 227.2 164.689C240.983 196.651 254.85 228.275 267.871 260.152C269.055 263.788 270.239 267.424 270.154 271.314C270.07 279.093 268.21 285.603 261.192 282.052C252.99 278.078 235.402 266.748 231.259 265.987C224.41 264.126 217.138 262.943 209.782 265.648C206.484 266.832 202.595 270.383 201.157 273.343C198.198 279.262 199.297 283.32 205.3 285.942C218.745 292.03 231.174 300.401 242.674 309.871C247.071 313.422 253.666 317.65 257.894 321.624Z" fill="url(#paint0_linear_8_1813)"/>
</g>
<defs>
<linearGradient id="paint0_linear_8_1813" x1="207" y1="44.1133" x2="207" y2="369.886" gradientUnits="userSpaceOnUse">
<stop stop-color="#B1B3F1"/>
<stop offset="1" stop-color="#F3B9DA"/>
</linearGradient>
<clipPath id="clip0_8_1813">
<rect width="414" height="414" fill="white"/>
</clipPath>
</defs>
</svg>
