<svg width="103" height="97" viewBox="0 0 103 97" fill="none" xmlns="http://www.w3.org/2000/svg">
<path d="M101.271 43.8874L85.6611 28.2772V10.2449C85.6611 6.9844 83.0189 4.34202 79.7536 4.34202C76.4958 4.34202 73.8536 6.9844 73.8536 10.2449V16.47L62.2306 4.84663C56.4841 -0.896779 46.4928 -0.886591 40.7594 4.85702L1.7282 43.8874C-0.575903 46.1961 -0.575903 49.9317 1.7282 52.2368C4.03333 54.5448 7.7762 54.5448 10.0805 52.2368L49.108 13.2054C50.3794 11.9406 52.6203 11.9406 53.885 13.2016L92.9191 52.2368C94.0766 53.3909 95.5856 53.965 97.0942 53.965C98.606 53.965 100.118 53.3903 101.271 52.2368C103.576 49.9319 103.576 46.1963 101.271 43.8874Z" fill="url(#paint0_linear_87_5)"/>
<path d="M53.5505 24.4105C52.4166 23.2772 50.5805 23.2772 49.4498 24.4105L15.1179 58.7322C14.5759 59.2741 14.2686 60.0138 14.2686 60.7858V85.8188C14.2686 91.693 19.0314 96.4557 24.9054 96.4557H41.9032V70.1317H61.0934V96.4557H78.0914C83.9652 96.4557 88.728 91.693 88.728 85.819V60.7858C88.728 60.0138 88.4234 59.2741 87.8787 58.7322L53.5505 24.4105Z" fill="url(#paint1_linear_87_5)"/>
<defs>
<linearGradient id="paint0_linear_87_5" x1="51.5001" y1="0.544189" x2="51.5001" y2="53.9678" gradientUnits="userSpaceOnUse">
<stop stop-color="#B1B3F1"/>
<stop offset="1" stop-color="#F3B9DA"/>
</linearGradient>
<linearGradient id="paint1_linear_87_5" x1="51.4983" y1="23.5605" x2="51.4983" y2="96.4557" gradientUnits="userSpaceOnUse">
<stop stop-color="#B1B3F1"/>
<stop offset="1" stop-color="#F3B9DA"/>
</linearGradient>
</defs>
</svg>
