<svg width="140" height="140" viewBox="0 0 140 140" fill="none" xmlns="http://www.w3.org/2000/svg">
<g clip-path="url(#clip0_89_31)">
<path d="M87.5501 44.8953C77.8733 39.3126 62.2415 39.3126 52.6219 44.8953C43.0024 50.4781 43.0596 59.5537 52.7364 65.1365C62.4133 70.7193 78.0451 70.7193 87.6646 65.1365C97.2842 59.5251 97.227 50.4781 87.5501 44.8953ZM83.1125 53.6847C82.2823 53.9423 81.452 54.2286 80.6217 54.4863C80.1064 54.6294 79.7915 54.6581 79.5625 54.5436C79.4479 54.4577 79.3334 54.3431 79.2189 54.1714C78.6749 53.2838 77.8447 52.5108 76.7281 51.881C76.585 51.7951 76.4132 51.7092 76.2414 51.6233C75.8692 51.4229 75.5257 51.2798 75.0676 51.1652C73.4643 50.7931 72.0328 51.3943 72.2333 52.3963C72.3191 52.9117 72.6054 53.3697 72.949 53.8564C73.5216 54.6581 74.1514 55.4597 74.5523 56.3186C75.8979 59.0098 72.9776 61.6723 68.2824 61.93C66.5932 62.0159 64.9899 61.8155 63.5012 61.3288C62.8427 61.1284 62.356 61.1284 61.8693 61.4719C61.3826 61.7869 60.8386 62.0732 60.3233 62.3595C59.8652 62.6171 59.3785 62.6458 58.9205 62.3881C58.5769 62.2163 58.262 62.0159 57.9184 61.8441C57.6894 61.701 57.4603 61.5865 57.2313 61.4433C56.7446 61.157 56.8019 60.8707 57.2599 60.5844C57.6321 60.3554 58.0043 60.155 58.3479 59.9259C59.1781 59.4392 59.1781 59.4106 58.491 58.8666C57.6321 58.1795 56.8591 57.4638 56.3724 56.6621C56.0002 56.0323 56.0861 55.8891 57.0882 55.5456C57.8325 55.3166 58.5483 55.0589 59.2926 54.8298C59.8366 54.6581 60.1515 54.6294 60.3806 54.744C60.5237 54.8298 60.6096 54.9444 60.7241 55.1448C61.2108 56.0609 62.0411 56.8626 63.0431 57.6356C63.2149 57.7787 63.4153 57.8932 63.5871 58.0077C64.1311 58.3227 64.7609 58.5517 65.4766 58.7235C67.3376 59.1529 68.9981 58.4086 68.8263 57.2347C68.7691 56.8339 68.5687 56.4904 68.311 56.1182C67.6811 55.1734 66.8509 54.2859 66.4214 53.2838C65.7343 51.6806 66.0492 50.2205 68.2537 49.0753C70.7731 47.7869 73.5788 47.7011 76.5563 48.5027C77.7874 48.8462 77.7588 48.8462 78.7036 48.3023C79.0185 48.1019 79.3334 47.9301 79.6483 47.7583C80.3641 47.3575 80.6217 47.3575 81.3375 47.7583C81.5665 47.8728 81.7669 48.016 81.996 48.1305C83.5133 48.9894 83.5133 48.9894 82.0246 49.8769C80.9653 50.4781 80.9653 50.4781 81.8528 51.1939C82.5399 51.7378 83.0839 52.3104 83.4847 52.9403C83.7996 53.2552 83.6851 53.5129 83.1125 53.6847ZM100.462 72.523C97.7996 74.069 93.4765 74.069 90.7853 72.523C88.1227 70.977 88.0941 68.4576 90.7567 66.9116C93.4192 65.3656 97.7423 65.3656 100.433 66.9116C103.125 68.4576 103.153 70.977 100.462 72.523ZM49.5013 43.0917C46.8387 44.6377 42.5156 44.6377 39.8245 43.0917C37.1333 41.5457 37.1333 39.0263 39.7958 37.4803C42.4584 35.9343 46.7815 35.9343 49.4727 37.4803C52.1352 39.0263 52.1638 41.5457 49.5013 43.0917ZM136.679 60.5272L60.3806 16.4661C55.9716 13.918 48.8142 13.918 44.4338 16.4661L3.52202 40.2287C-0.858322 42.7768 -0.829692 46.9281 3.57928 49.4761L79.8774 93.5372C84.2864 96.0852 91.4438 96.0852 95.8241 93.5372L136.707 69.7745C141.116 67.2265 141.088 63.0752 136.679 60.5272ZM96.6544 85.1487C96.1677 84.6906 95.5951 84.2612 94.908 83.8603C90.4417 81.2837 83.1984 81.2837 78.7608 83.8603C78.4173 84.0608 78.131 84.2612 77.816 84.4902L18.5812 50.2777C19.1538 50.0487 19.6978 49.791 20.2131 49.5047C24.6507 46.9281 24.6221 42.7481 20.1559 40.1714C19.6692 39.8852 19.1538 39.6275 18.6099 39.4271L43.031 25.2268C43.4032 25.5417 43.8326 25.828 44.3193 26.1143C48.7855 28.6909 56.0289 28.6909 60.4665 26.1143C60.9818 25.828 61.4112 25.5131 61.812 25.1695L121.247 59.4679C120.446 59.7542 119.73 60.0691 119.043 60.4699C114.605 63.0466 114.605 67.2551 119.1 69.8318C119.787 70.2326 120.56 70.5475 121.362 70.8338L96.6544 85.1487ZM1.5752 58.294C3.52202 57.292 6.52814 57.4351 8.38907 58.5231L88.1514 104.56L131.268 79.48C133.129 78.3921 136.192 78.3921 138.082 79.48C139.971 80.5679 139.971 82.343 138.11 83.4309L92.274 110.057C90.0409 111.373 86.3763 111.373 84.1146 110.057L82.5113 109.14L81.3947 108.482L1.43205 62.3308C-0.514766 61.2143 -0.486136 59.3533 1.5752 58.294ZM138.167 97.8316L92.3313 124.457C90.0982 125.774 86.4336 125.774 84.1718 124.457L82.5972 123.541L81.452 122.883L1.48931 76.7316C-0.457507 75.615 -0.400247 73.7541 1.66109 72.6948C3.57928 71.6927 6.61402 71.8359 8.47495 72.9238L88.2086 118.96L131.325 93.9094C133.214 92.8214 136.249 92.8214 138.139 93.9094C140.028 94.9687 140.057 96.7437 138.167 97.8316Z" fill="url(#paint0_linear_89_31)"/>
</g>
<defs>
<linearGradient id="paint0_linear_89_31" x1="69.9998" y1="14.555" x2="69.9998" y2="125.445" gradientUnits="userSpaceOnUse">
<stop stop-color="#B1B3F1"/>
<stop offset="1" stop-color="#F3B9DA"/>
</linearGradient>
<clipPath id="clip0_89_31">
<rect width="140" height="140" fill="white"/>
</clipPath>
</defs>
</svg>
