<svg width="129" height="129" viewBox="0 0 129 129" fill="none" xmlns="http://www.w3.org/2000/svg">
<path fill-rule="evenodd" clip-rule="evenodd" d="M102.75 0.75C104.441 0.75 106.062 1.42165 107.258 2.61719L126.383 21.7422C127.578 22.9377 128.25 24.5592 128.25 26.25V64.5C128.25 66.1908 127.578 67.8123 126.383 69.0078L107.258 88.1328C106.062 89.3283 104.441 90 102.75 90H73.5156L37.1328 126.383C35.9373 127.578 34.3158 128.25 32.625 128.25H7.125C3.60418 128.25 0.75 125.396 0.75 121.875V96.375C0.75 94.6842 1.42165 93.0627 2.61719 91.8672L39 55.4844V26.25C39 24.5592 39.6717 22.9377 40.8672 21.7422L59.9922 2.61719C61.1877 1.42165 62.8092 0.75 64.5 0.75H102.75ZM100.109 13.5H67.1406L51.75 28.8906V58.125C51.75 59.8158 51.0783 61.4373 49.8828 62.6328L13.5 99.0156V115.5H29.9844L66.3672 79.1172C67.5627 77.9217 69.1842 77.25 70.875 77.25H100.109L115.5 61.8594V28.8906L100.109 13.5ZM90 26.25C97.0416 26.25 102.75 31.9584 102.75 39C102.75 46.0416 97.0416 51.75 90 51.75C82.9584 51.75 77.25 46.0416 77.25 39C77.25 31.9584 82.9584 26.25 90 26.25Z" fill="url(#paint0_linear_89_52)"/>
<defs>
<linearGradient id="paint0_linear_89_52" x1="64.5" y1="0.75" x2="64.5" y2="128.25" gradientUnits="userSpaceOnUse">
<stop stop-color="#B1B3F1"/>
<stop offset="1" stop-color="#F3B9DA"/>
</linearGradient>
</defs>
</svg>
