<svg width="555" height="600" viewBox="0 0 555 600" fill="none" xmlns="http://www.w3.org/2000/svg">
<path d="M495.195 409.751C508.188 407.912 521.273 402.356 534.42 390.773C563.741 364.945 558.147 320.715 536.149 294.382C513.663 267.55 468.021 251.669 413.37 295.241C320.804 369.044 282.287 342.148 281.911 341.851L275.189 350.54C276.973 351.955 319.91 383.81 420.285 303.817C468.713 265.277 507.57 277.268 527.792 301.418C546.478 323.784 551.577 361.098 527.234 382.521C497.021 409.108 466.918 398.897 435.049 388.103C422.228 383.747 408.973 379.254 395.615 377.228C347.911 369.991 318.163 398.448 316.917 399.658L324.596 407.509C334.087 399.478 345.195 393.587 357.167 390.237C369.138 386.887 381.69 386.158 393.969 388.099C406.354 389.964 419.155 394.304 431.535 398.504C452.293 405.587 473.621 412.805 495.195 409.751Z" fill="#CAB3DA"/>
<path fill-rule="evenodd" clip-rule="evenodd" d="M426.971 512.206C426.971 512.206 454.309 536.683 475.022 524.728L426.971 512.206Z" fill="#CAB3DA"/>
<path fill-rule="evenodd" clip-rule="evenodd" d="M49.0614 309.32C59.9136 329.462 111.971 348.487 138.44 340.804C139.622 340.467 140.784 340.062 141.92 339.595C157.538 332.981 167.099 314.536 171.804 302.547C173.24 299.005 174.464 295.379 175.468 291.69L168.684 237.623C168.684 237.623 167.999 237.854 166.833 238.336C159.898 241.16 153.322 244.801 147.245 249.179C137.187 256.673 100.879 269.535 80.899 267.945C60.9188 266.354 53.1005 261.175 48.5395 262.521C43.9785 263.867 41.4122 272.235 41.4122 272.235C41.4122 272.235 37.6221 288.096 49.0614 309.32Z" fill="url(#paint0_radial_21_65)"/>
<path fill-rule="evenodd" clip-rule="evenodd" d="M41.4122 272.235C41.4122 272.235 49.1556 268.053 53.1439 272.674C57.1322 277.296 65.8169 307.565 49.0747 309.302C32.3325 311.039 41.4279 272.232 41.4279 272.232L41.4122 272.235Z" fill="#684D73"/>
<path fill-rule="evenodd" clip-rule="evenodd" d="M45.9068 273.483C45.9068 273.483 50.8484 289.674 43.3683 305.024C43.3683 305.024 32.3929 285.784 45.9068 273.483Z" fill="#53345F"/>
<path fill-rule="evenodd" clip-rule="evenodd" d="M6.85137 277.645C12.9311 286.428 21.426 293.258 31.308 297.31C35.6382 299.235 40.1799 300.647 44.8387 301.515C48.0369 294.808 48.844 287.209 47.1259 279.98C47.1259 279.98 45.9902 278.073 44.1162 275.32C39.9225 269.244 32.486 258.991 26.6515 255.932L27.3402 263.622C27.3402 263.622 19.633 253.691 3.02859 256.759C3.0455 256.756 -4.81391 260.004 6.85137 277.645Z" fill="#D9D9D9"/>
<path d="M102.299 266.015C102.299 266.015 113.869 278.383 119.004 307.005C124.137 335.625 104.779 340.317 104.779 340.317C104.779 340.317 116.963 343.244 125.368 342.554C125.368 342.554 170.363 324.411 119.976 261.344L102.299 266.015Z" fill="url(#paint1_linear_21_65)"/>
<path style="mix-blend-mode:multiply" fill-rule="evenodd" clip-rule="evenodd" d="M171.804 302.547C173.087 306.667 174.655 310.914 176.319 315.365L188.662 283.603L171.804 236.814L166.939 237.787C166.881 237.962 166.855 238.133 166.799 238.324C159.863 241.149 153.288 244.789 147.212 249.167C147.212 249.167 188.431 279.616 141.904 339.48C157.539 332.981 167.099 314.536 171.804 302.547Z" fill="url(#paint2_linear_21_65)"/>
<path fill-rule="evenodd" clip-rule="evenodd" d="M232.498 557.415C232.498 557.415 239.45 538.573 285.105 536.627C285.111 536.677 270.576 561.195 232.498 557.415Z" fill="#311745"/>
<path fill-rule="evenodd" clip-rule="evenodd" d="M430.873 463.68C430.873 463.68 401.912 467.781 391.634 502.586C391.634 502.586 404.938 506.004 419.354 494.542C433.769 483.08 430.873 463.68 430.873 463.68Z" fill="#311745"/>
<path fill-rule="evenodd" clip-rule="evenodd" d="M265.976 563.565L285.816 552.852C285.816 552.852 284.724 547.486 283.292 538.903C279.622 517.211 273.716 475.126 277.35 448.032L194.1 412.029C194.1 412.029 194.485 417.227 195.193 425.414C197.374 449.183 195.458 497.962 203.244 516.102C213.737 540.413 265.976 563.565 265.976 563.565Z" fill="url(#paint3_radial_21_65)"/>
<path fill-rule="evenodd" clip-rule="evenodd" d="M194.095 411.996C216.242 432.258 244.11 445.173 273.883 448.973L277.35 448.032L295.871 442.959C295.866 442.898 295.858 442.838 295.846 442.779L295.793 442.403C295.771 442.305 295.756 442.207 295.75 442.108C295.725 441.983 295.707 441.859 295.697 441.732C294.671 433.307 289.807 380.202 321.763 328.355C317.166 324.329 312.844 319.999 308.827 315.395C308.032 314.491 307.179 313.528 306.269 312.522C302.145 307.887 297.151 302.041 291.235 294.642C278.304 278.664 256.73 252.737 241.873 234.932C237.414 229.576 233.543 224.956 230.687 221.508C229.623 220.224 228.678 219.091 227.902 218.2L225.532 215.351C225.532 215.351 189.661 239.422 167.529 235.469C167.529 235.469 167.285 236.221 166.926 237.689C166.869 237.88 166.844 238.051 166.785 238.226C165.006 245.914 161.339 269.012 171.75 302.404C173.05 306.522 174.602 310.771 176.279 315.203C176.902 316.782 177.527 318.362 178.216 319.932C178.296 346.828 182.189 373.579 189.777 399.384C191.123 403.712 192.544 407.863 194.095 411.996Z" fill="#CAB3DA"/>
<path fill-rule="evenodd" clip-rule="evenodd" d="M245.945 268.771C246.842 269.929 247.807 271.093 248.796 272.303C264.372 291.075 286.802 308.443 308.873 315.489C322.4 319.777 335.74 320.156 347.277 314.62C373.043 302.201 381.355 278.23 383.271 271.273C383.315 271.05 383.373 270.83 383.443 270.614C383.474 270.421 383.52 270.231 383.58 270.045C383.697 269.577 383.747 269.338 383.747 269.338C383.747 269.338 391.629 262.135 386.807 252.679C381.985 243.224 370.941 230.331 370.941 230.331L365.63 230.849C365.63 230.849 361.414 224.626 354.163 225.803C346.91 226.98 332.288 235.57 309.3 233.822C289.082 232.315 257.986 224.629 247.456 220.901C246.349 220.565 245.276 220.125 244.253 219.588C240.676 217.718 236.782 216.533 232.771 216.094L229.882 217.469L227.976 218.373L222.121 221.169C222.121 221.169 220.49 236.858 245.945 268.771Z" fill="url(#paint4_radial_21_65)"/>
<path fill-rule="evenodd" clip-rule="evenodd" d="M295.87 442.959C295.87 442.959 344.027 474.358 355.742 483.039C367.455 491.718 399.789 502.497 415.674 502.466C416.06 502.479 416.449 502.468 416.836 502.436C431.762 501.89 436.468 491.318 436.468 491.318C436.468 491.318 435.655 488.398 434.354 483.798C432.603 477.676 429.989 468.624 427.148 459.622C423.418 447.644 419.314 435.719 416.561 431.106C411.876 423.215 362.366 370.946 336.839 344.178C327.801 334.737 321.779 328.468 321.779 328.468C284.612 365.88 294.098 432.436 295.71 441.83C295.72 441.957 295.738 442.082 295.764 442.206C295.771 442.305 295.785 442.404 295.806 442.501L295.852 442.827C295.86 442.87 295.866 442.914 295.87 442.959Z" fill="url(#paint5_radial_21_65)"/>
<path fill-rule="evenodd" clip-rule="evenodd" d="M218.827 222.519C218.827 222.519 201.428 239.99 193.887 243.492C186.348 246.994 167.584 235.628 167.584 235.628C167.584 235.628 186.48 235.437 218.827 222.519Z" fill="#53345F"/>
<path fill-rule="evenodd" clip-rule="evenodd" d="M232.753 216.079C232.753 216.079 241.407 279.703 297.425 312.108C297.425 312.108 247.744 290.911 218.827 222.519L232.753 216.079Z" fill="#53345F"/>
<path fill-rule="evenodd" clip-rule="evenodd" d="M171.796 236.882C171.796 236.882 169.64 285.962 178.259 320.125C178.259 320.125 159.34 283.618 162.228 240.422L167.584 235.628L171.796 236.882Z" fill="#53345F"/>
<path fill-rule="evenodd" clip-rule="evenodd" d="M331.039 338.064C331.039 338.064 305.151 362.939 303.691 448.037L295.92 442.951C295.92 442.951 280.277 362.692 321.807 328.432L331.039 338.064Z" fill="#53345F"/>
<path fill-rule="evenodd" clip-rule="evenodd" d="M189.863 399.639C189.863 399.639 233.956 445.922 277.332 448.017L276.762 453.301C276.762 453.301 233.23 457.163 194.879 421.54L189.863 399.639Z" fill="#53345F"/>
<path fill-rule="evenodd" clip-rule="evenodd" d="M383.759 269.302C383.759 269.302 391.642 262.099 386.819 252.644C381.997 243.189 370.953 230.296 370.953 230.296L365.642 230.814C365.642 230.814 351.537 258.14 383.759 269.302Z" fill="#684D73"/>
<path fill-rule="evenodd" clip-rule="evenodd" d="M385.018 260.053C385.018 260.053 365.347 246.163 370.897 230.37C370.953 230.296 390.615 252.491 385.018 260.053Z" fill="#53345F"/>
<path fill-rule="evenodd" clip-rule="evenodd" d="M371.029 241.44C371.029 241.44 368.024 227.157 378.423 218.415L381.629 224.332C381.629 224.332 393.391 206.491 409.756 211.045C409.756 211.045 415.867 239.376 382.361 258.011C376.83 253.917 372.839 248.08 371.029 241.44Z" fill="#D9D9D9"/>
<path d="M401.874 413.559C401.874 413.559 411.54 432.034 390.144 455.073C368.748 478.112 345.153 475.601 345.153 475.601C345.153 475.601 358.112 485.538 366.67 489.228C375.228 492.919 412.774 471.495 422.252 444.59C422.252 444.59 419.267 434.091 415.256 429.189C411.244 424.289 401.874 413.559 401.874 413.559Z" fill="url(#paint6_linear_21_65)"/>
<path d="M276.577 481.207C276.577 481.207 263.258 501.001 244.469 513.484C233.235 520.927 219.657 523.977 206.321 522.053C206.321 522.053 215.303 534.037 225.008 539.834C225.008 539.834 249.194 534.742 260.596 525.074C271.998 515.405 278.017 500.096 278.017 500.096L276.577 481.207Z" fill="url(#paint7_linear_21_65)"/>
<path d="M303.319 233.252C303.319 233.252 276.449 283.345 329.581 318.693C323.04 318.955 316.507 318.004 310.313 315.886C295.772 311.274 251.55 255.838 287.112 230.527L303.319 233.252Z" fill="url(#paint8_linear_21_65)"/>
<path d="M277.035 448.393L277.638 447.708C277.277 447.391 241.645 415.552 226.87 388.196C214.075 364.461 211.308 350.913 207.484 332.146C206.047 325.046 204.408 317.007 201.998 307.51C196.832 287.084 193.167 266.308 191.033 245.347L190.118 245.478C192.27 266.486 195.947 287.309 201.12 307.784C203.509 317.25 205.148 325.29 206.6 332.37C210.435 351.22 213.204 364.785 226.072 388.675C240.923 416.104 276.587 448.056 277.035 448.393Z" fill="#53345F"/>
<path style="mix-blend-mode:multiply" fill-rule="evenodd" clip-rule="evenodd" d="M281.683 539.78L283.227 538.911C279.557 517.22 273.651 475.135 277.285 448.04L295.871 442.959C295.871 442.959 344.027 474.358 355.759 483.036C367.489 491.713 399.791 502.497 415.674 502.466C416.062 502.473 416.448 502.456 416.834 502.419L434.343 483.715C432.612 477.608 429.98 468.559 427.155 459.555L425.257 459.339C425.257 459.339 408.38 486.741 384.158 488.754C359.937 490.766 311.368 440.548 310.426 430.126C306.93 391.167 325.895 359.085 336.836 344.146L321.773 328.42C317.176 324.395 312.854 320.065 308.835 315.462C322.362 319.749 335.703 320.127 347.254 314.573C373.005 302.156 381.317 278.202 383.231 271.228C380.945 278.638 370.183 306.025 330.532 314.456C322.441 316.123 314.041 315.449 306.319 312.515C271.887 300.232 246.054 250.93 242.878 240.025C242.391 238.383 242.074 236.696 241.932 234.99C241.185 225.241 247.418 220.872 247.418 220.872C246.33 220.533 245.27 220.102 244.253 219.586C240.676 217.718 236.782 216.533 232.772 216.093L229.882 217.469C230.114 218.521 230.386 219.966 230.762 221.681C234.296 237.843 239.387 253.623 245.966 268.801C251.031 280.737 257.695 291.928 265.778 302.064C292.883 334.795 300.849 339.72 300.849 339.72C300.849 339.72 292.959 401.767 278.846 418.905C264.734 436.045 216.139 419.447 203.014 409.515C196.768 404.847 192.575 401.606 189.833 399.543C191.12 403.697 192.526 407.849 194.093 411.98C194.093 411.98 194.478 417.177 195.187 425.365C208.347 435.89 253.058 472.514 262.895 488.547C274.439 507.439 281.683 539.78 281.683 539.78Z" fill="url(#paint9_linear_21_65)"/>
<g style="mix-blend-mode:multiply" opacity="0.5">
<path fill-rule="evenodd" clip-rule="evenodd" d="M232.751 216.062C232.751 216.062 229.481 251.86 200.61 277.209C171.738 302.556 153.423 245.003 153.423 245.003L162.227 240.422L166.982 237.848L232.751 216.062Z" fill="#53345F"/>
</g>
<path fill-rule="evenodd" clip-rule="evenodd" d="M63.2241 210.785C63.508 211.144 63.7738 211.491 64.0879 211.829C68.0762 216.45 74.98 221.176 83.7129 225.276C83.7129 225.276 84.2336 225.536 85.222 225.928C104.346 234.291 125.095 238.275 145.956 237.59C182.221 236.206 234.078 223.445 263.622 193.533C293.165 163.621 293.872 90.8687 280.731 70.1181C276.22 62.8878 271.267 55.9428 265.902 49.3228C248.503 27.9244 220.127 2.94499 179.189 0.637173C148.25 -1.11837 108.9 9.57139 80.0315 23.864C71.8169 27.8301 63.9973 32.5673 56.6768 38.0103C52.7598 40.9191 49.1835 44.2617 46.0167 47.9729L44.9197 49.4122C44.1899 50.3524 43.5278 51.3433 42.9394 52.3778C12.507 105.81 43.8262 185.75 63.2241 210.785Z" fill="url(#paint10_linear_21_65)"/>
<path d="M67.3405 204.766C67.6196 205.093 67.8503 205.427 68.1439 205.736C77.0932 212.305 106.938 228.473 150.387 211.3C203.816 190.195 203.983 141.431 203.983 141.431L214.519 138.005C213.213 131.019 212.332 124.557 211.772 118.601C208.582 85.2191 215.397 67.8788 214.352 63.2081C213.129 57.6286 195.213 27.8664 153.076 20.7425C125.155 16.0415 100.331 22.4077 83.0992 29.516C75.3932 33.2296 68.0606 37.6743 61.204 42.7874C57.5213 45.5016 54.1649 48.6352 51.206 52.124L50.179 53.4702C49.4904 54.3536 48.8705 55.289 48.3244 56.2678C36.4646 77.0728 34.61 102.13 37.7719 126.011C42.2169 159.649 56.6913 191.016 67.3405 204.766Z" fill="url(#paint11_linear_21_65)"/>
<path style="mix-blend-mode:multiply" fill-rule="evenodd" clip-rule="evenodd" d="M85.2231 225.928C104.347 234.291 125.097 238.275 145.956 237.59C182.221 236.206 234.08 223.445 263.622 193.533C293.165 163.621 293.872 90.8688 280.732 70.1181C276.221 62.8879 271.268 55.9428 265.903 49.3228C260.338 45.3421 254.057 43.4967 247.014 46.0273C221.172 55.3228 229.163 143.002 229.163 143.002L215.99 144.166C215.99 144.166 216.265 195.219 166.457 220.83C122.948 243.231 92.1692 228.714 85.2231 225.928Z" fill="url(#paint12_linear_21_65)"/>
<path fill-rule="evenodd" clip-rule="evenodd" d="M275.827 175.764C264.893 189.201 240.942 188.424 230.855 144.596C220.769 100.769 238.465 53.4751 238.465 53.4751C202.418 63.5803 220.137 139.661 220.137 139.661C221.385 142.818 222.581 145.734 223.817 148.461L223.943 148.759C249.783 206.598 273.774 178.339 275.827 175.764Z" fill="url(#paint13_linear_21_65)"/>
<path fill-rule="evenodd" clip-rule="evenodd" d="M283.639 76.1762C277.338 61.6939 266.208 53.0146 257.611 54.6993C249.013 56.3839 232.387 98.8736 244.604 141.849C256.821 184.825 282.297 166.11 285.113 148.553L286.891 138.963C286.891 138.963 270.244 170.118 254.778 145.177C237.117 116.747 255.782 73.584 269.687 76.6511C283.591 79.7182 288.611 104.353 288.611 104.353C288.611 104.353 287.834 85.7871 283.639 76.1762Z" fill="#53345F"/>
<path fill-rule="evenodd" clip-rule="evenodd" d="M291.603 557.101L287.541 551.957L285.193 536.665C285.193 536.665 255.754 556.474 232.569 557.456C242.015 563.474 252.917 566.812 264.112 567.113C264.112 567.113 247.493 578.438 251.456 597.486L291.603 557.101Z" fill="#D9D9D9"/>
<path fill-rule="evenodd" clip-rule="evenodd" d="M391.74 502.52L423.864 506.51L426.983 512.287C426.983 512.287 448.384 529.567 475.032 524.794C475.032 524.794 467.176 502.978 439.773 495.819L430.896 463.726C429.407 473.201 425.504 482.132 419.562 489.66C410.121 501.519 393.232 502.459 391.74 502.52Z" fill="#D9D9D9"/>
<path fill-rule="evenodd" clip-rule="evenodd" d="M291.603 557.101L295.149 559.3L253.649 600.144L251.399 597.444L291.603 557.101Z" fill="#CAB3DA"/>
<path style="mix-blend-mode:multiply" fill-rule="evenodd" clip-rule="evenodd" d="M232.498 557.416C241.943 563.435 252.844 566.772 264.04 567.073C264.04 567.073 282.803 558.297 291.603 557.101L287.541 551.957L285.193 536.665C285.193 536.665 255.686 556.468 232.498 557.416Z" fill="url(#paint14_linear_21_65)"/>
<path style="mix-blend-mode:multiply" fill-rule="evenodd" clip-rule="evenodd" d="M391.742 502.52L423.864 506.51C429.944 504.265 435.398 500.6 439.773 495.819L430.896 463.726C429.407 473.201 425.504 482.132 419.563 489.66C410.121 501.519 393.232 502.459 391.742 502.52Z" fill="url(#paint15_linear_21_65)"/>
<path d="M195.433 65.8208C195.433 65.8208 193.125 52.8068 191.134 49.104C184.827 45.4182 177.858 43.0049 170.623 42.0031L166.698 66.3368C166.698 66.3368 189.022 64.9277 195.433 65.8208Z" fill="white"/>
<path d="M67.4323 205.537C67.6957 205.865 67.9421 206.198 68.2369 206.506C77.1692 213.079 106.977 229.218 150.38 212.069C203.743 190.972 203.854 142.283 203.854 142.283L214.356 138.862C213.066 131.875 212.188 125.429 211.612 119.474C211.612 119.474 107.585 45.5088 37.9 126.794C42.3317 160.467 56.7867 191.802 67.4323 205.537Z" fill="url(#paint16_linear_21_65)"/>
<path d="M196.017 151.697C196.017 151.697 194.989 163.281 190.978 170.752L183.941 168.147C183.941 168.147 187.247 157.341 188.424 150.937L196.017 151.697Z" fill="white"/>
<path style="mix-blend-mode:multiply" fill-rule="evenodd" clip-rule="evenodd" d="M406.699 232.788C406.699 232.788 397.568 246.254 386.423 248.431C375.278 250.61 370.745 239.429 370.745 239.429C370.745 239.429 370.812 249.091 382.296 258.021C382.296 258.021 401.334 247.888 406.699 232.788Z" fill="url(#paint17_linear_21_65)"/>
<path style="mix-blend-mode:multiply" fill-rule="evenodd" clip-rule="evenodd" d="M31.3237 297.308C35.6551 299.233 40.1968 300.644 44.8556 301.512C48.0538 294.805 48.8609 287.206 47.1428 279.977C47.1428 279.977 46.0059 278.07 44.1331 275.317C44.1331 275.317 46.3333 287.33 31.3237 297.308Z" fill="url(#paint18_linear_21_65)"/>
<path fill-rule="evenodd" clip-rule="evenodd" d="M212.358 292.02C213.478 294.099 214.998 295.937 216.831 297.429C218.663 298.92 220.771 300.034 223.035 300.708C225.3 301.382 227.674 301.603 230.024 301.356C232.372 301.111 234.65 300.403 236.724 299.274C238.806 298.156 240.645 296.636 242.137 294.804C243.629 292.972 244.744 290.862 245.419 288.597C246.093 286.333 246.313 283.957 246.065 281.606C245.819 279.256 245.109 276.978 243.978 274.903C242.858 272.823 241.339 270.985 239.507 269.494C237.674 268.002 235.566 266.888 233.302 266.214C231.037 265.54 228.663 265.32 226.314 265.565C223.964 265.812 221.687 266.518 219.612 267.647C217.533 268.767 215.695 270.288 214.205 272.121C212.714 273.953 211.6 276.062 210.925 278.326C210.251 280.591 210.031 282.966 210.277 285.316C210.523 287.665 211.23 289.943 212.358 292.02Z" fill="#684D73"/>
<path fill-rule="evenodd" clip-rule="evenodd" d="M218.229 288.853C219.656 291.475 222.065 293.421 224.926 294.266C227.787 295.112 230.867 294.787 233.488 293.363C234.788 292.658 235.934 291.703 236.863 290.555C237.794 289.406 238.488 288.085 238.906 286.667C239.326 285.25 239.461 283.763 239.304 282.294C239.148 280.823 238.703 279.398 237.997 278.1C236.57 275.48 234.162 273.534 231.301 272.688C228.439 271.842 225.36 272.167 222.738 273.592C220.118 275.019 218.171 277.427 217.325 280.289C216.481 283.151 216.806 286.231 218.229 288.853Z" fill="url(#paint19_linear_21_65)"/>
<path fill-rule="evenodd" clip-rule="evenodd" d="M279.786 229.296C279.786 229.296 265.844 250.347 250.502 221.92C250.502 221.92 271.684 227.526 279.786 229.296Z" fill="#684D73"/>
<path d="M240.476 475.614C252.608 473.812 264.6 471.179 276.371 467.73L276.096 466.851C275.506 467.035 217.015 484.537 197.314 471.136L196.804 471.892C206.297 478.419 224.132 477.927 240.476 475.614Z" fill="#53345F"/>
<path d="M320.604 460.816L321.519 460.687C319.317 449.986 318.786 439.007 319.947 428.144C323.044 400.425 353.549 362.356 353.846 361.98L353.13 361.398C352.833 361.774 322.157 400.051 319.033 428.04C317.869 438.982 318.4 450.037 320.604 460.816Z" fill="#53345F"/>
<path d="M369.289 297.347L370.009 296.777C331.535 247.798 354.258 226.356 354.48 226.158L353.883 225.475C353.631 225.694 347.788 231.057 346.747 242.66C345.72 253.311 348.938 271.464 369.289 297.347Z" fill="#53345F"/>
<path d="M83.7335 334.026C101.294 298.84 62.4738 264.967 62.0932 264.638L61.4903 265.323C61.8721 265.669 100.16 299.084 82.924 333.607L83.7335 334.026Z" fill="#53345F"/>
<path d="M248.84 332.693C250.853 336.248 253.312 339.532 256.158 342.462L263.212 337.645C261.146 333.973 258.044 330.99 254.295 329.069L248.84 332.693Z" fill="white"/>
<path d="M338.754 234.138C336.054 235.414 333.087 236.023 330.102 235.912L327.511 240.215C327.511 240.215 334.459 243.016 338.503 238.841L338.754 234.138Z" fill="white"/>
<path d="M386.006 420.174C389.555 422.311 392.532 425.276 394.681 428.818L390.183 434.14L382.339 425.246L386.006 420.174Z" fill="white"/>
<path d="M49.8588 262.885C52.7754 263.895 55.2982 265.803 57.0646 268.335L62.957 268.618C61.7259 267.261 60.3352 266.058 58.8153 265.036C56.4508 263.519 49.8588 262.885 49.8588 262.885Z" fill="white"/>
<path d="M207.52 487.416C207.52 487.416 206.257 502.053 208.718 508.607L202.636 509.335C200.329 502.766 199.632 495.74 200.604 488.845L207.52 487.416Z" fill="white"/>
<path d="M174.972 16.6591C174.972 16.6591 139.246 9.01066 117.653 12.8681C117.653 12.8681 192.95 -8.26453 174.972 16.6591Z" fill="white"/>
<path d="M230.231 86.2391L216.888 84.6596L215.801 99.1214L228.513 99.5383L230.231 86.2391Z" fill="white"/>
<defs>
<radialGradient id="paint0_radial_21_65" cx="0" cy="0" r="1" gradientUnits="userSpaceOnUse" gradientTransform="translate(117.333 289.073) rotate(151.638) scale(63.2898 63.2972)">
<stop stop-color="#F4DBEE"/>
<stop offset="1" stop-color="#D1BDE5"/>
</radialGradient>
<linearGradient id="paint1_linear_21_65" x1="144.287" y1="294.555" x2="94.1937" y2="301.744" gradientUnits="userSpaceOnUse">
<stop stop-color="#AA367C"/>
<stop offset="1" stop-color="#4A2FBD"/>
</linearGradient>
<linearGradient id="paint2_linear_21_65" x1="189.564" y1="269.704" x2="123.494" y2="305.357" gradientUnits="userSpaceOnUse">
<stop stop-color="#9579A7"/>
<stop offset="1" stop-color="white"/>
</linearGradient>
<radialGradient id="paint3_radial_21_65" cx="0" cy="0" r="1" gradientUnits="userSpaceOnUse" gradientTransform="translate(196.98 496.148) rotate(151.638) scale(67.4663 67.4742)">
<stop stop-color="#F4F1FF"/>
<stop offset="1" stop-color="#D1BDE5"/>
</radialGradient>
<radialGradient id="paint4_radial_21_65" cx="0" cy="0" r="1" gradientUnits="userSpaceOnUse" gradientTransform="translate(311.005 253.618) rotate(151.638) scale(69.0839 69.092)">
<stop stop-color="#F4DBEE"/>
<stop offset="1" stop-color="#D1BDE5"/>
</radialGradient>
<radialGradient id="paint5_radial_21_65" cx="0" cy="0" r="1" gradientUnits="userSpaceOnUse" gradientTransform="translate(350.88 426.931) rotate(151.638) scale(81.349 81.3585)">
<stop stop-color="#F4F1FF"/>
<stop offset="1" stop-color="#D1BDE5"/>
</radialGradient>
<linearGradient id="paint6_linear_21_65" x1="426.856" y1="442.02" x2="332.706" y2="455.746" gradientUnits="userSpaceOnUse">
<stop stop-color="#AA367C"/>
<stop offset="1" stop-color="#4A2FBD"/>
</linearGradient>
<linearGradient id="paint7_linear_21_65" x1="284.305" y1="503.062" x2="196.471" y2="515.981" gradientUnits="userSpaceOnUse">
<stop stop-color="#AA367C"/>
<stop offset="1" stop-color="#4A2FBD"/>
</linearGradient>
<linearGradient id="paint8_linear_21_65" x1="325.202" y1="267.245" x2="270.194" y2="275.134" gradientUnits="userSpaceOnUse">
<stop stop-color="#AA367C"/>
<stop offset="1" stop-color="#4A2FBD"/>
</linearGradient>
<linearGradient id="paint9_linear_21_65" x1="406.849" y1="314.785" x2="196.755" y2="428.155" gradientUnits="userSpaceOnUse">
<stop stop-color="white"/>
<stop offset="1" stop-color="#9579A7"/>
</linearGradient>
<linearGradient id="paint10_linear_21_65" x1="216.615" y1="224.275" x2="101.931" y2="11.8372" gradientUnits="userSpaceOnUse">
<stop stop-color="#D1BDE5"/>
<stop offset="1" stop-color="white"/>
</linearGradient>
<linearGradient id="paint11_linear_21_65" x1="229.92" y1="93.2385" x2="15.5909" y2="124.321" gradientUnits="userSpaceOnUse">
<stop stop-color="#AA367C"/>
<stop offset="1" stop-color="#4A2FBD"/>
</linearGradient>
<linearGradient id="paint12_linear_21_65" x1="296.914" y1="99.896" x2="80.3102" y2="216.778" gradientUnits="userSpaceOnUse">
<stop stop-color="white"/>
<stop offset="1" stop-color="#9579A7"/>
</linearGradient>
<linearGradient id="paint13_linear_21_65" x1="273.278" y1="179.428" x2="212.419" y2="66.6921" gradientUnits="userSpaceOnUse">
<stop stop-color="#D1BDE5"/>
<stop offset="1" stop-color="#F4DBEE"/>
</linearGradient>
<linearGradient id="paint14_linear_21_65" x1="288.532" y1="542.895" x2="239.109" y2="569.565" gradientUnits="userSpaceOnUse">
<stop stop-color="white"/>
<stop offset="1" stop-color="#9579A7"/>
</linearGradient>
<linearGradient id="paint15_linear_21_65" x1="439.154" y1="478.9" x2="392.609" y2="504.017" gradientUnits="userSpaceOnUse">
<stop stop-color="white"/>
<stop offset="1" stop-color="#9579A7"/>
</linearGradient>
<linearGradient id="paint16_linear_21_65" x1="224.001" y1="131.746" x2="22.1141" y2="161.32" gradientUnits="userSpaceOnUse">
<stop stop-color="#5A30B2"/>
<stop offset="1" stop-color="#4A2FBD"/>
</linearGradient>
<linearGradient id="paint17_linear_21_65" x1="406.557" y1="232.448" x2="374.48" y2="249.757" gradientUnits="userSpaceOnUse">
<stop stop-color="white"/>
<stop offset="1" stop-color="#9579A7"/>
</linearGradient>
<linearGradient id="paint18_linear_21_65" x1="50.0812" y1="285.342" x2="30.586" y2="295.861" gradientUnits="userSpaceOnUse">
<stop stop-color="#9579A7"/>
<stop offset="1" stop-color="white"/>
</linearGradient>
<linearGradient id="paint19_linear_21_65" x1="240.447" y1="280.529" x2="214.187" y2="284.344" gradientUnits="userSpaceOnUse">
<stop stop-color="#AA367C"/>
<stop offset="1" stop-color="#4A2FBD"/>
</linearGradient>
</defs>
</svg>
