<svg width="667" height="660" viewBox="0 0 667 660" fill="none" xmlns="http://www.w3.org/2000/svg">
<path style="mix-blend-mode:screen" fill-rule="evenodd" clip-rule="evenodd" d="M666.948 313.519C666.948 497.695 517.618 646.992 333.459 646.992C284.461 647.058 236.058 636.271 191.724 615.409C183.236 611.427 174.939 607.064 166.849 602.397C134.555 583.738 105.62 559.792 81.2509 531.555C72.368 521.328 64.1244 510.563 56.5668 499.32C46.2312 483.967 37.207 467.771 29.5893 450.903C10.054 407.741 -0.0186107 360.897 0.0481199 313.519C-0.0133449 266.055 10.0923 219.128 29.6849 175.898C35.7423 162.49 42.7071 149.512 50.5311 137.053C67.3139 110.139 87.8643 85.7681 111.556 64.6819C172.554 10.0653 251.586 -20.0772 333.459 -19.9523C360.113 -19.9693 386.676 -16.7932 412.575 -10.4918C447.367 -2.02317 480.556 12.0313 510.85 31.1244C516.678 34.8035 522.38 38.6259 527.922 42.6554C532.572 45.984 537.143 49.472 541.601 53.0555C563.493 70.4899 583.092 90.6213 599.936 112.971C635.946 160.64 658.386 217.166 664.879 276.553C666.272 288.827 666.963 301.169 666.948 313.519Z" fill="url(#paint0_radial_4_34)"/>
<path fill-rule="evenodd" clip-rule="evenodd" d="M642.822 313.519C642.822 484.381 504.272 622.879 333.458 622.879C287.988 622.947 243.068 612.932 201.932 593.558C194.065 589.879 186.373 585.833 178.856 581.501C148.901 564.184 122.057 541.972 99.4372 515.788C91.1991 506.3 83.5563 496.311 76.5526 485.877C66.9588 471.632 58.5742 456.609 51.4864 440.964C33.3726 400.934 24.033 357.491 24.0949 313.552C24.0321 269.52 33.4049 225.988 51.5819 185.883C57.2006 173.442 63.6655 161.4 70.9311 149.842C86.5048 124.875 105.575 102.268 127.562 82.7109C184.148 32.0477 257.46 4.08406 333.411 4.19258C358.14 4.18062 382.783 7.13206 406.81 12.9841C439.083 20.8303 469.868 33.8632 497.965 51.5744C503.381 54.9986 508.652 58.5501 513.795 62.277C518.127 65.3667 522.363 68.6476 526.536 71.9286C546.826 88.1369 564.991 106.838 580.602 127.592C614.015 171.801 634.834 224.235 640.847 279.326C642.147 290.677 642.806 302.093 642.822 313.519Z" fill="url(#paint1_radial_4_34)"/>
<g style="mix-blend-mode:multiply" opacity="0.5">
<g style="mix-blend-mode:multiply" opacity="0.5">
<path fill-rule="evenodd" clip-rule="evenodd" d="M640.911 279.246C639.83 281.236 638.903 283.308 638.14 285.441C636.976 288.533 635.514 291.503 633.777 294.312C631.975 297.984 630.381 301.755 628.998 305.604C625.399 313.934 622.756 322.98 619.762 331.548C616.434 341.105 613.296 350.66 609.204 359.898C607.373 364.087 604.696 367.862 602.833 371.955C600.97 376.048 599.139 380.061 596.861 384.026C591.224 393.71 586.127 403.585 580.156 413.109C569.423 430.262 556.507 445.503 543.99 461.35C537.62 469.314 530.198 476.274 522.952 483.472C514.767 491.563 507.568 500.625 499.065 508.541C492.601 514.954 485.613 520.814 478.171 526.06C473.903 528.879 469.795 532.017 465.526 534.789C460.064 538.341 453.646 540.347 447.817 543.213C428.436 552.546 407.686 558.376 387.302 564.922C367.331 571.292 348.077 580.036 327.693 585.132C323.505 586.184 319.269 586.598 315.033 587.457C310.446 588.365 306.035 589.687 301.338 590.181C291.973 591.233 282.912 594.37 273.452 594.96C266.843 595.277 260.711 594.004 254.246 593.685C245.962 593.545 237.676 593.906 229.434 594.768C220.276 595.357 211.082 595.004 201.996 593.717C194.128 590.038 186.437 585.993 178.92 581.66L179.779 581.931C185.163 583.668 190.163 586.709 195.578 588.032C201.358 589.354 207.363 590.308 213.334 591.313C221.155 592.682 229.148 592.73 236.983 591.455C241.172 590.771 245.408 590.261 249.596 589.401C254.151 588.445 258.737 589.624 263.292 588.589C269.662 586.996 276.637 588.27 283.086 588.032C294.234 587.665 305.112 583.572 315.861 581.39C327.789 578.985 339.112 574.653 351.263 573.204C358.19 572.376 363.637 570.018 370.198 567.964C375.836 566.227 379.435 563.09 384.117 559.538C393.13 552.801 402.239 545.89 412.782 541.525C423.31 537.25 434.242 534.049 445.413 531.969C455.028 530.102 464.013 525.828 471.53 519.546C474.636 516.76 477.582 513.845 480.64 511.025C484.548 507.783 488.27 504.321 491.787 500.658C495.609 496.277 499.972 492.28 503.747 487.916C507.936 483.059 511.36 477.596 515.5 472.722C522.092 464.934 532.158 460.888 538.654 452.973C540.025 451.38 540.932 449.326 542.349 447.733C543.766 446.14 545.391 445.233 546.299 443.099C547.398 440.503 550.089 434.498 548.625 431.584C545.71 425.706 530.278 440.821 527.825 443.178C524.004 446.777 520.866 450.473 516.264 453.101C513.556 454.803 510.73 456.308 507.808 457.608C502.886 459.615 497.202 459.837 492.01 460.937C477.582 464.027 462.883 465.715 448.327 467.992C428.612 471.034 408.69 475.175 389.292 479.905C371.137 484.333 353.158 489.462 335.003 493.746C325.352 496.071 315.702 498.524 306.019 500.625C294.187 503.269 282.578 506.901 270.697 509.179C251.126 512.729 231.441 517.062 211.487 517.603C195.833 518.018 180.322 518.83 164.651 518.83C143.55 518.83 120.92 520.964 100.218 516.01C99.9523 515.956 99.6916 515.881 99.4372 515.788C91.1991 506.3 83.5563 496.311 76.5526 485.877C84.1235 489.268 92.0662 491.76 100.218 493.3C106.142 494.351 112.416 495.704 117.321 499.256C120.391 501.737 123.851 503.691 127.562 505.037C141.035 509.37 153.042 509.099 166.53 505.133C171.573 503.636 176.579 502.076 181.548 500.45C185.226 499.208 188.603 497.027 192.281 496.024C202.712 493.3 213.493 491.341 224.005 488.936C229.004 487.789 234.244 486.833 239.165 485.336C244.707 483.6 249.899 480.781 255.218 478.6C265.41 474.41 274.885 470.095 285.81 468.215C292.673 467.084 300.637 466.224 306.927 463.038C308.965 462.035 312.023 460.618 311.704 457.895C311.338 454.519 306.927 455.426 304.507 455.84C297.452 457.066 290.269 457.703 283.262 459.566C270.885 462.787 258.212 464.74 245.44 465.396C226.234 466.67 206.662 467.817 187.408 466.814C172.119 466.033 156.736 464.664 141.448 464.806C126.653 464.95 112.273 463.676 98.211 459.025C82.3336 453.802 66.1694 449.024 51.4864 440.964C33.3726 400.934 24.033 357.491 24.0949 313.552C24.0321 269.52 33.4049 225.988 51.5819 185.883C49.5275 191.538 47.8076 197.319 45.4348 202.766C40.6663 213.282 38.113 224.667 37.934 236.211C38.2208 240.726 38.1889 245.255 37.8384 249.765C37.058 255.498 36.6122 259.194 38.2525 264.975C39.4787 269.212 39.845 273.305 41.7082 277.398C42.3067 278.677 43.1386 279.832 44.1607 280.806C45.0718 282.095 45.8811 283.453 46.5814 284.868C49.0817 288.961 52.6808 294.423 56.9965 296.781C59.8821 298.214 62.9011 299.361 66.0102 300.204C69.6411 301.24 71.0585 301.655 74.7054 300.333C77.6526 299.149 80.7416 298.358 83.8941 297.975C85.6288 298.167 87.3375 298.545 88.9902 299.106C91.172 299.472 93.3219 299.281 95.5514 299.743C104.645 301.655 113.515 303.884 122.847 303.789C130.173 303.709 137.371 304.936 144.792 304.936C153.71 304.936 162.533 305.206 171.356 304.075C177.328 303.294 183.745 301.797 189.701 301.431C195.658 301.065 202.043 301.606 208.126 301.526C229.292 301.193 251.126 296.096 269.518 285.409C279.329 279.629 289.84 275.132 300.796 272.03C314.906 267.97 329.317 263.972 343.794 261.233C357.233 258.631 370.307 254.411 382.731 248.667C388.219 246.071 393.472 243.008 398.433 239.509C402.988 236.419 407.989 234.061 412.352 230.829C425.092 221.4 436.239 210.346 447.387 199.103C453.757 192.732 460.223 186.362 466.879 180.261C472.374 175.245 478.203 173.014 485.257 171.295C496.501 168.603 502.775 155.958 508.827 146.896C516.472 135.476 522.81 122.369 523.16 108.304C523.343 102.509 522.901 96.7096 521.837 91.0085C521.46 88.4504 520.743 85.9543 519.704 83.5867C518.816 82.1442 518.069 80.6187 517.474 79.0317C517.155 77.678 517.108 76.2605 516.838 75.0341C516.567 73.8078 515.929 72.5656 515.659 71.5781C515.022 68.9343 513.7 65.2871 513.875 62.3725V62.1973C518.207 65.2871 522.443 68.568 526.616 71.8489C526.694 73.0596 526.663 74.2751 526.52 75.4801C526.25 76.9453 525.74 78.1717 525.469 79.621C525.103 81.7711 524.29 82.9975 524.338 85.3546C524.242 87.709 524.423 90.0665 524.88 92.3783C526.377 98.1119 530.12 103.432 530.071 109.484C529.898 115.628 528.536 121.68 526.058 127.305C523.877 132.769 521.52 137.816 518.876 143.056C517.176 146.517 515.15 149.808 512.824 152.884C510.474 155.688 508.345 158.67 506.454 161.802C505.088 164.317 503.855 166.901 502.76 169.542C500.753 174.321 497.52 176.821 493.889 180.373C486.42 187.571 477.088 193.401 469.077 200.314C462.498 205.775 456.533 211.938 451.289 218.692C449.012 221.878 437.37 230.94 440.508 235.718C441.909 237.821 446.336 237.136 448.327 237.136C452.903 237.091 457.418 236.081 461.577 234.174C472.9 229.029 484.191 222.929 496.118 219.377C501.485 217.784 507.266 216.924 512.314 214.599C518.44 211.747 524.371 208.496 530.071 204.868C534.578 202.08 537.254 198.497 540.63 194.484C542.541 192.206 545.216 190.932 547.318 188.846C549.771 186.378 551.315 183.511 554.054 181.377C560.755 176.037 566.612 169.716 571.43 162.631C575.856 156.26 577.48 148.296 579.392 141.05C580.015 139.188 580.442 137.267 580.665 135.316C580.745 132.864 580.665 130.315 580.665 127.847V127.449C614.089 171.676 634.909 224.132 640.911 279.246Z" fill="#C4B0B8"/>
</g>
<g style="mix-blend-mode:multiply" opacity="0.5">
<path fill-rule="evenodd" clip-rule="evenodd" d="M499.925 77.6303C498.746 84.638 498.109 91.5501 496.74 98.5578C495.37 105.566 495.02 113.353 492.185 119.82C487.408 130.968 485.911 143.344 478.362 153.17C475.177 157.359 472.661 161.866 468.568 165.369C467.007 166.397 465.367 167.297 463.663 168.062C462.071 169.113 460.383 170.706 458.886 171.836C450.78 177.761 442.18 183.861 434.998 190.948C427.306 198.513 419.98 205.935 410.887 211.892C408.148 213.66 405.281 214.934 402.462 216.495C400.274 217.945 397.992 219.248 395.63 220.397C392.766 221.282 390.043 222.569 387.541 224.22C385.329 225.855 382.928 227.219 380.39 228.28C376.027 230.001 371.791 232.055 367.427 233.743C365.42 234.556 363.319 235.017 361.279 235.734C355.499 237.932 351.263 237.741 343.763 238.33C341.405 237.295 343.412 237.2 345.355 236.339C346.552 235.794 347.608 234.982 348.444 233.966C350.059 232.223 351.823 230.624 353.716 229.189C356.996 226.815 361.328 225.637 364.863 223.503C369.369 220.684 373.829 217.259 378.193 214.217C381.887 211.668 384.658 207.655 387.748 204.469C391.028 201.014 394.993 197.924 398.577 194.691C402.766 190.964 406.364 186.728 410.6 183.032C414.983 179.304 418.602 174.761 421.254 169.655C422.433 167.472 424.344 165.879 425.571 163.65C426.855 161.634 428.009 159.539 429.026 157.375C430.077 154.778 431.446 152.358 432.577 149.858C433.851 146.943 433.803 143.487 434.44 140.445C436.352 131.335 438.183 122.145 439.855 112.987C441.032 105.202 441.612 97.3378 441.59 89.4637C441.861 81.9942 443.963 74.7157 443.996 67.1664C444.259 64.4013 443.89 61.6123 442.912 59.012C441.32 55.4603 439.536 52.3706 438.263 48.6756C434.376 37.3071 427.163 27.369 417.56 20.151C416.11 19.0999 411.508 16.3286 406.953 13C439.226 20.8461 470.012 33.879 498.109 51.5902C500.593 60.0363 501.212 68.9212 499.925 77.6303Z" fill="#C4B0B8"/>
</g>
<g style="mix-blend-mode:multiply" opacity="0.5">
<path fill-rule="evenodd" clip-rule="evenodd" d="M410.266 78.1239C409.597 82.0419 407.224 85.0042 406.126 88.7312C404.868 92.9665 403.926 97.2891 403.307 101.664C402.398 108.304 402.988 114.899 402.223 121.588C400.544 134.201 396.777 146.445 391.076 157.821C385.518 169.145 376.011 178.429 365.595 185.453C354.863 192.78 342.934 198.37 331.197 203.786C324.509 206.843 317.454 208.117 310.621 210.714C304.888 212.848 299.251 215.3 293.549 217.529C287.849 219.759 282.72 223.581 277.083 225.413C273.58 226.545 270.123 227.723 266.621 228.997C260.6 231.148 255.138 234.332 249.278 236.834C240.993 240.413 232.401 243.234 223.606 245.258C214.911 247.296 206.503 245.974 197.76 244.892C190.409 244.214 183.101 243.151 175.862 241.706C162.629 238.522 148.376 239.429 134.871 239.429C124.631 239.429 112.799 240.432 103.737 234.873C101.141 233.282 98.2747 231.594 96.8256 228.87C95.0419 225.493 94.819 221.225 94.0386 217.578C92.446 210.076 85.3117 204.964 80.4385 199.469C74.0684 192.27 71.6478 183.176 70.3737 173.89C69.1515 165.893 69.3402 157.743 70.9312 149.809C86.5074 124.854 105.578 102.258 127.562 82.7108C122.386 92.5376 118.468 102.969 113.913 113.115C107.05 128.309 100.998 144.873 101.587 161.85C101.81 168.508 102.352 175.962 105.903 181.743C108.642 186.202 113.149 189.435 117.512 192.079C124.663 196.363 131.845 201.093 139.538 204.04C148.232 207.369 156.927 210.554 165.574 213.882C170.624 215.794 175.496 217.975 180.959 218.661C187.667 219.197 194.404 219.255 201.12 218.836C224.912 218.199 246.89 207.05 269.28 200.314C276.479 198.131 283.947 197.128 291.034 194.77C295.296 193.192 299.437 191.302 303.424 189.117C313.377 183.973 324.254 180.102 333.586 173.684C342.899 167.224 351.316 159.56 358.62 150.893C364.178 144.236 366.679 137.594 369.402 129.408C374.769 113.291 376.823 97.7774 378.272 80.9748C378.91 73.8397 381.378 67.469 383.05 60.541C384.133 55.9541 383.496 50.6664 379.864 47.3378C372.492 40.8398 361.614 36.7785 352.186 34.5965C346.453 33.2268 341.039 31.4112 335.083 31.4112C329.126 31.4112 323.473 31.4112 317.645 31.4112C311.816 31.4112 306.592 30.1848 300.987 30.1848C294.394 30.1848 288.247 32.0482 281.733 32.5579C274.914 33.041 268.125 33.8917 261.396 35.1061C253.434 36.5077 245.743 39.6931 238.003 42.0183C222.566 46.5777 208.081 53.8887 195.243 63.5989C192.058 66.0516 188.603 68.0106 185.274 70.1925C182.36 72.1514 181.309 74.3812 179.446 77.2958C175.647 83.0725 172.878 89.4631 171.26 96.1848C170.249 101.048 169.895 106.024 170.209 110.981C170.129 117.682 169.473 124.364 168.251 130.952C166.658 140.238 157.739 154.03 167.566 161.452C168.932 162.437 170.48 163.141 172.119 163.524C173.76 163.906 175.46 163.96 177.12 163.681C182.138 162.878 187.092 161.722 191.947 160.226C205.563 156.404 219.8 151.848 233.91 150.064C238.194 149.523 242.239 149.842 246.475 148.759C249.119 148.026 251.618 147.166 254.295 146.656C260.489 145.525 266.684 141.512 271.541 137.467C273.771 135.604 275.603 133.326 277.912 131.462C281.001 128.914 284.727 127.225 287.69 124.487C291.926 120.585 295.971 116.348 299.936 112.159C308.073 103.607 313.95 92.9039 320.862 83.4912C325.241 77.5187 330.098 71.0207 331.293 63.5989C332.2 57.8653 325.194 54.8074 320.909 52.9918C316.26 51.0198 311.174 50.311 306.163 50.9371C299.204 52.1794 292.833 56.3204 286.368 59.0916C272.13 65.3348 256.237 66.8797 243.863 76.8816C239.356 80.4811 239.58 83.9372 238.178 88.9541C237.209 91.3537 236.037 93.6661 234.674 95.8662C232.811 99.3223 232.572 100.182 233.528 103.829C234.484 107.477 235.36 112.335 239.5 113.927C243.082 115.345 248.864 114.118 251.969 112.159C253.716 110.779 255.625 109.618 257.655 108.703C258.976 108.193 262.21 106.696 263.483 107.11C265.761 107.971 264.073 109.371 263.117 110.614C262.295 111.697 261.606 112.872 261.062 114.118C260.818 115.373 260.354 116.575 259.693 117.67C256.062 121.81 248.832 123.897 243.767 125.633C239.356 127.225 236.043 128.993 231.219 129.042C224.706 129.042 227.349 124.263 226.441 119.485C225.167 113.433 218.192 111.172 217.427 104.881C216.662 98.5897 218.605 91.6456 221.153 86.135C222.323 83.8234 223.681 81.6127 225.214 79.5255C227.62 75.8465 231.171 73.6644 234.85 71.1959C245.679 64.0607 259.199 60.6366 271.478 56.4956C283.756 52.3547 297.149 51.6379 309.3 47.3059C317.581 44.3435 326.276 43.388 334.781 41.843C342.647 40.4416 349.575 43.5313 352.84 50.7142C356.311 58.3272 360.405 66.5612 357.983 74.9864C354.703 86.5811 350.849 98.096 344.75 108.576C337.232 121.492 328.092 133.692 314.491 140.844C304.937 145.891 294.553 148.711 284.456 152.486C276.818 155.533 268.881 157.769 260.775 159.159C248.163 161.07 236.602 168.524 224.275 171.629C207.306 175.865 190.125 179.204 172.804 181.631C166.711 182.755 160.482 182.942 154.332 182.189C151.418 181.774 148.726 182.045 145.954 180.819C143.996 179.959 141.989 179.035 140.046 178.223C133.31 175.308 126.797 170.483 127.562 162.296C128.294 154.603 131.081 146.863 132.53 139.314C133.533 134.297 133.628 129.344 134.854 124.327C135.763 120.505 136.622 116.603 137.673 112.812C138.495 109.502 139.834 106.341 141.639 103.448C145.222 98.4305 148.009 92.5694 151.784 87.7915C153.404 86.0407 154.864 84.1486 156.147 82.1375C157.016 80.293 158.136 78.5778 159.475 77.0409C160.924 75.4483 161.928 73.362 163.472 71.7692C166.504 69.021 169.763 66.5379 173.219 64.3474C180.635 58.8902 188.591 54.2097 196.964 50.3798C205.117 46.8281 213.621 44.455 221.998 41.636C229.514 39.04 236.474 34.9468 243.943 32.0801C252.398 28.9291 261.197 26.7907 270.156 25.7094C288.001 23.3237 305.979 22.0736 323.983 21.9666C346.565 22.0622 371.583 13.5096 393.019 24.292C398.487 26.8114 402.787 31.3231 405.042 36.9058C408.832 45.9795 410.691 55.7424 410.504 65.5737C410.457 69.7466 410.95 74.0786 410.266 78.1239Z" fill="#C4B0B8"/>
</g>
</g>
<g style="mix-blend-mode:soft-light" opacity="0.63">
<g style="mix-blend-mode:soft-light" opacity="0.63">
<path fill-rule="evenodd" clip-rule="evenodd" d="M60.6916 175.324C62.2841 179.496 64.3224 183.144 65.6761 187.381C66.5083 190.403 67.7288 193.304 69.3071 196.013C70.9951 198.752 72.0143 201.874 73.6228 204.693C75.4338 207.802 76.8513 211.125 77.843 214.583C78.4959 217.132 78.6073 219.823 79.3081 222.403C80.1998 225.7 81.0917 229.012 82.0154 232.31C82.6681 234.363 83.6177 236.311 84.8342 238.092C86.0444 240.034 87.446 243.076 89.341 244.461C95.4403 248.778 104.183 246.946 111.222 246.182C117.592 245.497 124.122 245.449 130.54 244.589C133.912 244.206 137.313 244.127 140.7 244.35C143.943 244.51 147.171 244.877 150.367 245.449C153.137 245.99 155.829 246.07 158.615 246.516C162.613 247.154 166.578 248.109 170.591 248.523C175.066 248.873 179.669 249.526 184.143 249.622C190.514 249.734 197.091 249.08 203.493 249.765C209.077 250.588 214.702 251.12 220.341 251.358C227.684 251.358 235.009 249.176 241.825 246.691C253.179 242.551 264.885 239.174 276.288 235.001C280.414 233.225 284.378 231.093 288.135 228.63C291.624 226.592 295.365 225.254 298.725 223.009C305.083 219.071 312.095 216.309 319.428 214.854C326.595 213.261 333.523 210.665 340.625 208.993C345.402 207.879 349.957 205.457 354.703 204.836C353.811 208.563 345.674 209.917 342.759 210.967C336.023 213.372 328.713 214.694 322.2 217.625C317.948 219.552 314.921 223.231 311.577 226.354C308.392 229.22 306.179 232.198 302.628 234.571C299.141 236.948 295.199 238.575 291.05 239.35C281.893 241.18 272.959 244.461 263.833 246.484C254.709 248.507 245.79 250.593 237.398 254.448C235.073 255.531 228.241 258.222 227.954 261.583C227.731 264.274 230.995 263.287 232.891 263.287C236.968 263.287 242.35 262.315 246.189 263.924C248.933 265.289 251.802 266.388 254.756 267.205C261.725 268.391 268.886 267.642 275.459 265.039C284.218 261.63 293.789 259.895 302.994 258.142C309.364 256.916 315.559 255.085 321.913 253.747C326.802 252.88 331.736 252.295 336.692 251.995C343.89 251.31 351.104 250.482 358.254 249.288C363.971 248.316 370.23 247.695 375.47 245.195C379.817 243.06 384.913 241.722 388.752 238.728C389.77 237.932 395.567 232.931 396.92 234.077C399.739 236.499 383.703 245.624 382.589 246.373C377.421 249.646 371.922 252.362 366.185 254.48C358.892 257.457 351.407 258.764 343.89 260.658C335.227 262.81 326.595 264.593 317.979 266.79C309.364 268.988 300.462 270.088 291.846 272.97C287.513 274.303 283.287 275.96 279.202 277.924C275.475 279.834 271.509 281.109 267.831 283.1C259.868 287.352 252.432 293.325 243.816 296.096C236.326 298.688 228.561 300.398 220.676 301.193C210.341 302.021 199.973 300.572 189.75 299.505C179.273 298.278 168.733 297.682 158.186 297.72C148.44 297.879 138.709 299.918 128.979 300.38C122.275 300.699 116.892 298.31 110.729 296.016C104.022 293.413 97.5889 290.154 91.5228 286.285C86.0966 282.883 79.7851 281.166 73.384 281.347C72.0164 281.537 70.6681 281.847 69.3548 282.272C67.806 282.389 66.2641 281.967 64.9912 281.077C59.2582 278.386 53.5092 273.958 50.6586 268.033C47.8814 261.654 46.0725 254.895 45.2918 247.982C44.9892 244.012 44.9413 240.027 45.1485 236.053C45.1485 230.78 44.193 225.589 44.2408 220.285C44.2408 211.908 43.2852 203.021 45.9288 194.914C48.3973 187.285 53.4773 180.166 58.1116 173.731C60.7551 170.084 62.8892 166.166 65.6443 162.583C66.6157 164.495 64.3065 168.157 63.8288 170.132C63.2396 172.951 62.1726 178.159 60.6916 175.324Z" fill="#C4B0B8"/>
</g>
<g style="mix-blend-mode:soft-light" opacity="0.63">
<path fill-rule="evenodd" clip-rule="evenodd" d="M453.885 221.034C451.417 224.219 446.974 228.313 446.289 232.501C445.604 236.69 450.175 235.973 453.137 235.527C459.507 234.524 466.196 233.934 472.247 231.418C475.83 229.937 479.174 227.882 482.758 226.385C485.72 225.127 488.889 224.681 491.851 223.439C498.905 220.46 506.503 218.884 513.493 215.666C519.617 212.58 525.185 208.501 529.976 203.595C533.416 200.297 536.729 197.733 539.101 193.481C540.836 190.295 542.907 187.269 544.34 183.924C546.099 179.453 547.251 174.767 547.764 169.988C548.106 167.448 548.139 164.876 547.86 162.328C547.064 156.499 541.204 155.958 536.25 156.642C530.151 157.487 525.246 161.038 520.723 164.924C516.201 168.81 512.761 173.142 507.824 176.073C502.394 179.385 497.106 182.73 491.899 186.313C489.085 188.09 486.465 190.156 484.08 192.477C482.105 194.5 480.194 196.666 478.043 198.513C475.824 200.334 473.464 201.98 470.989 203.435C468.999 204.677 467.167 206.428 465.129 207.496C462.455 208.836 460.005 210.582 457.866 212.673C456.326 214.007 454.999 215.569 453.933 217.307C452.261 220.46 452.595 224.346 453.885 221.034Z" fill="#C4B0B8"/>
</g>
<g style="mix-blend-mode:soft-light" opacity="0.63">
<path fill-rule="evenodd" clip-rule="evenodd" d="M524.593 136.527C525.644 133.246 526.345 132.019 529.37 130.442C531.25 129.455 532.555 129.2 533.91 131.287C536.362 135.316 534.594 140.221 533.001 144.108C531.854 146.943 527.284 149.794 525.198 146.226C523.797 143.806 523.844 136.671 527.188 135.667L524.593 136.527Z" fill="#C4B0B8"/>
</g>
<g style="mix-blend-mode:soft-light" opacity="0.63">
<path fill-rule="evenodd" clip-rule="evenodd" d="M265.92 256.391C267.512 253.444 267.878 253.126 270.697 252.059C272.482 251.17 274.404 250.587 276.383 250.338C278.819 250.1 281.479 248.747 283.948 249.67C287.738 251.023 287.021 254.353 284.456 256.709C283.437 257.811 282.121 258.597 280.666 258.971C278.684 259.491 276.648 259.78 274.6 259.831C271.127 259.831 268.229 259.974 265.204 257.936C265.125 257.619 265.161 257.284 265.307 256.992C265.454 256.701 265.699 256.47 266 256.343L265.92 256.391Z" fill="#C4B0B8"/>
</g>
<g style="mix-blend-mode:soft-light" opacity="0.63">
<path fill-rule="evenodd" clip-rule="evenodd" d="M121.048 474.507C130.942 477.953 141.339 479.735 151.815 479.778C164.212 480.131 176.618 479.759 188.969 478.663C197.186 477.883 205.34 478.09 213.526 476.927C217.491 476.353 221.266 476.529 225.231 476.338C227.509 476.242 229.897 474.889 232.126 475.59C240.742 478.217 225.438 483.17 223.701 484.031C217.476 487.12 210.516 488.187 203.907 490.114C201.359 490.846 198.763 491.58 196.263 492.439C193.964 493.465 191.603 494.344 189.193 495.068C179.047 497.282 168.903 498.253 158.79 500.434C154.983 501.433 151.016 501.665 147.118 501.12C143.073 500.372 139.298 497.934 135.699 496.135C131.197 494.144 126.872 491.779 122.768 489.063C120.66 487.649 118.683 486.05 116.86 484.286C116.081 483.246 115.538 482.051 115.267 480.781C114.248 478.17 114.296 477.118 116.541 475.206C117.356 474.47 118.347 473.958 119.419 473.718C120.49 473.478 121.605 473.519 122.656 473.837C122.672 474.092 122.72 474.332 121.048 474.507Z" fill="#C4B0B8"/>
</g>
<g style="mix-blend-mode:soft-light" opacity="0.63">
<path fill-rule="evenodd" clip-rule="evenodd" d="M383.464 576.325C378.317 577.764 373.428 580 368.972 582.951C367.029 584.32 364.641 586.661 367.508 588.413C371.378 590.771 377.667 589.512 381.839 589.146C389.038 588.493 396.172 587.171 403.307 586.231C408.18 585.578 412.958 585.068 417.767 584.097C424.024 582.708 430.188 580.932 436.225 578.778C440.702 577.343 444.982 575.352 448.965 572.853C453.211 570.476 457.291 567.816 461.179 564.889C466.132 560.733 472.662 557.484 474.572 550.842C476.164 545.316 464.221 547.307 461.833 547.658C452.964 548.924 444.251 551.096 435.826 554.139C432.18 555.429 428.278 556.417 424.679 557.978C419.902 560.095 415.331 562.613 410.457 564.492C408.148 565.399 406.126 566.848 403.784 567.677C401.73 568.441 399.661 569.126 397.621 569.954C395.583 570.783 393.067 571.913 390.742 572.662C385.487 574.462 380.2 575.911 383.464 576.325Z" fill="#C4B0B8"/>
</g>
<g style="mix-blend-mode:soft-light" opacity="0.63">
<path fill-rule="evenodd" clip-rule="evenodd" d="M478.905 536.078C479.812 533.101 481.722 531.73 483.937 529.58C485.656 527.908 487.297 526.108 489.797 525.758C491.644 525.487 494.574 527.621 493.762 529.74C493.071 530.906 492.231 531.977 491.262 532.925C490.445 534.239 489.319 535.333 487.982 536.111C485.311 537.335 482.282 537.527 479.477 536.652L478.905 536.078Z" fill="#C4B0B8"/>
</g>
<g style="mix-blend-mode:soft-light" opacity="0.63">
<path fill-rule="evenodd" clip-rule="evenodd" d="M509.942 463.644C507.85 464.902 505.648 465.968 503.365 466.829C501.631 467.228 499.877 467.531 498.11 467.737C492.839 468.566 487.392 468.932 482.073 469.458C475.273 470.126 468.521 471.051 461.72 471.608C449.713 472.515 437.085 473.551 425.602 477.245C415.94 480.329 406.588 484.312 397.669 489.143C389.76 493.231 382.239 498.028 375.199 503.476C372.908 505.418 370.743 507.503 368.717 509.72C367.242 511.097 366.009 512.711 365.071 514.497C363.813 517.332 364.96 519.276 367.444 520.868C371.313 523.337 376.011 523.56 380.438 524.165C387.015 525.073 393.56 525.902 400.106 526.92C406.877 528.031 413.702 528.774 420.554 529.15C427.577 529.469 434.887 529.325 441.576 526.778C446.318 525.08 450.92 523.007 455.335 520.582C459.635 518.113 463.918 515.677 467.996 512.858C471.022 511.073 473.899 509.044 476.595 506.79C477.725 505.723 478.872 504.798 480.05 503.811C481.882 502.218 483.236 500.292 485.067 498.746C489.216 495.274 492.955 491.342 496.215 487.024C498.731 483.712 501.788 480.892 504.273 477.58C505.738 475.605 507.267 474.57 508.142 472.149C509.077 469.395 509.681 466.541 509.942 463.644Z" fill="#C4B0B8"/>
</g>
<g style="mix-blend-mode:soft-light" opacity="0.63">
<path fill-rule="evenodd" clip-rule="evenodd" d="M524.307 453.802C525.418 451.763 526.923 449.965 528.734 448.514C530.184 447.145 532.095 444.74 534.101 444.102C534.597 443.897 535.14 443.832 535.67 443.914C536.201 443.995 536.698 444.22 537.11 444.565C537.465 444.979 537.729 445.465 537.882 445.989C538.036 446.514 538.077 447.065 538.003 447.606C537.589 450.027 535.232 451.906 533.225 452.957C530.725 454.248 529.259 453.594 526.631 453.228L524.307 453.802Z" fill="#C4B0B8"/>
</g>
<g style="mix-blend-mode:soft-light" opacity="0.63">
<path fill-rule="evenodd" clip-rule="evenodd" d="M615.718 368.212C614.398 369.229 613.202 370.394 612.15 371.684C610.557 373.994 609.22 376.461 607.373 378.58C605.51 380.934 603.852 383.443 602.42 386.082C600.54 389.363 598.327 392.452 596.575 395.748C592.785 402.947 589.775 410.529 586.384 417.919C584.679 421.613 583.197 425.404 581.605 429.067C579.709 432.995 578.344 437.155 577.544 441.442C577.051 444.532 576.255 449.836 580.411 450.393C585.57 451.094 590.762 446.65 594.521 443.688C604.351 435.783 612.782 426.279 619.46 415.577C626.148 405.002 632.63 392.292 630.958 379.409C630.345 373.575 630.474 367.689 631.34 361.888C632.136 355.725 634.032 349.562 634.143 343.319C634.143 338.891 634.955 334.559 633.983 330.195C633.851 328.769 633.179 327.447 632.105 326.5C630.958 325.831 630.162 326.5 629.126 327.28C626.027 329.53 623.532 332.513 621.864 335.961C619.826 340.196 619.714 344.768 617.995 349.116C617.517 350.662 616.959 352.182 616.323 353.671C615.685 354.865 614.905 356.012 614.252 357.222C613.272 359.407 612.556 361.701 612.118 364.055C611.735 365.504 611.513 366.858 611.114 368.308C610.797 369.438 610.302 370.649 610.08 371.795C609.857 372.942 610.255 373.865 615.718 368.212Z" fill="#C4B0B8"/>
</g>
<g style="mix-blend-mode:soft-light" opacity="0.63">
<path fill-rule="evenodd" clip-rule="evenodd" d="M568.005 444.676C566.971 445.694 560.711 451.746 563.133 453.292C563.802 453.722 565.649 453.292 566.318 452.989C567.58 452.389 568.736 451.588 569.742 450.617C570.387 450.152 570.888 449.517 571.19 448.782C571.491 448.047 571.579 447.242 571.445 446.459C571.445 443.736 569.726 443.815 567.433 444.739L568.005 444.676Z" fill="#C4B0B8"/>
</g>
<g style="mix-blend-mode:soft-light" opacity="0.63">
<path fill-rule="evenodd" clip-rule="evenodd" d="M582.944 459.041C584.281 457.257 584.663 456.493 586.543 455.761C587.914 454.959 589.367 454.302 590.874 453.802C592.864 453.483 593.789 454.231 593.948 456.238C594.234 459.662 590.014 464.09 588.119 466.527C585.824 469.687 583.149 472.554 580.156 475.064C575.841 478.44 572.703 472.993 574.312 468.948C575.284 466.495 575.681 463.597 577.211 461.414C579.599 457.991 583.166 458.006 586.989 457.305L582.944 459.041Z" fill="#C4B0B8"/>
</g>
<g style="mix-blend-mode:soft-light" opacity="0.63">
<path fill-rule="evenodd" clip-rule="evenodd" d="M249.533 86.5014C247.711 87.4895 246.12 88.8518 244.863 90.4987C243.606 92.1457 242.712 94.0401 242.239 96.0574C241.634 98.0163 240.869 102.19 242.51 103.878C245.313 106.776 252.829 103.607 255.552 102.556C260.855 100.517 266.255 97.4907 271.78 96.1847C282.212 93.7798 293.662 92.8083 302.628 86.3899C307.688 82.5888 312.057 77.9447 315.542 72.6612C317.804 69.3644 320.783 66.6886 321.085 62.4362C321.674 53.8358 309.666 53.2625 304.013 54.5844C291.936 57.2486 280.188 61.2275 268.977 66.4498C262.385 69.635 254.199 73.6804 249.549 79.6052C248.372 81.2569 247.43 83.0631 246.746 84.9725C246.172 86.3262 244.898 90.2282 249.533 86.5014Z" fill="#C4B0B8"/>
</g>
<g style="mix-blend-mode:soft-light" opacity="0.63">
<path fill-rule="evenodd" clip-rule="evenodd" d="M271.955 110.646C270.538 107.461 269.837 107.19 272.194 105.263C274.183 103.735 276.317 102.407 278.564 101.298C281.243 99.9635 284.204 99.2969 287.195 99.3542C293.216 100.071 290.477 106.855 288.614 110.121C287.45 112.175 286.591 114.07 284.647 115.17C282.354 116.475 280.81 117.144 278.278 116.3C276.497 115.619 274.872 114.584 273.5 113.258C272.481 112.35 270.108 110.694 270.315 109.069L271.063 108.926L271.955 110.646Z" fill="#C4B0B8"/>
</g>
<g style="mix-blend-mode:soft-light" opacity="0.63">
<path fill-rule="evenodd" clip-rule="evenodd" d="M229.691 184.816C229.833 181.965 229.595 181.329 231.378 179.529C234.022 176.821 237.908 174.751 241.03 172.744C248.148 168.225 255.825 164.648 263.866 162.105C271.013 159.811 278.337 158.111 285.762 157.025C291.305 156.165 296.545 154.333 302.118 153.553C310.702 152.374 321.228 148.218 328.092 156.356C333.603 162.949 323.41 171.676 318.538 175.261C314.403 178.243 309.689 180.321 304.698 181.36C298.758 182.857 292.897 184.641 286.957 186.138C275.922 188.878 265.665 194.102 255.107 198.259C247.829 201.093 242.638 200.822 236.092 196.491C232.541 194.054 226.506 187.826 229.691 184.816Z" fill="#C4B0B8"/>
</g>
<g style="mix-blend-mode:soft-light" opacity="0.63">
<path fill-rule="evenodd" clip-rule="evenodd" d="M329.716 135.667C328.283 138.311 324.716 143.152 329.318 144.809C331.931 145.749 333.809 143.646 335.688 142.149C337.568 140.651 340.354 138.963 341.787 136.527C342.198 136.013 342.477 135.407 342.599 134.76C342.721 134.114 342.684 133.447 342.489 132.818C342.293 132.19 341.948 131.618 341.482 131.154C341.015 130.69 340.442 130.348 339.813 130.156C334.415 127.751 331.851 132.927 328.777 136.527L329.716 135.667Z" fill="#C4B0B8"/>
</g>
<g style="mix-blend-mode:soft-light" opacity="0.63">
<path fill-rule="evenodd" clip-rule="evenodd" d="M414.232 83.0613C409.454 88.0304 406.572 93.8117 407.352 100.867C408.133 107.922 412.735 109.245 418.499 106.362C420.236 105.652 421.91 104.794 423.5 103.798C425.092 102.556 426.079 100.23 427.29 98.6057C430.036 95.1764 431.496 90.8941 431.415 86.5014C431.415 82.1533 431.925 77.5028 430.762 73.2982C430.124 70.9728 429.17 67.8512 427.13 66.4179C424.71 64.8252 422.863 66.9434 421.095 68.3768C419.383 69.4458 417.908 70.8552 416.764 72.5177C414.849 76.1245 413.388 79.9549 412.416 83.9212L414.232 83.0613Z" fill="#C4B0B8"/>
</g>
<g style="mix-blend-mode:soft-light" opacity="0.63">
<path fill-rule="evenodd" clip-rule="evenodd" d="M316.786 231.386C316.992 228.105 316.897 227.882 319.27 226.066C321.006 224.618 322.83 223.278 324.732 222.053C328.391 220.066 332.407 218.826 336.548 218.406C339.82 217.99 343.143 218.543 346.103 219.998C347.967 221.05 348.316 223.184 347.855 225.398C347.202 228.504 344.113 230.478 341.804 232.31C339.494 234.141 336.309 236.594 333.395 237.295C329.885 238.35 326.165 238.498 322.581 237.725C320.416 237.151 315.846 236.244 315.893 233.169L316.786 231.386Z" fill="#C4B0B8"/>
</g>
<g style="mix-blend-mode:soft-light" opacity="0.63">
<path fill-rule="evenodd" clip-rule="evenodd" d="M359.034 201.205C361.152 198.211 362.491 195.551 365.723 193.592C367.125 192.732 370.644 190.104 372.444 190.104C373.168 190.242 373.836 190.59 374.363 191.106C374.89 191.622 375.252 192.282 375.406 193.002C375.598 194.515 374.117 196.538 373.303 197.781C371.489 200.507 368.945 202.67 365.962 204.024C364.628 204.718 363.083 204.889 361.631 204.502C360.038 204.056 359.465 202.575 358.175 202.097L359.034 201.205Z" fill="#C4B0B8"/>
</g>
<g style="mix-blend-mode:soft-light" opacity="0.63">
<path fill-rule="evenodd" clip-rule="evenodd" d="M190.896 73.569C186.66 77.7736 183.205 82.2171 181.835 88.2374C181.51 89.1048 181.452 90.0502 181.67 90.9505C181.889 91.8509 182.373 92.6647 183.061 93.2861C185.307 95.277 188.173 94.1939 190.801 93.2861C198.157 90.7857 205.134 86.3899 211.503 82.1375C217.364 78.2832 225.215 77.2002 229.706 71.5941C232.142 68.568 234.69 65.2234 232.35 61.2098C230.312 57.7857 225.136 56.3204 221.488 56.2567C216.178 56.3246 210.971 57.7267 206.343 60.334C200.378 63.6917 195.13 68.1884 190.896 73.569Z" fill="#C4B0B8"/>
</g>
<g style="mix-blend-mode:soft-light" opacity="0.63">
<path fill-rule="evenodd" clip-rule="evenodd" d="M166.754 55.4603C174.908 53.8677 181.946 52.1953 189.049 47.8473C190.482 46.9873 191.916 46.5732 193.285 45.7928C194.655 45.0125 194.877 44.1046 195.897 43.149C195.196 39.8363 186.261 41.8271 184.207 42.7031C181.468 43.8498 178.698 45.4584 176.038 46.7962C174.599 47.4356 173.214 48.192 171.897 49.0578C169.238 51.0327 167.645 54.4569 165.862 57.1803L166.754 55.4603Z" fill="#C4B0B8"/>
</g>
</g>
<g style="mix-blend-mode:multiply" opacity="0.47">
<g style="mix-blend-mode:multiply" opacity="0.47">
<path fill-rule="evenodd" clip-rule="evenodd" d="M420.267 237.2C417.924 238.673 415.499 240.013 413.005 241.213C408.912 242.886 405.186 245.242 401.125 246.994C396.348 249.064 391.187 250.434 386.266 252.122C379.309 254.379 372.62 257.386 366.313 261.089C359.942 264.975 353.858 270.645 350.594 277.398C348.731 281.3 347.966 286.572 350.243 290.505C351.573 292.997 353.613 295.037 356.105 296.366C360.292 298.245 364.369 297.051 368.573 296.064C373.893 294.904 379.046 293.079 383.909 290.633C386.506 289.28 388.974 287.703 391.569 286.332C394.166 284.963 397.302 283.848 400.153 282.685C402.367 281.778 404.629 280.981 406.906 280.265C409.702 279.334 412.319 277.934 414.645 276.124C419.277 272.799 423.147 268.527 426 263.589C429.552 257.219 431.399 250.721 430.173 243.585C429.217 238.059 425.156 235.352 420.267 237.2Z" fill="#C4B0B8"/>
</g>
<g style="mix-blend-mode:multiply" opacity="0.47">
<path fill-rule="evenodd" clip-rule="evenodd" d="M342.075 276.808C340.482 274.69 339.463 274.898 336.915 275.04C334.945 275.253 332.993 275.599 331.07 276.076C321.515 278.083 311.769 279.102 302.278 281.538C297.019 282.695 291.927 284.503 287.117 286.922C282.34 289.502 277.355 291.812 272.657 294.631C261.946 301.288 250.195 306.101 237.892 308.869C230.199 310.462 222.508 312.055 214.784 313.488C210.135 314.347 205.42 315.081 200.785 316.037C196.152 316.991 191.565 318.345 186.915 319.38C178.591 321.081 170.4 323.38 162.407 326.261C154.268 329.335 145.971 332.185 139.602 338.35C136.337 341.534 132.148 346.137 132.164 350.979C132.335 354.395 133.436 357.7 135.349 360.535C141.72 371.079 153.966 377.337 164.604 382.737C179.35 390.222 196.884 391.194 213.016 393.057C234.08 395.33 255.37 394.255 276.097 389.872C285.412 387.977 294.793 386.129 304.141 384.377C315.416 382.259 326.819 380.762 338.061 378.404C347.314 376.446 356.63 374.28 365.723 371.636C370.724 370.256 375.624 368.537 380.391 366.491C384.534 364.5 388.558 362.271 392.446 359.818C395.764 357.99 398.956 355.941 402.001 353.686C404.521 351.499 406.777 349.024 408.722 346.312C412.034 342.044 414.168 337.33 416.811 332.695C418.548 329.429 420.462 326.26 422.544 323.203C424.695 320.257 427.227 317.486 429.567 314.682C434.473 308.774 440.492 303.676 445.078 297.545C447.755 293.977 450.366 289.486 450.733 284.979C450.987 281.906 451.003 278.752 447.786 277.35C444.64 276.133 441.228 275.77 437.897 276.298C434.565 276.95 431.293 277.882 428.119 279.086C422.472 280.712 416.995 282.876 411.763 285.553C398.641 292.592 385.725 301.336 370.947 304.473C364.847 305.779 358.748 306.449 352.888 304.027C348.492 302.345 344.306 300.152 340.418 297.497C335.322 293.819 336.867 289.454 339.097 284.422C340.052 282.192 342.823 277.366 342.075 276.808Z" fill="#C4B0B8"/>
</g>
<g style="mix-blend-mode:multiply" opacity="0.47">
<path fill-rule="evenodd" clip-rule="evenodd" d="M625.479 208.387C625.44 213.758 625.009 219.119 624.19 224.426C623.855 226.8 623.456 229.204 623.09 231.53C622.597 234.715 621.085 237.517 620.336 240.655C618.998 246.278 616.323 251.15 613.966 256.359C611.609 261.567 610.016 267.269 607.595 272.62C601.003 287.783 597.069 303.852 590.635 319.063C587.45 326.595 584.552 334.384 581.08 341.758C577.895 348.399 574.12 354.754 570.824 361.316C569.582 363.769 566.19 368.291 568.77 370.871C570.824 372.91 574.566 371.03 576.732 369.868C585.395 365.233 589.074 354.26 594.41 346.567C597.116 342.681 601.274 339.75 604.092 335.897C607.77 330.863 612.134 324.86 614.554 319.174C619.588 307.403 622.677 295.204 627.04 283.195C630.655 273.272 631.196 263.653 631.196 253.237C631.196 248.873 631.69 244.494 630.369 240.321C629.158 236.386 628.202 229.873 625.479 208.387Z" fill="#C4B0B8"/>
</g>
<g style="mix-blend-mode:multiply" opacity="0.47">
<path fill-rule="evenodd" clip-rule="evenodd" d="M609.395 223.328C605.733 226.847 598.248 235.495 601.815 241.244C603.773 244.43 609.475 243.028 611.482 240.321C613.201 237.996 612.835 234.11 612.835 231.386C612.835 229.888 613.329 227.643 612.835 226.29C612.342 224.936 610.924 224.697 610.621 223.328H609.395Z" fill="#C4B0B8"/>
</g>
<g style="mix-blend-mode:multiply" opacity="0.47">
<path fill-rule="evenodd" clip-rule="evenodd" d="M539.261 390.095C534.578 392.87 530.082 395.95 525.804 399.316C521.707 402.076 517.374 404.47 512.857 406.468C501.463 411.886 489.363 415.672 476.914 417.711C460.988 420.499 444.617 422.618 429.137 427.729C417.385 431.6 405.744 435.693 394.102 439.849C383.114 443.736 370.628 446.523 360.85 453.101C358.446 454.693 355.213 457.226 356.073 460.475C357.442 465.667 368.096 465.873 371.886 466.033C383.321 466.51 394.915 466.033 406.365 466.033C411.859 466.033 417.369 465.731 422.847 466.272C429.668 466.949 436.539 466.949 443.359 466.272C451.942 465.507 460.877 465.683 469.189 463.087C485.115 457.974 500.928 451.937 516.52 445.838C530.501 440.312 550.791 428.892 549.565 411.421C549.039 403.856 544.357 393.281 539.261 390.095Z" fill="#C4B0B8"/>
</g>
<g style="mix-blend-mode:multiply" opacity="0.47">
<path fill-rule="evenodd" clip-rule="evenodd" d="M562.257 403.856C559.931 399.078 559.31 397.82 561.827 393.408C563.419 390.605 568.196 386.479 571.764 386.464C578.882 386.464 579.105 394.618 577.513 399.571C576.111 403.903 574.328 410.497 569.152 410.72C568.339 410.843 567.509 410.781 566.722 410.539C565.937 410.296 565.216 409.879 564.613 409.318C562.925 408.076 560.6 404.11 558.8 403.808L562.257 403.856Z" fill="#C4B0B8"/>
</g>
<g style="mix-blend-mode:multiply" opacity="0.47">
<path fill-rule="evenodd" clip-rule="evenodd" d="M61.0419 417.648C59.752 423.063 58.9716 428 61.6152 433.209C65.262 440.455 73.3202 445.313 80.7254 447.653C85.3862 449.013 90.2046 449.757 95.0581 449.867C100.489 450.122 105.903 450.967 111.334 451.062C119.463 451.163 127.576 451.806 135.619 452.989C140.095 453.643 144.426 454.948 148.885 455.489C152.354 455.861 155.799 456.424 159.205 457.177C166.467 458.866 173.697 458.914 181.023 459.933C188.791 460.845 196.651 460.663 204.369 459.391C211.073 458.388 218.176 457.496 221.361 451.014C223.861 445.918 222.029 443.178 217.571 439.706C213.606 436.616 206.948 435.279 202.298 433.75C195.18 431.392 188.109 429.211 180.799 427.379C170.608 424.91 160.797 421.28 150.717 418.301C130.014 412.201 110.155 403.696 88.4969 401.738C79.531 400.909 68.9248 400.813 60.6438 404.923C57.9774 406.365 55.9445 408.75 54.9424 411.612C53.1589 415.927 55.3088 418.524 61.0419 417.648Z" fill="#C4B0B8"/>
</g>
<g style="mix-blend-mode:multiply" opacity="0.47">
<path fill-rule="evenodd" clip-rule="evenodd" d="M59.8312 379.711C61.0257 383.502 60.7867 384.68 64.2903 385.747C66.5424 386.678 69.0208 386.916 71.4089 386.431C74.371 385.572 77.9064 383.389 78.2886 380.284C78.7186 376.827 75.6609 374.264 72.8421 372.751C67.1886 369.725 62.634 369.963 59.8312 376.255V379.711Z" fill="#C4B0B8"/>
</g>
<g style="mix-blend-mode:multiply" opacity="0.47">
<path fill-rule="evenodd" clip-rule="evenodd" d="M302.42 125.601C302.281 123.541 302.705 121.483 303.646 119.645C304.776 117.075 306.095 114.594 307.596 112.223C308.696 110.631 309.395 108.863 310.431 107.206C311.896 104.865 313.393 102.731 314.651 100.262C316.457 97.1831 318.593 94.31 321.022 91.6935C322.571 89.928 323.917 87.994 325.034 85.928C325.942 84.208 327.312 82.8701 328.219 81.1501C329.43 79.0477 330.242 76.579 331.404 74.3812C332.544 72.0047 333.831 69.7015 335.258 67.4849C336.176 65.7948 337.359 64.2623 338.762 62.9459C339.811 61.8855 340.957 60.9257 342.186 60.0791C344.956 58.8687 346.374 59.8242 347.808 62.3885C350.028 66.9057 351.048 71.9192 350.769 76.9454C350.552 82.1568 349.592 87.3105 347.919 92.2509C346.561 95.6847 344.886 98.985 342.918 102.11C339.527 108.082 335.466 113.608 331.501 119.214C329.159 122.528 325.209 125.266 321.945 127.767C319.946 129.339 317.681 130.537 315.256 131.303C313.887 131.749 311.976 132.689 310.479 132.386C309.088 131.955 307.73 131.424 306.418 130.793C303.105 129.567 301.513 126.717 302.42 125.601Z" fill="#C4B0B8"/>
</g>
<g style="mix-blend-mode:multiply" opacity="0.47">
<path fill-rule="evenodd" clip-rule="evenodd" d="M289.776 130.204C287.785 131.207 285.698 131.908 284.855 134.091C284.616 134.679 284.234 135.937 284.647 136.558C286.24 138.868 291.719 135.779 292.961 134.537C294.203 133.294 295.573 131.016 294.378 129.375C294.103 129.044 293.763 128.771 293.379 128.574C292.995 128.377 292.576 128.26 292.145 128.23C291.715 128.201 291.283 128.259 290.876 128.4C290.468 128.543 290.094 128.766 289.776 129.057V130.204Z" fill="#C4B0B8"/>
</g>
<g style="mix-blend-mode:multiply" opacity="0.47">
<path fill-rule="evenodd" clip-rule="evenodd" d="M391.522 47.9906C390.185 48.5728 388.961 49.3869 387.907 50.3956C387.414 51.3107 387.04 52.2847 386.792 53.2943C385.441 56.9345 384.543 60.7268 384.117 64.5862C383.735 68.3768 383.623 75.0819 388.051 76.6427C396.65 79.6687 409.215 73.4574 409.916 63.8218C410.313 58.343 407.336 53.2465 404.135 49.0737C402.57 46.8535 400.729 44.8412 398.657 43.0852C397.936 42.5166 397.112 42.0959 396.229 41.8471C395.346 41.5984 394.423 41.5267 393.513 41.6359C390.535 42.2411 388.273 45.2035 391.522 47.9906Z" fill="#C4B0B8"/>
</g>
<g style="mix-blend-mode:multiply" opacity="0.47">
<path fill-rule="evenodd" clip-rule="evenodd" d="M389.786 95.1336C389.786 93.2542 389.786 92.7923 391.028 91.566C391.817 90.6896 392.769 89.9755 393.831 89.4637C395.869 88.7948 397.191 90.3078 397.286 92.235C397.366 93.7003 397.43 96.6785 396.108 97.6977C394.787 98.7171 389.435 97.7933 389.739 95.7069L389.786 95.1336Z" fill="#C4B0B8"/>
</g>
<g style="mix-blend-mode:multiply" opacity="0.47">
<path fill-rule="evenodd" clip-rule="evenodd" d="M452.452 56.0336C451.576 59.6171 451.704 63.3121 451.019 66.9752C449.925 72.9772 449.265 79.0505 449.044 85.1476C448.933 88.3328 449.044 91.4067 448.885 94.5443C448.463 98.3831 448.336 102.249 448.502 106.107C449.012 111.092 449.569 116.332 452.882 120.313C455.239 123.148 458.535 122.114 461.641 120.967C464.116 119.761 466.447 118.274 468.584 116.539C470.324 115.399 471.966 114.116 473.489 112.701C480.353 106.33 486.532 99.3063 489.287 90.0848C491.278 83.3797 493.236 75.7509 491.597 68.8387C490.714 64.4168 488.725 60.2907 485.816 56.8459C483.524 54.3413 480.779 52.2932 477.725 50.8096C475.193 49.4559 472.454 49.3444 469.763 48.7074C467.505 48.2015 465.198 47.9558 462.884 47.9747C460.744 47.9844 458.612 48.1977 456.513 48.6118C452.006 49.4559 450.891 55.4444 452.452 56.0336Z" fill="#C4B0B8"/>
</g>
<g style="mix-blend-mode:multiply" opacity="0.47">
<path fill-rule="evenodd" clip-rule="evenodd" d="M459.347 130.777C460.144 128.277 461.944 125.697 464.889 127.066C465.937 127.541 466.759 128.406 467.178 129.477C467.597 130.547 467.581 131.74 467.134 132.8C466.724 133.581 466.055 134.197 465.243 134.545C464.432 134.893 463.525 134.952 462.676 134.711C461.563 134.247 460.599 133.486 459.889 132.514C458.853 131.128 459.698 130.045 459.889 128.468L459.347 130.777Z" fill="#C4B0B8"/>
</g>
<g style="mix-blend-mode:multiply" opacity="0.47">
<path fill-rule="evenodd" clip-rule="evenodd" d="M467.406 192.286C465.13 192.501 462.885 192.976 460.717 193.703C460.513 194.213 460.228 194.687 459.873 195.105C459.411 195.711 458.041 196.507 458.28 197.383C461.179 198.608 465.32 196.65 467.836 195.296C469.162 194.652 470.398 193.837 471.514 192.875C472.233 192.243 472.888 191.545 473.474 190.788C474.397 189.117 473.474 188.241 471.769 188.257C470.065 188.272 465.893 189.594 465.734 191.713L467.406 192.286Z" fill="#C4B0B8"/>
</g>
<g style="mix-blend-mode:multiply" opacity="0.47">
<path fill-rule="evenodd" clip-rule="evenodd" d="M562.829 182.522C562.89 184.477 562.445 186.413 561.54 188.146C560.728 190.2 559.582 192.636 559.948 194.93C560.744 200.361 568.245 199.278 572.066 198.784C576.557 198.195 580.826 197.191 584.186 194.007C586.658 191.956 588.239 189.028 588.597 185.836C589.393 180.071 590.731 170.323 582.227 170.434C578.69 170.672 575.296 171.922 572.449 174.034C570.492 175.415 568.767 177.098 567.337 179.019C565.362 181.329 563.18 183.256 562.829 182.522Z" fill="#C4B0B8"/>
</g>
<g style="mix-blend-mode:multiply" opacity="0.47">
<path fill-rule="evenodd" clip-rule="evenodd" d="M503.046 495.21C505.531 487.152 509.417 480.304 516.791 475.732C518.51 474.665 519.975 473.28 522.029 474.347C523.717 475.239 523.399 477.198 522.874 478.871C521.86 481.459 520.412 483.857 518.59 485.957C516.863 487.906 515.029 489.756 513.096 491.5C512.002 492.695 510.62 493.589 509.082 494.096C507.026 494.167 504.992 494.543 503.046 495.21Z" fill="#C4B0B8"/>
</g>
<g style="mix-blend-mode:multiply" opacity="0.47">
<path fill-rule="evenodd" clip-rule="evenodd" d="M210.437 504.463C210.58 501.375 212.364 499.924 214.799 497.886C220.234 493.673 226.422 490.537 233.034 488.649C238.672 486.881 245.393 485.639 251.237 487.248C253.849 487.98 257.113 489.238 258.229 491.914C260.139 496.532 255.171 503.334 251.492 505.881C246.857 509.067 240.153 510.054 234.85 511.662C229.902 513.14 224.703 513.579 219.578 512.953C217.733 512.847 215.909 512.509 214.147 511.95C212.476 511.537 210.828 511.038 209.21 510.453C207.777 509.688 205.914 508.494 205.786 506.79C205.745 505.766 205.987 504.752 206.487 503.859C207.394 502.393 209.306 502.202 210.437 504.463Z" fill="#C4B0B8"/>
</g>
</g>
<g style="mix-blend-mode:soft-light">
<g style="mix-blend-mode:soft-light">
<path fill-rule="evenodd" clip-rule="evenodd" d="M554.5 161.755C552.621 163.013 549.053 164.797 549.723 167.632C550.143 168.895 550.633 170.133 551.188 171.343C551.542 172.461 551.772 173.615 551.873 174.782C552.076 176.703 552.81 178.527 553.991 180.055C554.85 180.994 555.759 180.055 556.347 179.147C557.078 178.229 557.541 177.127 557.686 175.962C557.708 174.461 557.884 172.967 558.21 171.502C558.37 170.928 558.8 170.418 558.928 169.91C559.062 169.099 559.095 168.275 559.024 167.457C558.972 166.149 558.506 164.892 557.693 163.867C556.88 162.841 555.761 162.102 554.5 161.755Z" fill="#C4B0FF"/>
</g>
<g style="mix-blend-mode:soft-light">
<path fill-rule="evenodd" clip-rule="evenodd" d="M524.465 323.458C524.132 323.633 523.733 323.76 523.558 324.11C523.478 324.304 523.43 324.508 523.414 324.716C523.335 325.623 524.593 326.022 525.214 326.197C526.117 326.486 527.07 326.584 528.014 326.486C528.956 326.387 529.868 326.093 530.692 325.623C531.301 325.254 531.827 324.76 532.235 324.177C532.644 323.593 532.926 322.931 533.065 322.231C533.066 321.359 532.822 320.503 532.361 319.762C531.899 319.021 531.238 318.426 530.453 318.043C529.797 317.563 529.024 317.268 528.215 317.187C527.406 317.105 526.59 317.241 525.851 317.581C525.31 317.901 524.884 318.387 524.64 318.967C524.465 319.444 524.498 319.954 524.354 320.432C524.21 320.909 523.733 321.547 523.828 322.247C523.895 322.712 524.12 323.14 524.465 323.458Z" fill="#C4B0FF"/>
</g>
<g style="mix-blend-mode:soft-light">
<path fill-rule="evenodd" clip-rule="evenodd" d="M534.706 326.532C534.696 326.342 534.736 326.155 534.823 325.987C534.91 325.819 535.039 325.678 535.199 325.576C535.329 325.426 535.509 325.328 535.705 325.302C535.902 325.275 536.101 325.322 536.266 325.432C536.413 325.541 536.536 325.678 536.631 325.834C536.725 325.991 536.786 326.164 536.813 326.345C536.84 326.525 536.831 326.71 536.787 326.886C536.742 327.063 536.662 327.229 536.553 327.376C536.384 327.548 536.175 327.677 535.944 327.749C535.714 327.822 535.468 327.835 535.232 327.79C534.979 327.718 534.759 327.562 534.609 327.347C534.458 327.133 534.386 326.873 534.403 326.612L534.706 326.532Z" fill="#C4B0FF"/>
</g>
<g style="mix-blend-mode:soft-light">
<path fill-rule="evenodd" clip-rule="evenodd" d="M559.884 288.291C559.268 288.345 558.696 288.636 558.291 289.105C558.145 289.217 558.03 289.366 557.958 289.536C557.885 289.706 557.858 289.891 557.877 290.076C558.052 291.242 558.654 292.303 559.565 293.054C559.86 293.28 560.203 293.435 560.568 293.506C560.933 293.578 561.308 293.565 561.667 293.468C562.316 293.18 562.913 292.787 563.435 292.306C563.933 291.949 564.405 291.56 564.852 291.143C565.301 290.85 565.657 290.435 565.877 289.947C566.096 289.459 566.173 288.917 566.094 288.388C565.977 287.864 565.722 287.38 565.355 286.989C564.989 286.596 564.523 286.309 564.009 286.157C563.308 286.03 562.587 286.096 561.922 286.349C561.094 286.572 560.505 286.572 559.884 288.291Z" fill="#C4B0FF"/>
</g>
<g style="mix-blend-mode:soft-light">
<path fill-rule="evenodd" clip-rule="evenodd" d="M555.185 291.652C555.691 291.839 556.149 292.138 556.523 292.528C556.427 292.783 556.682 293.006 556.523 293.277C556.363 293.548 555.647 293.373 555.36 293.277C554.968 293.134 554.647 292.842 554.469 292.464C554.469 292.322 554.118 291.7 554.469 291.764L555.185 291.652Z" fill="#C4B0FF"/>
</g>
<g style="mix-blend-mode:soft-light">
<path fill-rule="evenodd" clip-rule="evenodd" d="M499.256 312.357C498.746 312.931 498.173 313.552 498.539 314.444C498.748 314.777 499.059 315.036 499.426 315.18C499.793 315.324 500.197 315.344 500.578 315.24C500.976 315.24 501.422 315.081 501.597 314.65C501.772 314.22 501.835 313.695 501.979 313.249C502.314 312.166 503.572 311.656 502.935 310.366C502.792 310.079 502.587 309.827 502.333 309.63C502.079 309.435 501.783 309.299 501.469 309.235C500.434 309.235 499.622 310.191 499.017 311.035L499.256 312.357Z" fill="#C4B0FF"/>
</g>
<g style="mix-blend-mode:soft-light">
<path fill-rule="evenodd" clip-rule="evenodd" d="M347.537 420.466C347.855 419.782 348.237 418.524 349.416 418.094C350.128 417.845 350.902 417.845 351.614 418.094C353.381 418.381 355.133 418.938 353.971 420.69C353.144 421.641 352.022 422.286 350.785 422.522C349.734 422.697 347.791 422.362 347.886 421.471L347.537 420.466Z" fill="#C4B0FF"/>
</g>
<g style="mix-blend-mode:soft-light">
<path fill-rule="evenodd" clip-rule="evenodd" d="M454.395 49.1056C453.996 50.6982 453.455 52.689 455.27 53.8836C456.513 54.6481 458.456 53.8836 459.49 53.0395C461.273 51.419 462.49 49.2701 462.962 46.9077C463.233 44.8213 460.716 42.5916 458.806 42.3528C454.904 41.8749 452.818 48.0704 452.595 50.985L454.395 49.1056Z" fill="#C4B0FF"/>
</g>
<g style="mix-blend-mode:soft-light">
<path fill-rule="evenodd" clip-rule="evenodd" d="M445.699 400.463C444.508 402.281 444.053 404.484 444.425 406.627C444.584 407.916 444.6 409.653 446.288 410.083C450.27 411.086 454.395 403.712 455.462 401.276C456.386 399.363 456.819 397.249 456.72 395.127C456.608 393.965 455.748 391.688 454.362 391.209C453.393 391.032 452.394 391.108 451.463 391.428C450.531 391.75 449.699 392.304 449.044 393.041C446.05 396.036 446.272 399.492 444.648 402.725L445.699 400.463Z" fill="#C4B0FF"/>
</g>
<g style="mix-blend-mode:soft-light">
<path fill-rule="evenodd" clip-rule="evenodd" d="M443.613 400.192C442.574 400.345 441.553 400.612 440.572 400.988C440.078 401.276 439.297 401.722 439.122 402.184C438.947 402.645 439.314 403.362 439.791 403.776C439.995 403.924 440.232 404.022 440.481 404.06C440.73 404.099 440.985 404.078 441.224 403.999C441.613 403.769 441.958 403.473 442.244 403.123C442.701 402.634 443.107 402.101 443.455 401.53C443.658 401.282 443.828 401.009 443.963 400.718C444.107 400.272 443.772 400.161 443.677 399.826L443.613 400.192Z" fill="#C4B0FF"/>
</g>
<g style="mix-blend-mode:soft-light">
<path fill-rule="evenodd" clip-rule="evenodd" d="M439.059 417.871L440.397 418.269C440.253 418.715 440.397 419.208 439.823 419.543C439.26 419.779 438.645 419.861 438.039 419.782C437.45 419.654 437.115 419.321 437.195 418.811C437.275 418.301 438.008 417.919 438.692 417.744L439.059 417.871Z" fill="#C4B0FF"/>
</g>
<g style="mix-blend-mode:soft-light">
<path fill-rule="evenodd" clip-rule="evenodd" d="M371.663 432.747C371.663 433.224 371.663 433.559 372.204 433.766C372.662 433.908 373.149 433.93 373.618 433.83C374.086 433.729 374.521 433.509 374.88 433.193C375.852 432.284 376.712 430.613 376.106 429.704C375.763 429.355 375.309 429.134 374.822 429.078C374.335 429.022 373.844 429.137 373.43 429.402C372.947 429.744 372.499 430.133 372.093 430.564C371.874 430.858 371.721 431.194 371.641 431.551C371.561 431.907 371.558 432.277 371.631 432.635L371.663 432.747Z" fill="#C4B0FF"/>
</g>
<g style="mix-blend-mode:soft-light">
<path fill-rule="evenodd" clip-rule="evenodd" d="M300.795 317.9C300.318 318.329 300.079 318.473 299.967 319.078C299.871 319.402 299.838 319.742 299.874 320.079C299.909 320.415 300.012 320.741 300.174 321.037C301.214 322.27 302.65 323.102 304.236 323.394C304.793 323.554 305.38 323.581 305.949 323.473C306.52 323.366 307.056 323.125 307.516 322.773C308.085 322.402 308.57 321.912 308.935 321.337C309.3 320.763 309.539 320.118 309.634 319.444C309.806 318.788 309.764 318.096 309.515 317.465C309.266 316.835 308.822 316.301 308.248 315.94C307.155 315.102 305.895 314.505 304.554 314.189C304.037 314.096 303.506 314.128 303.004 314.283C302.502 314.439 302.046 314.712 301.671 315.081C300.875 315.749 299.824 316.96 300.795 317.9Z" fill="#C4B0FF"/>
</g>
<g style="mix-blend-mode:soft-light">
<path fill-rule="evenodd" clip-rule="evenodd" d="M311.242 322.566C311.242 322.184 311.242 321.722 311.625 321.61C311.976 321.605 312.324 321.669 312.65 321.801C312.975 321.933 313.271 322.127 313.52 322.375C313.87 322.782 314.062 323.303 314.061 323.84C313.946 324.196 313.71 324.501 313.393 324.7C313.176 324.89 312.903 325.003 312.615 325.024C312.327 325.043 312.041 324.97 311.801 324.811C311.466 324.605 310.654 324.174 310.781 323.681L311.242 322.566Z" fill="#C4B0FF"/>
</g>
<g style="mix-blend-mode:soft-light">
<path fill-rule="evenodd" clip-rule="evenodd" d="M111.333 281.793C108.344 277.732 106.878 272.748 107.193 267.715C107.304 265.565 107.066 261.678 110.123 261.981C114.232 262.379 116.334 268.75 117.481 271.935C119.185 276.713 120.84 281.491 120.236 286.603C119.408 293.595 110.203 279.675 109.295 278.386L111.333 281.793Z" fill="#C4B0FF"/>
</g>
<g style="mix-blend-mode:soft-light">
<path fill-rule="evenodd" clip-rule="evenodd" d="M120.188 258.684C119.455 262.745 121.271 268.511 125.666 269.833C127.258 270.295 127.815 269.323 128.644 267.842C129.113 267.15 129.425 266.364 129.556 265.538C129.688 264.713 129.639 263.868 129.409 263.065C128.903 261.982 128.266 260.965 127.513 260.039C127.081 259.509 126.701 258.939 126.383 258.333C126.08 257.681 126.192 257.171 125.682 256.598C124.455 255.212 119.71 254.082 120.188 257.315V258.684Z" fill="#C4B0FF"/>
</g>
<g style="mix-blend-mode:soft-light">
<path fill-rule="evenodd" clip-rule="evenodd" d="M164.97 546.718C165.936 544.144 167.692 541.942 169.986 540.426C172.607 538.66 175.518 537.366 178.586 536.604C181.49 535.934 184.529 536.168 187.297 537.273C189.989 538.707 192.377 540.841 194.926 542.496C197.234 544.009 199.559 544.854 201.582 546.861C203.391 548.719 204.786 550.939 205.675 553.375C207.077 557.069 208.095 562.74 206.518 566.498C205.085 569.923 203.063 569.971 199.639 569.907C194.862 569.827 190.195 565.909 187.17 562.405C185.814 560.568 184.284 558.866 182.599 557.324C180.417 555.605 178.14 554.012 175.847 552.451C173.598 551.208 171.423 549.835 169.333 548.342C168.457 547.578 165.623 545.411 164.97 546.718Z" fill="#C4B0FF"/>
</g>
<g style="mix-blend-mode:soft-light">
<path fill-rule="evenodd" clip-rule="evenodd" d="M247.749 329.574C247.446 331.326 247.001 332.09 248.29 332.95C248.687 333.234 249.163 333.387 249.651 333.387C250.141 333.387 250.617 333.234 251.013 332.95C251.985 332.376 254.199 330.306 253.865 329.08C253.291 326.515 246.857 326.42 247.192 329.526L247.749 329.574Z" fill="#C4B0FF"/>
</g>
<g style="mix-blend-mode:soft-light">
<path fill-rule="evenodd" clip-rule="evenodd" d="M368.287 411.834C367.252 407.057 372.124 400.096 377.635 396.194C385.486 390.621 397.415 389.41 406.204 390.588C413.578 391.56 419.63 395.462 421.111 400.75C421.509 402.168 421.238 403.648 421.573 405.066C421.843 406.149 422.13 406.77 420.537 407.678C416.572 409.924 410.298 411.309 405.838 412.042C400.87 413.027 395.822 413.561 390.757 413.635C386.489 413.539 382.412 412.918 378.145 412.759C376.11 412.766 374.079 412.59 372.077 412.233C371.073 412.042 368.573 412.393 368.287 411.834Z" fill="#C4B0FF"/>
</g>
<g style="mix-blend-mode:soft-light">
<path fill-rule="evenodd" clip-rule="evenodd" d="M408.721 382.386C409.453 383.294 409.486 383.82 410.934 383.979C412.064 383.971 413.167 383.646 414.119 383.039C415.283 382.371 416.891 380.778 416.317 379.855C415.298 378.118 408.355 379.154 409.071 381.447L408.721 382.386Z" fill="#C4B0FF"/>
</g>
<g style="mix-blend-mode:soft-light">
<path fill-rule="evenodd" clip-rule="evenodd" d="M517.809 290.012C518.025 288.697 518.507 287.439 519.226 286.317C519.563 286.096 519.942 285.943 520.338 285.87C520.734 285.796 521.141 285.802 521.535 285.887C522.263 285.931 522.969 286.144 523.599 286.509C524.23 286.874 524.766 287.38 525.166 287.989C525.861 288.644 526.404 289.444 526.758 290.33C527.858 295.348 519.019 293.181 517.856 290.012H517.809Z" fill="#C4B0FF"/>
</g>
</g>
<path style="mix-blend-mode:screen" d="M549.635 618.078C620.698 572.574 660.487 507.852 638.506 473.517C616.524 439.182 541.096 448.236 470.032 493.74C398.968 539.243 359.179 603.965 381.16 638.3C403.143 672.635 478.57 663.581 549.635 618.078Z" fill="url(#paint2_radial_4_34)"/>
<defs>
<radialGradient id="paint0_radial_4_34" cx="0" cy="0" r="1" gradientUnits="userSpaceOnUse" gradientTransform="translate(333.475 313.504) scale(333.475 333.504)">
<stop offset="0.81" stop-color="#008BC4"/>
<stop offset="0.979167" stop-opacity="0"/>
</radialGradient>
<radialGradient id="paint1_radial_4_34" cx="0" cy="0" r="1" gradientUnits="userSpaceOnUse" gradientTransform="translate(267.464 212.29) scale(425.347 425.385)">
<stop stop-color="#7C83FF"/>
<stop offset="0.84" stop-color="#482088"/>
<stop offset="0.95" stop-color="#403B77"/>
<stop offset="1" stop-color="#4D79D1"/>
</radialGradient>
<radialGradient id="paint2_radial_4_34" cx="0" cy="0" r="1" gradientUnits="userSpaceOnUse" gradientTransform="translate(513.756 562.182) rotate(-32.6324) scale(152.774 73.3345)">
<stop stop-color="#2C6AFF"/>
<stop offset="1" stop-opacity="0"/>
</radialGradient>
</defs>
</svg>
