<svg width="169" height="109" viewBox="0 0 169 109" fill="none" xmlns="http://www.w3.org/2000/svg">
<path style="mix-blend-mode:screen" d="M111.887 84.418L159.929 108.528L168.752 88.0446L123.558 63.1956C123.558 63.1956 113.975 78.0941 111.887 84.418Z" fill="url(#paint0_linear_4_226)"/>
<path fill-rule="evenodd" clip-rule="evenodd" d="M103.835 42.3466L106.755 33.3474C106.755 33.3474 122.526 40.1444 134.051 59.0587L133.633 59.8339L111.411 47.065L110.474 48.6746L103.835 42.3466Z" fill="url(#paint1_linear_4_226)"/>
<path fill-rule="evenodd" clip-rule="evenodd" d="M83.7282 79.7908L77.6605 87.3812C77.6605 87.3812 92.0177 96.8036 114.147 96.0181L114.565 95.2423L91.683 83.7401L92.5107 82.0712L83.7282 79.7908Z" fill="url(#paint2_linear_4_226)"/>
<path fill-rule="evenodd" clip-rule="evenodd" d="M6.24921 13.9773C0.537991 24.5873 16.8597 54.8062 41.1025 66.13C65.344 77.4536 105.76 85.0923 105.76 85.0923L113.21 71.572L120.392 57.9096C120.392 57.9096 91.7459 28.366 68.9687 14.3604C46.1915 0.354851 11.9218 3.43898 6.24921 13.9773Z" fill="url(#paint3_radial_4_226)"/>
<path fill-rule="evenodd" clip-rule="evenodd" d="M105.765 85.0996C105.765 85.0996 112.726 68.8944 120.397 57.9168C120.397 57.9168 113.713 73.9007 105.765 85.0996Z" fill="#31165F"/>
<path fill-rule="evenodd" clip-rule="evenodd" d="M9.21769 33.9618C9.21769 33.9618 12.5983 16.4009 26.2318 5.29144C26.2318 5.29144 10.461 6.31683 6.24915 13.9772C2.459 20.8696 9.21769 33.9618 9.21769 33.9618Z" fill="url(#paint4_radial_4_226)"/>
<path d="M26.3659 5.46028C13.5564 15.6924 9.47872 33.8065 9.42918 34.0046L9.00995 33.9156C9.0462 33.7328 13.1662 15.4515 26.1026 5.12432L26.3659 5.46028Z" fill="#53345F"/>
<path fill-rule="evenodd" clip-rule="evenodd" d="M5.15571 17.996L9.82912 10.2628C9.82912 10.2628 4.82103 12.7593 5.15571 17.996Z" fill="#53345F"/>
<path fill-rule="evenodd" clip-rule="evenodd" d="M5.37561 16.6874C5.93622 15.0822 6.70585 13.5582 7.66637 12.1548C7.66637 12.1548 3.46061 11.0177 2.59674 12.3104C1.73408 13.6029 5.37561 16.6874 5.37561 16.6874Z" fill="url(#paint5_linear_4_226)"/>
<path style="mix-blend-mode:multiply" opacity="0.5" fill-rule="evenodd" clip-rule="evenodd" d="M79.5537 79.0935C79.5537 79.0935 84.4651 52.1597 99.0361 37.6081C107.639 45.1565 120.395 57.9202 120.395 57.9202C120.395 57.9202 113.359 67.5305 105.763 85.102C105.766 85.0996 92.1554 83.2144 79.5537 79.0935Z" fill="url(#paint6_radial_4_226)"/>
<path style="mix-blend-mode:multiply" opacity="0.5" fill-rule="evenodd" clip-rule="evenodd" d="M22.7666 24.0175C18.3566 33.9764 25.9575 46.8789 35.5591 52.6129C45.1596 58.347 56.0685 52.4875 61.0198 42.6352C65.971 32.783 63.7093 21.1787 52.3304 16.5048C42.0533 12.2653 27.6671 12.9492 22.7666 24.0175Z" fill="url(#paint7_radial_4_226)"/>
<path fill-rule="evenodd" clip-rule="evenodd" d="M21.1996 23.1736C16.7896 33.1325 24.3905 46.0351 33.9909 51.7691C43.5926 57.5031 54.5015 51.6436 59.4564 41.7933C64.41 31.9429 62.1446 20.3366 50.7633 15.6611C40.4899 11.4232 26.1037 12.1072 21.1996 23.1736Z" fill="#31165F"/>
<path fill-rule="evenodd" clip-rule="evenodd" d="M20.1073 22.5852C15.6974 32.544 23.2983 45.4466 32.8987 51.1806C42.4992 56.9147 53.4093 51.0551 58.363 41.2047C63.3178 31.3545 61.0524 19.7482 49.6711 15.0725C39.3964 10.8348 25.0115 11.5187 20.1073 22.5852Z" fill="url(#paint8_radial_4_226)"/>
<path fill-rule="evenodd" clip-rule="evenodd" d="M23.9591 23.8402C19.8597 32.6978 26.4034 41.7717 33.91 46.2589C41.4166 50.7461 49.943 46.1141 53.8358 38.3747C57.7287 30.6353 55.9792 21.5486 47.1013 17.8911C39.0498 14.5726 28.2253 14.5799 23.9591 23.8402Z" fill="#A6345F"/>
<path fill-rule="evenodd" clip-rule="evenodd" d="M55.3786 28.8497C55.7749 32.1029 55.1744 35.3998 53.6545 38.3033C49.9501 45.6683 41.013 50.4806 33.8797 46.2164C31.4379 44.7606 29.2922 42.8578 27.5548 40.6074C24.1355 36.1676 22.6084 30.4072 25.229 24.4755C29.0747 15.6936 39.6079 15.6618 47.251 18.8083C52.1564 20.8551 54.7673 24.6267 55.3786 28.8497Z" fill="url(#paint9_linear_4_226)"/>
<path d="M59.472 41.7711L59.3694 41.9624L86.6895 56.6746L86.7921 56.4834L59.472 41.7711Z" fill="#53345F"/>
<path d="M79.6444 79.1068L79.4342 79.0633C86.0455 48.7823 98.8211 37.6382 98.9468 37.5292L99.087 37.693C98.971 37.811 86.2546 48.9171 79.6444 79.1068Z" fill="#53345F"/>
<path d="M69.4397 76.2681L69.2259 76.2886C69.2138 76.1811 68.3801 65.2618 75.3576 50.4579L75.5449 50.559C68.5795 65.2992 69.4313 76.1618 69.4397 76.2681Z" fill="#53345F"/>
<path fill-rule="evenodd" clip-rule="evenodd" d="M108.095 63.9996L96.1002 58.0334L97.0402 54.3328L109.471 61.4418L108.095 63.9996Z" fill="#31165F"/>
<path fill-rule="evenodd" clip-rule="evenodd" d="M107.213 82.9811C107.213 82.9811 112.445 70.5708 119.691 59.549L124.587 63.107L112.151 84.8204L107.213 82.9811Z" fill="url(#paint10_radial_4_226)"/>
<path opacity="0.5" fill-rule="evenodd" clip-rule="evenodd" d="M109.712 83.9032C109.882 80.2585 110.902 76.7031 112.689 73.5212C115.652 68.2801 123.459 62.2748 123.459 62.2748L119.691 59.549C119.691 59.549 111.686 71.5055 107.213 82.9811L109.712 83.9032Z" fill="#31165F"/>
<path d="M31.2917 20.9751C33.6502 20.2512 36.1113 19.9189 38.5772 19.9914L38.5144 17.5792C38.5144 17.5792 34.3836 17.1783 31.7726 19.1816L31.2917 20.9751Z" fill="white"/>
<path d="M37.7122 44.8573L41.1846 44.7628L41.2523 46.7639L38.4468 46.6669L37.7122 44.8573Z" fill="white"/>
<path style="mix-blend-mode:multiply" opacity="0.5" fill-rule="evenodd" clip-rule="evenodd" d="M12.3374 39.6056C12.3374 39.6056 12.7602 20.4525 30.9365 4.97918L26.2318 5.29145C26.2318 5.29145 14.9108 13.7744 9.21771 33.9619L12.3374 39.6056Z" fill="url(#paint11_radial_4_226)"/>
<path fill-rule="evenodd" clip-rule="evenodd" d="M76.8485 52.155C76.9597 52.2152 77.0575 52.2968 77.1361 52.3949C77.2158 52.493 77.2751 52.6059 77.3101 52.7269C77.3451 52.848 77.3572 52.9749 77.3439 53.1002C77.3294 53.2256 77.2919 53.3471 77.2303 53.4576C77.1107 53.6822 76.9077 53.85 76.6637 53.9247C76.4208 53.9993 76.1587 53.9744 75.9327 53.8556C75.7104 53.7332 75.5449 53.5274 75.4736 53.2833C75.4011 53.0392 75.4301 52.7766 75.551 52.553C75.6102 52.4414 75.6899 52.3427 75.7878 52.2622C75.8844 52.1819 75.9968 52.1214 76.1176 52.0845C76.2372 52.0475 76.3641 52.0347 76.4897 52.0468C76.6154 52.0588 76.7374 52.0957 76.8485 52.155Z" fill="url(#paint12_linear_4_226)"/>
<path fill-rule="evenodd" clip-rule="evenodd" d="M76.7567 52.3258C76.9319 52.4267 77.06 52.5917 77.1156 52.7857C77.1699 52.9799 77.147 53.1878 77.0516 53.3654C76.9561 53.5431 76.7954 53.6765 76.6033 53.7375C76.41 53.7984 76.2021 53.782 76.0221 53.6917C75.8469 53.5908 75.7188 53.4257 75.6633 53.2317C75.6089 53.0376 75.6319 52.8296 75.7274 52.6521C75.8228 52.4743 75.9835 52.3409 76.1756 52.28C76.3677 52.2191 76.5767 52.2355 76.7567 52.3258Z" fill="url(#paint13_radial_4_226)"/>
<path fill-rule="evenodd" clip-rule="evenodd" d="M72.7007 49.9212C72.9218 50.045 73.0862 50.2515 73.1562 50.4953C73.2251 50.7393 73.1961 51.0011 73.074 51.2234C72.9532 51.4478 72.7491 51.6153 72.505 51.6895C72.2622 51.7637 71.9988 51.7386 71.7728 51.6197C71.5541 51.4956 71.391 51.29 71.3222 51.0473C71.2521 50.8047 71.2811 50.5444 71.4019 50.3226C71.4599 50.2105 71.5396 50.1111 71.6375 50.0302C71.7342 49.9493 71.8465 49.8884 71.9674 49.8511C72.0882 49.8139 72.215 49.8008 72.3406 49.8128C72.4675 49.8249 72.5896 49.8616 72.7007 49.9212Z" fill="url(#paint14_linear_4_226)"/>
<path fill-rule="evenodd" clip-rule="evenodd" d="M72.609 50.0918C72.7842 50.1927 72.9122 50.3578 72.9666 50.5519C73.0222 50.746 72.9992 50.9539 72.9038 51.1315C72.8083 51.3092 72.6476 51.4426 72.4543 51.5035C72.2622 51.5645 72.0545 51.548 71.8732 51.4577C71.785 51.4098 71.7077 51.3445 71.6448 51.266C71.582 51.1874 71.5361 51.0971 71.5095 51.0003C71.4817 50.9037 71.4745 50.8024 71.4866 50.7027C71.4999 50.6031 71.5325 50.5069 71.582 50.4199C71.6267 50.3301 71.6896 50.2501 71.7657 50.1846C71.8418 50.1192 71.9312 50.0698 72.0267 50.0392C72.1221 50.0087 72.2236 49.9975 72.3227 50.0066C72.423 50.0157 72.5208 50.0446 72.609 50.0918Z" fill="url(#paint15_radial_4_226)"/>
<path d="M37.2857 50.0102C37.5382 49.5406 37.3667 48.9574 36.9039 48.7076C36.44 48.4578 35.8588 48.6361 35.6063 49.1057C35.3525 49.5753 35.5242 50.1585 35.9881 50.4083C36.4521 50.6581 37.0332 50.4798 37.2857 50.0102Z" fill="#31165F"/>
<path fill-rule="evenodd" clip-rule="evenodd" d="M36.8097 48.8732C36.9849 48.9741 37.1129 49.1392 37.1685 49.3333C37.2229 49.5273 37.1999 49.7352 37.1044 49.9128C37.009 50.0905 36.8483 50.224 36.6562 50.2849C36.4629 50.3458 36.2551 50.3294 36.0751 50.2391C35.9011 50.1377 35.773 49.9728 35.7187 49.7791C35.6643 49.5855 35.6872 49.3783 35.7827 49.2013C35.8286 49.1114 35.8902 49.0314 35.9664 48.966C36.0425 48.9006 36.1319 48.8512 36.2273 48.8206C36.3228 48.79 36.4243 48.7789 36.5233 48.788C36.6236 48.7971 36.7215 48.8259 36.8097 48.8732Z" fill="url(#paint16_radial_4_226)"/>
<path fill-rule="evenodd" clip-rule="evenodd" d="M25.8077 40.8079C26.0313 40.9303 26.1968 41.1361 26.268 41.3802C26.3405 41.6244 26.3116 41.8869 26.1908 42.1105C26.1316 42.2221 26.0505 42.3211 25.9539 42.4018C25.8572 42.4824 25.7449 42.5431 25.6241 42.5805C25.5033 42.6177 25.3764 42.6308 25.2507 42.6191C25.1251 42.6073 25.0031 42.5709 24.8907 42.5119C24.7808 42.4511 24.6829 42.3692 24.6031 42.2706C24.5246 42.1721 24.4654 42.059 24.4304 41.9377C24.3953 41.8165 24.3845 41.6893 24.3978 41.5638C24.4111 41.4382 24.4497 41.3166 24.5113 41.2059C24.6309 40.9814 24.8339 40.8134 25.0768 40.7389C25.3208 40.6643 25.583 40.6891 25.8077 40.8079Z" fill="#31165F"/>
<path fill-rule="evenodd" clip-rule="evenodd" d="M25.711 40.989C25.885 41.0899 26.0143 41.255 26.0686 41.4491C26.1242 41.6432 26.1013 41.851 26.0058 42.0287C25.9104 42.2063 25.7485 42.3398 25.5564 42.4008C25.3642 42.4617 25.1552 42.4452 24.9752 42.355C24.8012 42.254 24.672 42.089 24.6176 41.8949C24.562 41.7008 24.585 41.4928 24.6804 41.3153C24.7759 41.1375 24.9378 41.0041 25.1299 40.9432C25.322 40.8823 25.5298 40.8987 25.711 40.989Z" fill="url(#paint17_radial_4_226)"/>
<path fill-rule="evenodd" clip-rule="evenodd" d="M50.5808 45.8055C50.692 45.8658 50.7886 45.9472 50.8684 46.0454C50.9481 46.1436 51.0061 46.2564 51.0423 46.3775C51.0774 46.4984 51.0895 46.6253 51.075 46.7508C51.0617 46.8761 51.023 46.9975 50.9626 47.1081C50.843 47.3326 50.6388 47.5006 50.396 47.5752C50.1531 47.6497 49.8897 47.625 49.665 47.5062C49.4426 47.3838 49.2771 47.1779 49.2046 46.9338C49.1334 46.6896 49.1612 46.4271 49.2832 46.2036C49.3424 46.092 49.4221 45.9932 49.5188 45.9128C49.6167 45.8324 49.729 45.7719 49.8486 45.7349C49.9695 45.6979 50.0963 45.6851 50.2219 45.6973C50.3476 45.7094 50.4697 45.7462 50.5808 45.8055Z" fill="#31165F"/>
<path fill-rule="evenodd" clip-rule="evenodd" d="M50.4829 45.9864C50.6581 46.0874 50.7862 46.2524 50.8418 46.4465C50.8961 46.6407 50.8732 46.8485 50.7778 47.0262C50.6823 47.2038 50.5217 47.3372 50.3295 47.3981C50.1362 47.4592 49.9284 47.4427 49.7484 47.3525C49.5732 47.2514 49.4451 47.0865 49.3895 46.8924C49.3352 46.6983 49.3569 46.4903 49.4536 46.3127C49.549 46.135 49.7097 46.0016 49.9018 45.9407C50.0939 45.8798 50.3029 45.8961 50.4829 45.9864Z" fill="url(#paint18_radial_4_226)"/>
<path fill-rule="evenodd" clip-rule="evenodd" d="M58.6831 33.1751C58.7943 33.2354 58.8921 33.3169 58.9718 33.4152C59.0504 33.5134 59.1096 33.6263 59.1459 33.7474C59.1821 33.8685 59.1929 33.9955 59.1797 34.121C59.1664 34.2467 59.1289 34.3685 59.0685 34.4795C58.9477 34.7038 58.7435 34.8713 58.4994 34.9456C58.2554 35.0198 57.9933 34.9947 57.7673 34.8756C57.545 34.7532 57.3794 34.5474 57.3069 34.3033C57.2357 34.0592 57.2635 33.7966 57.3855 33.573C57.4447 33.4615 57.5244 33.3627 57.6223 33.2822C57.7189 33.2019 57.8313 33.1415 57.9521 33.1045C58.0717 33.0675 58.1987 33.0547 58.3243 33.0668C58.45 33.0789 58.572 33.1157 58.6831 33.1751Z" fill="#31165F"/>
<path fill-rule="evenodd" clip-rule="evenodd" d="M58.5853 33.3561C58.7605 33.457 58.8885 33.6219 58.9429 33.816C58.9985 34.0102 58.9755 34.2181 58.88 34.3957C58.7846 34.5734 58.6239 34.7068 58.4306 34.7677C58.2385 34.8286 58.0307 34.8123 57.8495 34.722C57.7613 34.6739 57.6839 34.6088 57.6211 34.5301C57.5595 34.4516 57.5124 34.3613 57.4858 34.2645C57.458 34.1678 57.4508 34.0667 57.4628 33.967C57.4761 33.8673 57.5087 33.7711 57.5583 33.6842C57.6042 33.5943 57.6658 33.5143 57.7419 33.4489C57.818 33.3835 57.9074 33.3341 58.0029 33.3035C58.0983 33.2729 58.1998 33.2618 58.2989 33.2708C58.3992 33.2798 58.4971 33.3088 58.5853 33.3561Z" fill="url(#paint19_radial_4_226)"/>
<path d="M56.0238 21.3347C56.2763 20.8651 56.106 20.282 55.642 20.0322C55.1781 19.7824 54.597 19.9606 54.3445 20.4302C54.0919 20.8998 54.2623 21.483 54.7262 21.7328C55.1902 21.9826 55.7713 21.8043 56.0238 21.3347Z" fill="#31165F"/>
<path fill-rule="evenodd" clip-rule="evenodd" d="M55.5491 20.2029C55.7243 20.3039 55.8523 20.4689 55.9079 20.6629C55.9623 20.8571 55.9405 21.065 55.8438 21.2426C55.7484 21.4203 55.5877 21.5537 55.3956 21.6146C55.2035 21.6756 54.9945 21.6592 54.8144 21.5689C54.6392 21.4679 54.5111 21.3029 54.4568 21.1089C54.4012 20.9148 54.4242 20.7068 54.5196 20.5293C54.6151 20.3515 54.7758 20.2181 54.9679 20.1572C55.1612 20.0963 55.369 20.1127 55.5491 20.2029Z" fill="url(#paint20_radial_4_226)"/>
<path fill-rule="evenodd" clip-rule="evenodd" d="M40.0102 13.3765C40.1214 13.4368 40.2192 13.5182 40.299 13.6163C40.3775 13.7146 40.4367 13.8273 40.4718 13.9484C40.508 14.0694 40.5188 14.1963 40.5055 14.3216C40.4922 14.447 40.4536 14.5685 40.3932 14.6791C40.2736 14.9036 40.0694 15.0716 39.8266 15.1461C39.5825 15.2207 39.3203 15.1959 39.0956 15.077C38.8732 14.955 38.7077 14.7499 38.6353 14.5066C38.564 14.2632 38.5905 14.0014 38.7114 13.7779C38.7694 13.6659 38.8503 13.5664 38.947 13.4856C39.0448 13.4046 39.156 13.3438 39.2768 13.3065C39.3976 13.2692 39.5245 13.2561 39.6514 13.2682C39.777 13.2801 39.899 13.317 40.0102 13.3765Z" fill="#31165F"/>
<path fill-rule="evenodd" clip-rule="evenodd" d="M39.9184 13.5472C40.0935 13.6481 40.2216 13.8132 40.2772 14.0073C40.3316 14.2014 40.3098 14.4092 40.2131 14.5869C40.1177 14.7645 39.957 14.8981 39.7649 14.959C39.5728 15.0199 39.3638 15.0034 39.1837 14.9132C39.0085 14.8122 38.8805 14.6472 38.8249 14.4531C38.7705 14.259 38.7935 14.051 38.889 13.8735C38.9844 13.6959 39.1451 13.5623 39.3372 13.5014C39.5305 13.4405 39.7383 13.457 39.9184 13.5472Z" fill="url(#paint21_radial_4_226)"/>
<path fill-rule="evenodd" clip-rule="evenodd" d="M28.7207 15.9431C28.8306 16.0033 28.9285 16.0849 29.0082 16.183C29.0867 16.2811 29.1459 16.394 29.1822 16.515C29.2172 16.6361 29.2281 16.763 29.2148 16.8883C29.2015 17.0137 29.1629 17.1352 29.1024 17.2457C28.9828 17.4703 28.7787 17.6381 28.5358 17.7128C28.293 17.7874 28.0296 17.7625 27.8049 17.6437C27.5813 17.5213 27.4158 17.3155 27.3445 17.0714C27.2732 16.8272 27.301 16.5646 27.423 16.3412C27.481 16.2297 27.562 16.1308 27.6586 16.0504C27.7565 15.97 27.8677 15.9095 27.9885 15.8726C28.1093 15.8356 28.2362 15.8228 28.3618 15.8349C28.4875 15.8471 28.6083 15.8838 28.7207 15.9431Z" fill="#31165F"/>
<path fill-rule="evenodd" clip-rule="evenodd" d="M28.6228 16.124C28.798 16.225 28.9261 16.39 28.9817 16.5841C29.036 16.7782 29.013 16.9862 28.9176 17.1637C28.8221 17.3413 28.6615 17.4749 28.4694 17.5358C28.2773 17.5967 28.0682 17.5802 27.8882 17.49C27.713 17.3891 27.5849 17.2241 27.5294 17.0299C27.475 16.8358 27.498 16.628 27.5934 16.4503C27.6889 16.2727 27.8495 16.1393 28.0417 16.0782C28.235 16.0173 28.4428 16.0338 28.6228 16.124Z" fill="url(#paint22_radial_4_226)"/>
<path fill-rule="evenodd" clip-rule="evenodd" d="M21.4437 26.5823C21.6672 26.7047 21.8315 26.9105 21.904 27.1546C21.9753 27.3987 21.9475 27.6613 21.8254 27.8847C21.7674 27.9963 21.6865 28.0951 21.5898 28.1756C21.492 28.256 21.3809 28.3164 21.26 28.3534C21.1392 28.3904 21.0123 28.4032 20.8867 28.3911C20.761 28.379 20.639 28.3422 20.5279 28.2828C20.4179 28.2225 20.3188 28.1409 20.2403 28.0427C20.1605 27.9446 20.1014 27.8316 20.0651 27.7105C20.0301 27.5894 20.018 27.4624 20.0313 27.3367C20.0446 27.2111 20.082 27.0893 20.1424 26.9784C20.2632 26.7541 20.4674 26.5865 20.7115 26.5123C20.9555 26.4381 21.2189 26.4632 21.4437 26.5823Z" fill="#31165F"/>
<path fill-rule="evenodd" clip-rule="evenodd" d="M21.3457 26.7632C21.4339 26.8113 21.5125 26.8765 21.5753 26.9551C21.6369 27.0336 21.684 27.1239 21.7106 27.2207C21.7384 27.3174 21.7457 27.4185 21.7324 27.5182C21.7203 27.6179 21.6876 27.7141 21.6369 27.801C21.5922 27.8909 21.5305 27.9709 21.4544 28.0363C21.3771 28.1017 21.2889 28.1511 21.1934 28.1817C21.098 28.2122 20.9965 28.2234 20.8963 28.2144C20.7972 28.2054 20.6993 28.1763 20.6111 28.1292C20.4359 28.0282 20.3078 27.8632 20.2523 27.669C20.1979 27.475 20.2209 27.2671 20.3163 27.0894C20.4118 26.9118 20.5724 26.7784 20.7646 26.7175C20.9579 26.6565 21.1657 26.6729 21.3457 26.7632Z" fill="url(#paint23_radial_4_226)"/>
<path fill-rule="evenodd" clip-rule="evenodd" d="M114.557 95.2556L114.894 94.6308L91.979 83.0972L91.6685 83.7316L114.557 95.2556Z" fill="#6F2561"/>
<path fill-rule="evenodd" clip-rule="evenodd" d="M111.413 47.0529L111.054 47.6616L133.404 60.2434L133.632 59.82L111.413 47.0529Z" fill="#6F2561"/>
<path fill-rule="evenodd" clip-rule="evenodd" d="M91.8956 52.4437L93.1015 50.2036L127.331 71.5261L126.492 73.0874L91.8956 52.4437Z" fill="url(#paint24_linear_4_226)"/>
<path fill-rule="evenodd" clip-rule="evenodd" d="M91.8956 52.4437L98.8984 58.2275L126.492 73.0874L91.8956 52.4437Z" fill="#FF4C61"/>
<path opacity="0.5" fill-rule="evenodd" clip-rule="evenodd" d="M94.1538 50.8583L120.397 57.9168L117.188 63.1747L122.778 66.273L121.804 68.0828L94.1538 50.8583Z" fill="#31165F"/>
<path d="M18.1851 44.957C18.1851 44.957 15.6273 43.8663 14.9677 41.4933L15.7143 40.2526C16.7244 41.5564 17.6643 42.9124 18.5306 44.3151L18.1851 44.957Z" fill="white"/>
<g style="mix-blend-mode:soft-light">
<path d="M93.0483 34.3973L83.7704 26.379L84.1207 25.7268L93.4639 33.6255L93.0483 34.3973Z" fill="white"/>
</g>
<path fill-rule="evenodd" clip-rule="evenodd" d="M47.3501 6.28626C47.3501 6.28626 48.6718 1.89263 51.7069 7.24929L47.3501 6.28626Z" fill="url(#paint25_linear_4_226)"/>
<path fill-rule="evenodd" clip-rule="evenodd" d="M22.0139 52.0939C22.0139 52.0939 21.1138 56.344 25.0683 55.1084L22.0139 52.0939Z" fill="url(#paint26_linear_4_226)"/>
<g style="mix-blend-mode:soft-light" opacity="0.5">
<path fill-rule="evenodd" clip-rule="evenodd" d="M107.445 81.0536C107.445 81.0536 70.7229 74.4566 45.2659 65.9055L45.2164 67.1654C45.2164 67.1654 83.571 81.6264 106.01 84.5304L107.445 81.0536Z" fill="white"/>
</g>
<g style="mix-blend-mode:soft-light">
<path fill-rule="evenodd" clip-rule="evenodd" d="M81.5703 24.7315L75.7068 20.0546L76.0415 19.4331L81.9049 24.11L81.5703 24.7315Z" fill="white"/>
</g>
<g style="mix-blend-mode:soft-light">
<path fill-rule="evenodd" clip-rule="evenodd" d="M69.9279 71.6324C69.9279 71.6324 70.5876 63.2481 73.445 56.4665C73.445 56.4665 71.4055 63.6581 69.9279 71.6324Z" fill="white"/>
</g>
<g style="mix-blend-mode:soft-light">
<path fill-rule="evenodd" clip-rule="evenodd" d="M62.1301 42.9205L86.1639 55.6557C86.1639 55.6557 77.71 50.5568 62.1301 42.9205Z" fill="white"/>
</g>
<g style="mix-blend-mode:soft-light">
<path fill-rule="evenodd" clip-rule="evenodd" d="M81.2018 73.6602C81.2018 73.6602 85.2033 55.0019 96.5291 41.152C96.546 41.1612 87.5848 51.109 81.2018 73.6602Z" fill="white"/>
</g>
<path fill-rule="evenodd" clip-rule="evenodd" d="M20.2596 36.1943C20.2596 36.1943 22.3172 34.4657 18.9547 30.9941C19.1758 32.7741 19.6144 34.5205 20.2596 36.1943Z" fill="white"/>
<g style="mix-blend-mode:soft-light">
<path fill-rule="evenodd" clip-rule="evenodd" d="M59.2812 39.2146C59.2812 39.2146 61.8498 33.7881 59.5554 24.4923C59.5385 24.4831 62.6799 31.0108 59.2812 39.2146Z" fill="white"/>
</g>
<g style="mix-blend-mode:soft-light">
<path fill-rule="evenodd" clip-rule="evenodd" d="M53.6171 38.7411C53.6171 38.7411 58.5466 35.4494 55.7471 29.8761C55.7568 29.8815 56.6001 33.4939 53.6171 38.7411Z" fill="white"/>
</g>
<g style="mix-blend-mode:soft-light" opacity="0.36">
<g style="mix-blend-mode:soft-light" opacity="0.36">
<path fill-rule="evenodd" clip-rule="evenodd" d="M63.3891 45.1623C63.4266 45.5348 63.4 46.1985 63.8603 46.3323C64.0766 46.3689 64.294 46.3934 64.5127 46.4057C64.7036 46.4426 64.8897 46.4988 65.0697 46.5736C65.3645 46.6959 65.6871 46.7311 66.0012 46.6746C66.203 46.62 66.1415 46.4152 66.052 46.2614C65.9771 46.0859 65.8575 45.9331 65.7052 45.8189C65.489 45.6993 65.286 45.5576 65.0999 45.3963C65.0287 45.3316 64.9888 45.2263 64.9115 45.158C64.8039 45.0842 64.6903 45.0225 64.5695 44.9742C64.3786 44.8774 64.1611 44.8434 63.9497 44.8771C63.7371 44.911 63.5413 45.0107 63.3891 45.1623Z" fill="white"/>
</g>
<g style="mix-blend-mode:soft-light" opacity="0.36">
<path fill-rule="evenodd" clip-rule="evenodd" d="M66.2188 48.1216C66.1608 48.1149 66.1064 48.0911 66.0629 48.0532C66.0182 48.0154 65.9868 47.9653 65.9711 47.9093C66.1922 47.4995 67.0754 47.79 67.0222 48.2552C66.9642 48.7966 66.3347 48.5277 66.145 48.2495L66.2188 48.1216Z" fill="white"/>
</g>
<g style="mix-blend-mode:soft-light" opacity="0.36">
<path fill-rule="evenodd" clip-rule="evenodd" d="M67.2759 58.3951C67.288 58.1283 67.2432 57.8752 67.4245 57.669C67.5767 57.5005 67.7796 57.3855 68.002 57.3412C68.2762 57.299 68.5578 57.3164 68.8248 57.3922C68.9589 57.397 69.0882 57.4408 69.1969 57.518C69.6041 57.8999 69.6391 58.6367 69.5461 59.1371C69.5074 59.4291 69.4361 59.7157 69.3322 59.9912C69.2356 60.1723 69.1788 60.3753 69.1136 60.5695C69.0834 60.7375 69.0181 60.8973 68.9226 61.0391C68.8091 61.1375 68.6822 61.2173 68.5445 61.2758C68.3669 61.3654 68.1711 61.4101 67.973 61.4062C67.7748 61.4024 67.5803 61.3499 67.4063 61.2536C66.801 60.8969 66.7092 59.8823 66.7297 59.2375C66.7515 58.7158 66.8518 57.9154 67.2759 58.3951Z" fill="white"/>
</g>
<g style="mix-blend-mode:soft-light" opacity="0.36">
<path fill-rule="evenodd" clip-rule="evenodd" d="M67.491 55.9826C67.6348 56.1345 67.6613 56.2151 67.851 56.1323C67.9114 56.0939 67.9622 56.043 68.0009 55.9831C68.0383 55.9232 68.0637 55.8556 68.0734 55.785C68.1193 55.5279 67.9405 55.0748 67.636 55.109C67.4826 55.1321 67.1769 55.2183 67.0718 55.3383C67.0065 55.4963 66.9981 55.6725 67.05 55.8357C67.102 55.9989 67.2095 56.1386 67.3545 56.2301L67.491 55.9826Z" fill="white"/>
</g>
<g style="mix-blend-mode:soft-light" opacity="0.36">
<path fill-rule="evenodd" clip-rule="evenodd" d="M77.9383 51.0548C78.0157 51.1324 78.1051 51.1958 78.2042 51.2416C78.4434 51.3703 78.6814 51.499 78.9243 51.6295C79.3749 51.8723 79.7917 52.185 80.2533 52.4332C80.5867 52.6024 80.9335 52.7434 81.29 52.855C81.4724 52.9216 81.6572 52.9787 81.8457 53.0262C81.865 52.9888 81.7769 52.9322 81.7491 52.895C81.6536 52.7688 81.5316 52.6593 81.447 52.5301C81.2586 52.2346 81.0555 51.9317 80.8453 51.6512C80.7982 51.6047 80.7571 51.5529 80.7221 51.4965C80.6882 51.4209 80.6689 51.3265 80.6399 51.2493C80.588 51.1028 80.513 50.9658 80.4176 50.8435C80.1747 50.5797 79.8775 50.3727 79.5453 50.2376C79.4402 50.1805 79.3242 50.1579 79.2203 50.1062C79.1067 50.0446 78.9883 49.9899 78.8675 49.9428C78.6065 49.8623 78.331 49.8341 78.0579 49.8594C77.7438 49.8707 77.2376 49.805 77.0008 50.0824C76.8848 50.2144 77.0213 50.3624 77.1313 50.4525C77.2412 50.5426 77.4273 50.6471 77.5711 50.7556C77.7161 50.8642 77.983 51.1048 77.9383 51.0548Z" fill="white"/>
</g>
<g style="mix-blend-mode:soft-light" opacity="0.36">
<path fill-rule="evenodd" clip-rule="evenodd" d="M75.981 49.578C75.9049 49.4489 75.7262 49.2336 75.8784 49.082C76.0306 48.9304 76.2481 49.0568 76.3725 49.1456C76.6613 49.3625 76.1285 49.5997 75.9243 49.4547L75.981 49.578Z" fill="white"/>
</g>
<g style="mix-blend-mode:soft-light" opacity="0.36">
<path fill-rule="evenodd" clip-rule="evenodd" d="M79.6274 47.533C79.6999 47.6613 79.8135 47.7615 79.95 47.8169C80.0443 47.8483 80.1481 47.8421 80.2375 47.7996C80.3282 47.7572 80.3983 47.6815 80.4345 47.5886C80.5904 47.2983 80.6375 47.0638 80.3886 46.8549C80.2847 46.7906 80.1687 46.7492 80.0466 46.7332C79.9258 46.7173 79.8026 46.7273 79.6854 46.7625C79.5924 46.7989 79.5138 46.8647 79.4607 46.95C79.3652 47.1277 79.4425 47.2792 79.5368 47.4313L79.6274 47.533Z" fill="white"/>
</g>
<g style="mix-blend-mode:soft-light" opacity="0.36">
<path fill-rule="evenodd" clip-rule="evenodd" d="M92.1699 45.8476C92.1868 45.2967 92.2702 44.7499 92.4164 44.2187C92.5904 43.7714 92.7885 43.3342 93.012 42.9093C93.2331 42.2835 93.4095 41.6429 93.5412 40.9922C93.6596 40.4209 93.9157 39.8875 94.2891 39.4393C94.4437 39.2587 94.6334 39.1115 94.8461 39.0066C95.0599 38.9019 95.2919 38.8416 95.5287 38.8295C95.8163 38.841 96.1002 38.9011 96.3672 39.0075C96.4869 39.0719 96.6088 39.1068 96.7284 39.1538C96.807 39.1716 96.8832 39.1978 96.9556 39.2319C97.068 39.2926 97.0426 39.3403 96.9846 39.4462C96.8976 39.6384 96.7526 39.7989 96.5702 39.9056C96.2669 40.1109 96.0023 40.3677 95.7873 40.6645C95.5674 40.9425 95.3378 41.1975 95.136 41.4899L94.5344 42.3375C94.358 42.5769 94.1731 42.8125 93.9979 43.0571C93.8215 43.3017 93.6802 43.5559 93.5243 43.8062C93.3672 44.0566 93.2923 44.2365 93.1763 44.4516C93.1026 44.5882 93.0096 44.7052 92.9359 44.8417C92.8791 44.9472 92.8151 45.048 92.7426 45.143C92.6834 45.2415 92.629 45.3429 92.5795 45.4469C92.4575 45.5953 92.3209 45.7297 92.1699 45.8476Z" fill="white"/>
</g>
<g style="mix-blend-mode:soft-light" opacity="0.36">
<path fill-rule="evenodd" clip-rule="evenodd" d="M91.7917 42.0585C91.811 42.1529 91.8111 42.2673 91.8836 42.3286C91.9246 42.3592 91.9693 42.3834 92.0164 42.4003C92.2315 42.4589 92.4164 42.14 92.5009 41.9829C92.7655 41.5325 92.8501 40.9989 92.7377 40.4891C92.6967 40.3152 92.6157 40.1532 92.5021 40.0156C92.3886 39.878 92.2448 39.7683 92.0817 39.6952C91.6323 39.5636 91.1719 39.8794 90.8843 40.2091C90.5968 40.5387 90.3334 41.0045 90.4591 41.4248C90.4941 41.5729 90.5786 41.7049 90.697 41.7999C90.807 41.8523 90.9182 41.8982 91.0329 41.9367C91.1767 42.0139 91.2589 42.1552 91.4401 42.1556C91.5646 42.1615 91.6878 42.1275 91.7917 42.0585Z" fill="white"/>
</g>
<g style="mix-blend-mode:soft-light" opacity="0.36">
<path fill-rule="evenodd" clip-rule="evenodd" d="M93.2319 39.4558C93.1848 39.4509 93.1413 39.4311 93.1063 39.3995C93.07 39.368 93.0459 39.326 93.0362 39.2799C93.0084 39.2347 92.9963 39.1815 93.0024 39.1288C93.0084 39.0761 93.0326 39.0271 93.0688 38.9894C93.1002 38.9547 93.1389 38.927 93.1812 38.9084C93.2247 38.8899 93.2706 38.8807 93.3177 38.8817C93.3648 38.8825 93.4107 38.8935 93.453 38.9138C93.4941 38.934 93.5316 38.9631 93.5618 38.999C93.5944 39.0551 93.6125 39.1184 93.615 39.1834C93.6174 39.2483 93.6028 39.3127 93.5726 39.3708C93.5424 39.4336 93.4929 39.4844 93.4301 39.5146C93.3673 39.5449 93.296 39.5529 93.2283 39.5373L93.2319 39.4558Z" fill="white"/>
</g>
<g style="mix-blend-mode:soft-light" opacity="0.36">
<path fill-rule="evenodd" clip-rule="evenodd" d="M85.6709 31.0367C85.6347 31.203 85.6637 31.377 85.7543 31.5216C85.7701 31.5644 85.799 31.6016 85.8352 31.6287C85.8727 31.6557 85.9175 31.6712 85.9622 31.6736C86.2715 31.6704 86.5675 31.5569 86.7994 31.3537C86.8743 31.283 86.9348 31.1981 86.9758 31.104C87.0181 31.01 87.0399 30.9086 87.0423 30.8057C87.0169 30.6235 86.9638 30.4462 86.884 30.2804C86.8284 30.1312 86.7632 29.9904 86.681 29.8404C86.6448 29.7129 86.5686 29.6004 86.4647 29.5194C86.3596 29.4385 86.2315 29.3934 86.0998 29.3907C85.9561 29.4051 85.8184 29.4544 85.6987 29.5342C85.5791 29.6141 85.4813 29.7222 85.4124 29.8489C85.3363 30.0294 85.3049 30.2253 85.3206 30.4205C85.3339 30.6257 85.3109 30.7985 85.6709 31.0367Z" fill="white"/>
</g>
<g style="mix-blend-mode:soft-light" opacity="0.36">
<path fill-rule="evenodd" clip-rule="evenodd" d="M86.1651 32.4432C86.2448 32.3179 86.3487 32.2091 86.4696 32.1227C86.5276 32.154 86.5964 32.0988 86.6507 32.163C86.7039 32.227 86.6121 32.3978 86.5686 32.471C86.5118 32.568 86.4212 32.6403 86.3137 32.6733C86.2738 32.6825 86.1058 32.733 86.1409 32.6421L86.1651 32.4432Z" fill="white"/>
</g>
<g style="mix-blend-mode:soft-light" opacity="0.36">
<path fill-rule="evenodd" clip-rule="evenodd" d="M87.3721 48.3296C87.4748 48.4906 87.5896 48.671 87.8324 48.6124C87.9339 48.5678 88.0209 48.4937 88.0801 48.3998C88.1406 48.3058 88.1708 48.1962 88.1683 48.0847C88.1792 47.9757 88.1877 47.8528 88.0959 47.7858C88.0052 47.7189 87.888 47.6737 87.7853 47.6184C87.5437 47.4879 87.505 47.1415 87.1534 47.2384C87.07 47.265 86.9939 47.3093 86.9299 47.3682C86.8659 47.427 86.814 47.499 86.7801 47.5794C86.6943 47.8545 86.8828 48.1186 87.0447 48.3162L87.3721 48.3296Z" fill="white"/>
</g>
<g style="mix-blend-mode:soft-light" opacity="0.36">
<path fill-rule="evenodd" clip-rule="evenodd" d="M85.6563 72.975C85.5681 73.2856 85.5694 73.6131 85.6576 73.9225L85.7639 73.9805C85.8304 74.0687 85.9161 74.1412 86.014 74.1944C86.1119 74.2463 86.2194 74.2777 86.3306 74.285C87.0362 74.291 87.2838 73.6759 87.5653 73.1442C87.8469 72.6137 88.3205 71.8898 87.4035 71.7351C86.9975 71.6711 86.3185 71.5176 85.9186 71.7291C85.7035 71.8415 85.7132 71.9623 85.683 72.1653C85.6117 72.4445 85.5947 72.7345 85.6334 73.0197L85.6563 72.975Z" fill="white"/>
</g>
<g style="mix-blend-mode:soft-light" opacity="0.36">
<path fill-rule="evenodd" clip-rule="evenodd" d="M90.0205 66.9561C89.9178 66.7865 89.6918 66.502 89.7873 66.267C89.8827 66.0322 90.0035 66.0707 90.1654 65.9905C90.5207 65.8122 90.9351 65.6824 91.1442 66.1607C91.1852 66.2887 91.1961 66.4244 91.1768 66.5574C91.1574 66.6904 91.1066 66.8171 91.0305 66.9277C90.8952 67.0971 90.499 67.2934 90.3141 67.1142L90.0205 66.9561Z" fill="white"/>
</g>
<g style="mix-blend-mode:soft-light" opacity="0.36">
<path fill-rule="evenodd" clip-rule="evenodd" d="M55.7146 13.5566C56.0287 13.9948 56.0432 14.0248 56.5386 14.1368C56.9083 14.2667 57.3046 14.3032 57.6924 14.2429C58.218 14.0853 58.3582 13.6107 58.6675 13.2487C58.7871 13.1459 58.8777 13.0133 58.9308 12.8644C58.9828 12.7156 58.9948 12.5556 58.9658 12.4005C58.8885 11.9935 58.7363 11.6042 58.5188 11.2521C58.1394 10.7147 57.6465 10.2673 57.0751 9.94139C56.5048 9.61559 55.868 9.41933 55.2132 9.36652C54.4121 9.30924 53.4371 9.34392 52.833 9.97474C52.5732 10.2326 52.3884 10.5559 52.2966 10.9103C52.2047 11.2649 52.2108 11.6376 52.3135 11.9891C52.4439 12.329 52.6542 12.6323 52.926 12.874C53.1979 13.1156 53.5241 13.2884 53.8769 13.3779L54.3807 13.4903C54.5801 13.5737 54.7709 13.6765 54.951 13.7974C55.1684 13.8751 55.4125 13.8563 55.7146 13.5566Z" fill="white"/>
</g>
<g style="mix-blend-mode:soft-light" opacity="0.36">
<path fill-rule="evenodd" clip-rule="evenodd" d="M56.7295 15.6229C57.2937 15.3936 57.1825 15.4268 57.6344 15.5775C57.8301 15.6475 57.9087 15.5927 58.0573 15.7256C58.1491 15.8335 58.2059 15.9666 58.2216 16.1076C58.2373 16.2486 58.2096 16.3909 58.1419 16.5159C58.0489 16.6901 57.5619 16.776 57.3952 16.7744C57.2925 16.7784 57.191 16.752 57.1028 16.6983C57.0158 16.6448 56.9457 16.5665 56.901 16.4732L56.7295 15.6229Z" fill="white"/>
</g>
<g style="mix-blend-mode:soft-light" opacity="0.36">
<path fill-rule="evenodd" clip-rule="evenodd" d="M34.3897 56.8949C34.6857 57.1641 35.0518 57.5153 35.5169 57.2553C35.8262 57.0737 35.8842 56.5722 35.8311 56.2392C35.6909 55.6682 35.3719 55.157 34.9201 54.7801C34.5032 54.4759 33.7312 54.7648 33.4557 55.1538C32.8951 55.949 33.9813 57.1151 34.5709 57.5164L34.3897 56.8949Z" fill="white"/>
</g>
<g style="mix-blend-mode:soft-light" opacity="0.36">
<path fill-rule="evenodd" clip-rule="evenodd" d="M37.9527 59.5708C37.827 59.5652 37.4307 59.6158 37.3256 59.5155C37.2676 59.4842 37.3038 59.3933 37.27 59.3402C37.2096 59.253 37.1673 59.1536 37.148 59.0489C37.1286 58.9441 37.1311 58.8363 37.1564 58.7329C37.2156 58.5231 37.3413 58.3384 37.5153 58.2075C37.6893 58.0767 37.9019 58.0068 38.1194 58.0089C38.2607 57.9892 38.4057 58.0219 38.5253 58.1009C38.645 58.1799 38.7308 58.2997 38.7694 58.4381C38.8202 58.6232 38.8008 58.8208 38.715 58.9925C38.6292 59.1644 38.4818 59.2982 38.303 59.368L37.9527 59.5708Z" fill="white"/>
</g>
<g style="mix-blend-mode:soft-light" opacity="0.36">
<path fill-rule="evenodd" clip-rule="evenodd" d="M103.191 46.2106C103.66 46.7839 104.304 47.1879 105.024 47.361C105.482 47.5016 106.056 47.7358 106.481 47.3877C107.475 46.5711 105.684 44.5664 105.077 43.9893C104.553 43.4841 103.928 43.0951 103.244 42.8475C102.835 42.7154 101.936 42.6102 101.547 42.876C101.045 43.2183 101.049 43.9299 101.271 44.4016C101.757 45.5442 102.958 45.9485 103.76 46.7813L103.191 46.2106Z" fill="white"/>
</g>
<g style="mix-blend-mode:soft-light" opacity="0.36">
<path fill-rule="evenodd" clip-rule="evenodd" d="M102.754 46.671C102.634 46.9382 102.553 47.2207 102.513 47.5105C102.526 47.6671 102.542 47.914 102.671 48.036C102.761 48.0951 102.865 48.1304 102.974 48.1384C103.081 48.1465 103.19 48.1273 103.288 48.0824C103.363 48.0611 103.43 48.0217 103.486 47.9676C103.542 47.9135 103.582 47.8465 103.604 47.7726C103.619 47.6569 103.528 47.5065 103.48 47.4062C103.389 47.2223 103.277 47.0495 103.145 46.8912C103.093 46.8079 103.031 46.7315 102.96 46.6634C102.838 46.5626 102.741 46.6291 102.616 46.6062L102.754 46.671Z" fill="white"/>
</g>
<g style="mix-blend-mode:soft-light" opacity="0.36">
<path fill-rule="evenodd" clip-rule="evenodd" d="M107.867 50.187L108.215 49.9337C108.338 50.0313 108.523 50.0646 108.54 50.2455C108.523 50.4177 108.448 50.5792 108.329 50.7041C108.268 50.7659 108.188 50.8057 108.103 50.8169C108.017 50.8281 107.93 50.8102 107.855 50.7663C107.67 50.6669 107.689 50.4523 107.749 50.2685L107.867 50.187Z" fill="white"/>
</g>
<g style="mix-blend-mode:soft-light" opacity="0.36">
<path fill-rule="evenodd" clip-rule="evenodd" d="M106.421 70.4232C106.47 70.4989 106.544 70.5563 106.629 70.587C106.713 70.6178 106.806 70.6201 106.893 70.5937C107.041 70.5593 107.17 70.4702 107.256 70.3444C107.34 70.2185 107.374 70.0651 107.351 69.9152C107.281 69.481 106.932 68.8527 106.474 68.7208C106.189 68.6376 105.707 68.8139 105.719 69.1595C105.719 69.3542 105.741 69.5483 105.786 69.7377C105.904 70.0164 106.11 70.2485 106.374 70.3975L106.421 70.4232Z" fill="white"/>
</g>
<g style="mix-blend-mode:soft-light" opacity="0.36">
<path fill-rule="evenodd" clip-rule="evenodd" d="M27.7831 11.3025C27.8315 11.4827 27.8339 11.5677 27.9716 11.6812C28.1142 11.8221 28.3063 11.902 28.508 11.9039C28.9768 11.8005 29.3973 11.538 29.6958 11.1609C29.8166 11.0367 29.9072 10.8863 29.9603 10.7215C30.0123 10.5565 30.0267 10.3816 30.0002 10.2104C29.9845 10.0102 29.9253 9.81571 29.8275 9.64012C29.7296 9.46453 29.5955 9.31178 29.4348 9.19214C29.2874 9.0574 29.1001 8.97244 28.9019 8.94936C28.7038 8.92616 28.5032 8.96604 28.328 9.0632C27.9559 9.23601 27.6224 9.48411 27.3506 9.79191C27.2527 9.91481 27.1863 10.0589 27.1561 10.2123C27.1259 10.3658 27.1319 10.5244 27.1742 10.6751C27.2358 10.977 27.4038 11.4194 27.7831 11.3025Z" fill="white"/>
</g>
<g style="mix-blend-mode:soft-light" opacity="0.36">
<path fill-rule="evenodd" clip-rule="evenodd" d="M30.475 9.20616C30.3723 9.15093 30.2527 9.08665 30.2793 8.97293C30.3252 8.87951 30.3905 8.79637 30.4702 8.72869C30.5499 8.66102 30.6417 8.61014 30.742 8.57909C30.8991 8.54295 31.0634 8.56579 31.2047 8.6435C31.2821 8.72253 31.328 8.82694 31.3328 8.93716C31.3498 9.01704 31.3413 9.1003 31.3087 9.17498C31.2748 9.24979 31.2193 9.31214 31.1492 9.35323C31.0477 9.40918 30.8194 9.56363 30.7118 9.46139L30.475 9.20616Z" fill="white"/>
</g>
<g style="mix-blend-mode:soft-light" opacity="0.36">
<path fill-rule="evenodd" clip-rule="evenodd" d="M13.1082 10.6761C13.2483 10.7784 13.4199 10.8272 13.5927 10.814C13.908 10.7911 14.2137 10.6964 14.4856 10.5373C14.8565 10.3503 15.1573 10.0493 15.3446 9.67831C15.3869 9.52954 15.3856 9.37147 15.3409 9.22344C15.295 9.07552 15.208 8.9438 15.0884 8.84458C14.7779 8.63443 14.4022 8.54126 14.0276 8.58174C13.6942 8.62742 13.3752 8.75237 13.0997 8.94633C12.823 9.14029 12.5983 9.39746 12.4413 9.69631C12.1416 10.3935 13.1154 10.9488 13.1082 10.6761Z" fill="white"/>
</g>
<g style="mix-blend-mode:soft-light" opacity="0.36">
<path fill-rule="evenodd" clip-rule="evenodd" d="M16.9902 9.03589C16.8875 9.0725 16.7763 9.08 16.67 9.0574C16.6784 8.9345 16.589 8.84676 16.6059 8.71891C16.6361 8.59444 16.7135 8.48652 16.821 8.41655C16.8875 8.36785 16.966 8.33776 17.0481 8.3293C17.1303 8.32084 17.2124 8.33425 17.2874 8.36821C17.4577 8.46006 17.4649 8.53836 17.4613 8.71697C17.4577 8.89558 17.4698 8.88036 17.3345 8.95263C17.2523 9.00471 17.1653 9.04798 17.0747 9.08181L16.9902 9.03589Z" fill="white"/>
</g>
</g>
<path fill-rule="evenodd" clip-rule="evenodd" d="M81.3008 71.8802C81.836 72.169 82.1031 72.7225 81.8916 73.1152C81.6802 73.508 81.0725 73.5901 80.536 73.3013C79.9996 73.0125 79.7374 72.4614 79.9488 72.0687C80.1602 71.6759 80.7644 71.5925 81.3008 71.8802Z" fill="url(#paint27_linear_4_226)"/>
<path fill-rule="evenodd" clip-rule="evenodd" d="M81.2198 72.0312C81.6439 72.2584 81.8505 72.6922 81.6838 73.0028C81.5158 73.3134 81.041 73.3786 80.6169 73.1515C80.194 72.9231 79.9862 72.4904 80.1542 72.1786C80.3209 71.8681 80.8005 71.8052 81.2198 72.0312Z" fill="white"/>
<path fill-rule="evenodd" clip-rule="evenodd" d="M94.5586 42.3991C94.8027 42.502 94.9971 42.6967 95.0986 42.9412C95.2013 43.1857 95.2038 43.4605 95.1059 43.7066C94.9537 43.9241 94.7241 44.0735 94.4631 44.1227C94.2033 44.172 93.9339 44.1171 93.7128 43.9699C93.4688 43.8669 93.2743 43.6721 93.1716 43.4273C93.0689 43.1826 93.0652 42.9075 93.1631 42.6606C93.3153 42.4433 93.5473 42.2942 93.8083 42.2453C94.068 42.1965 94.3387 42.2517 94.5586 42.3991Z" fill="url(#paint28_linear_4_226)"/>
<path fill-rule="evenodd" clip-rule="evenodd" d="M94.4679 42.5664C94.6612 42.6476 94.8134 42.8009 94.8944 42.9934C94.9753 43.1858 94.9778 43.4022 94.9004 43.5964C94.7808 43.7673 94.5984 43.8846 94.3942 43.9232C94.1888 43.9617 93.9762 43.9185 93.8034 43.8026C93.6113 43.7215 93.4578 43.5683 93.3769 43.3757C93.2959 43.1832 93.2947 42.9668 93.3708 42.7727C93.4905 42.6017 93.6729 42.4844 93.8771 42.4458C94.0825 42.4073 94.2952 42.4507 94.4679 42.5664Z" fill="white"/>
<path d="M87.7104 57.1012C88.0028 56.5581 87.8046 55.8832 87.267 55.5937C86.7293 55.3043 86.0564 55.5101 85.764 56.0532C85.4716 56.5964 85.671 57.2713 86.2086 57.5606C86.7451 57.8501 87.418 57.6444 87.7104 57.1012Z" fill="url(#paint29_linear_4_226)"/>
<path fill-rule="evenodd" clip-rule="evenodd" d="M87.1546 55.802C87.3576 55.9137 87.5086 56.1013 87.5739 56.3238C87.6391 56.5462 87.6125 56.7854 87.5026 56.989C87.3938 57.1936 87.2078 57.3467 86.9866 57.4148C86.7643 57.4829 86.5251 57.4605 86.3197 57.3524C86.1167 57.2406 85.9669 57.0531 85.9017 56.8306C85.8364 56.6081 85.8618 56.369 85.973 56.1653C86.0817 55.9607 86.2678 55.8076 86.4889 55.7396C86.71 55.6714 86.9492 55.6939 87.1546 55.802Z" fill="white"/>
<path style="mix-blend-mode:screen" d="M87.7346 49.8328C88.5743 49.9363 89.385 50.2055 90.1196 50.6247C90.8542 51.044 91.4981 51.6049 92.014 52.275C92.5311 52.9453 92.9093 53.7113 93.1268 54.5288C93.3455 55.3462 93.3986 56.1989 93.2851 57.0373C93.07 58.7394 92.1916 60.2882 90.8433 61.3475C89.4937 62.4068 87.7817 62.8916 86.0769 62.6965C85.2372 62.5925 84.4276 62.3231 83.6931 61.9036C82.9585 61.4843 82.3145 60.9233 81.7986 60.2532C81.2815 59.5831 80.9034 58.8173 80.6859 58C80.4672 57.1829 80.4128 56.3303 80.5264 55.4921C80.7414 53.7899 81.6186 52.2412 82.9682 51.1819C84.3177 50.1224 86.0298 49.6378 87.7346 49.8328Z" fill="url(#paint30_radial_4_226)"/>
<path style="mix-blend-mode:screen" d="M49.7774 0.959572C50.4467 1.04223 51.0943 1.25698 51.6803 1.59148C52.2663 1.92586 52.781 2.37336 53.193 2.90786C53.605 3.44249 53.907 4.05349 54.0822 4.7057C54.2562 5.35779 54.2998 6.03816 54.2091 6.70717C54.0364 8.06573 53.3355 9.30127 52.2578 10.1465C51.1801 10.9918 49.8136 11.3786 48.4532 11.2235C47.7838 11.1401 47.1375 10.9247 46.5515 10.5899C45.9643 10.2549 45.4508 9.80714 45.0388 9.27227C44.6268 8.73752 44.3247 8.12627 44.1508 7.47406C43.9768 6.82173 43.9333 6.14149 44.0227 5.47236C44.1967 4.1144 44.8974 2.87934 45.9739 2.03474C47.0516 1.19002 48.4169 0.8038 49.7774 0.959572Z" fill="url(#paint31_radial_4_226)"/>
<path style="mix-blend-mode:screen" d="M6.07639 8.84967C6.74574 8.93233 7.39335 9.14707 7.97933 9.48146C8.56532 9.81596 9.07996 10.2633 9.49196 10.798C9.90396 11.3325 10.206 11.9436 10.3812 12.5958C10.5552 13.2479 10.5987 13.9283 10.5081 14.5973C10.3377 15.9566 9.63698 17.1934 8.55925 18.039C7.48153 18.8847 6.11383 19.2708 4.75218 19.1134C4.08283 19.0308 3.43642 18.816 2.84923 18.4816C2.26325 18.1471 1.74974 17.6998 1.33653 17.1651C0.924532 16.6305 0.622497 16.0195 0.448514 15.3673C0.273324 14.7152 0.229806 14.0348 0.320422 13.3658C0.493196 12.0069 1.19398 10.7708 2.27049 9.92533C3.34822 9.07988 4.71594 8.69341 6.07639 8.84967Z" fill="url(#paint32_radial_4_226)"/>
<path style="mix-blend-mode:screen" d="M23.3019 51.2408C23.6475 51.2835 23.9821 51.3944 24.2854 51.5671C24.5874 51.7399 24.8533 51.971 25.0671 52.2471C25.2798 52.5233 25.4356 52.8388 25.5262 53.1757C25.6168 53.5126 25.6386 53.8641 25.5927 54.2097C25.5033 54.9122 25.1408 55.5512 24.5838 55.9884C24.0281 56.4258 23.3212 56.6259 22.6181 56.5455C22.2713 56.5026 21.9367 56.3914 21.6346 56.2184C21.3314 56.0453 21.0655 55.8139 20.8529 55.5374C20.6402 55.2609 20.4843 54.945 20.3937 54.6079C20.3043 54.2707 20.2814 53.919 20.3285 53.5732C20.4192 52.8718 20.7804 52.2338 21.3374 51.7973C21.8931 51.3608 22.5988 51.1609 23.3019 51.2408Z" fill="url(#paint33_radial_4_226)"/>
<path style="mix-blend-mode:screen" d="M94.2142 41.1653C94.5392 41.2042 94.8534 41.3074 95.1385 41.4688C95.4224 41.6302 95.6726 41.8464 95.8731 42.1052C96.0737 42.3639 96.2199 42.66 96.3057 42.976C96.3902 43.292 96.412 43.6218 96.3685 43.9461C96.2863 44.6031 95.948 45.2008 95.4273 45.6091C94.9054 46.0176 94.2444 46.2034 93.5872 46.1265C93.2634 46.0868 92.9516 45.9833 92.6689 45.822C92.385 45.6607 92.1373 45.4448 91.938 45.1869C91.7386 44.9289 91.5937 44.6339 91.5091 44.3191C91.4245 44.0044 91.4039 43.6759 91.4474 43.353C91.5284 42.6979 91.8643 42.1012 92.3826 41.6917C92.8997 41.2824 93.5582 41.0933 94.2142 41.1653Z" fill="url(#paint34_radial_4_226)"/>
<path style="mix-blend-mode:screen" d="M80.9939 70.5699C81.3177 70.6098 81.6294 70.7136 81.9121 70.8747C82.196 71.0366 82.4437 71.253 82.6431 71.5116C82.8425 71.7702 82.9874 72.065 83.072 72.3805C83.1554 72.6947 83.1759 73.0234 83.1324 73.3472C83.049 74.0034 82.7107 74.6004 82.1912 75.0089C81.6717 75.4173 81.0108 75.6034 80.3547 75.5285C80.0309 75.4886 79.718 75.3847 79.4341 75.224C79.1514 75.0621 78.9024 74.8457 78.7031 74.5871C78.5037 74.3285 78.3575 74.0336 78.2742 73.7182C78.1896 73.4028 78.1691 73.0741 78.2126 72.7502C78.296 72.094 78.6342 71.4971 79.155 71.0886C79.6757 70.6804 80.3366 70.494 80.9939 70.5699Z" fill="url(#paint35_radial_4_226)"/>
<defs>
<linearGradient id="paint0_linear_4_226" x1="166.708" y1="96.2393" x2="119.07" y2="70.5967" gradientUnits="userSpaceOnUse">
<stop stop-opacity="0"/>
<stop offset="1" stop-color="#106D90"/>
</linearGradient>
<linearGradient id="paint1_linear_4_226" x1="135.877" y1="55.6504" x2="103.982" y2="38.482" gradientUnits="userSpaceOnUse">
<stop stop-color="#A43440"/>
<stop offset="1" stop-color="#C73634"/>
</linearGradient>
<linearGradient id="paint2_linear_4_226" x1="112.313" y1="99.426" x2="80.4182" y2="82.2569" gradientUnits="userSpaceOnUse">
<stop stop-color="#A43440"/>
<stop offset="1" stop-color="#C73634"/>
</linearGradient>
<radialGradient id="paint3_radial_4_226" cx="0" cy="0" r="1" gradientUnits="userSpaceOnUse" gradientTransform="translate(38.8226 24.4088) rotate(-61.7071) scale(41.1621 74.276)">
<stop stop-color="#F4BAB3"/>
<stop offset="0.77" stop-color="#8D6FC7"/>
<stop offset="0.96" stop-color="#B695E5"/>
</radialGradient>
<radialGradient id="paint4_radial_4_226" cx="0" cy="0" r="1" gradientUnits="userSpaceOnUse" gradientTransform="translate(4.40784 13.2892) rotate(-61.7071) scale(11.0642 9.86987)">
<stop offset="0.02" stop-color="#AB5E75"/>
<stop offset="0.25" stop-color="#9F577B"/>
<stop offset="0.67" stop-color="#7F458C"/>
<stop offset="0.99" stop-color="#61349C"/>
</radialGradient>
<linearGradient id="paint5_linear_4_226" x1="6.57778" y1="14.4541" x2="2.59273" y2="12.3091" gradientUnits="userSpaceOnUse">
<stop stop-color="#FFFF18"/>
<stop offset="1" stop-color="#FF7400"/>
</linearGradient>
<radialGradient id="paint6_radial_4_226" cx="0" cy="0" r="1" gradientUnits="userSpaceOnUse" gradientTransform="translate(90.4578 60.001) rotate(-61.7071) scale(19.5453 35.4458)">
<stop offset="0.02" stop-color="#8881BC"/>
<stop offset="0.29" stop-color="#8375B7"/>
<stop offset="0.77" stop-color="#7555AA"/>
<stop offset="0.99" stop-color="#6D43A3"/>
</radialGradient>
<radialGradient id="paint7_radial_4_226" cx="0" cy="0" r="1" gradientUnits="userSpaceOnUse" gradientTransform="translate(42.5269 34.082) rotate(-61.7071) scale(20.7835 20.5773)">
<stop offset="0.02" stop-color="#8881BC"/>
<stop offset="0.29" stop-color="#8375B7"/>
<stop offset="0.77" stop-color="#7555AA"/>
<stop offset="0.99" stop-color="#6D43A3"/>
</radialGradient>
<radialGradient id="paint8_radial_4_226" cx="0" cy="0" r="1" gradientUnits="userSpaceOnUse" gradientTransform="translate(24.7952 25.5158) rotate(-61.7071) scale(25.8572 42.7057)">
<stop offset="0.02" stop-color="#725EB0"/>
<stop offset="0.38" stop-color="#6D52AA"/>
<stop offset="0.99" stop-color="#61349C"/>
</radialGradient>
<linearGradient id="paint9_linear_4_226" x1="53.1616" y1="39.2758" x2="25.3" y2="24.278" gradientUnits="userSpaceOnUse">
<stop stop-color="#FFFF29"/>
<stop offset="1" stop-color="#FF7E59"/>
</linearGradient>
<radialGradient id="paint10_radial_4_226" cx="0" cy="0" r="1" gradientUnits="userSpaceOnUse" gradientTransform="translate(116.759 73.7835) rotate(-61.7071) scale(7.67811 13.9243)">
<stop offset="0.02" stop-color="#725EB0"/>
<stop offset="0.38" stop-color="#6D52AA"/>
<stop offset="0.99" stop-color="#61349C"/>
</radialGradient>
<radialGradient id="paint11_radial_4_226" cx="0" cy="0" r="1" gradientUnits="userSpaceOnUse" gradientTransform="translate(19.113 21.2755) rotate(-61.7071) scale(14.1498 14.0093)">
<stop offset="0.02" stop-color="#8881BC"/>
<stop offset="0.29" stop-color="#8375B7"/>
<stop offset="0.77" stop-color="#7555AA"/>
<stop offset="0.99" stop-color="#6D43A3"/>
</radialGradient>
<linearGradient id="paint12_linear_4_226" x1="77.2303" y1="53.4576" x2="75.5508" y2="52.5533" gradientUnits="userSpaceOnUse">
<stop stop-color="#8DC7FF"/>
<stop offset="0.32" stop-color="#5C4D86"/>
</linearGradient>
<radialGradient id="paint13_radial_4_226" cx="0" cy="0" r="1" gradientUnits="userSpaceOnUse" gradientTransform="translate(76.9162 53.4776) rotate(-61.7067) scale(0.763463 0.755897)">
<stop offset="0.02" stop-color="#8881BC"/>
<stop offset="0.29" stop-color="#8375B7"/>
<stop offset="0.77" stop-color="#7555AA"/>
<stop offset="1" stop-color="#6D43A3"/>
</radialGradient>
<linearGradient id="paint14_linear_4_226" x1="73.0862" y1="51.2256" x2="71.403" y2="50.3194" gradientUnits="userSpaceOnUse">
<stop stop-color="#8DC7FF"/>
<stop offset="0.32" stop-color="#5C4D86"/>
</linearGradient>
<radialGradient id="paint15_radial_4_226" cx="0" cy="0" r="1" gradientUnits="userSpaceOnUse" gradientTransform="translate(72.7552 51.2361) rotate(-61.7075) scale(0.763457 0.755875)">
<stop offset="0.02" stop-color="#8881BC"/>
<stop offset="0.29" stop-color="#8375B7"/>
<stop offset="0.77" stop-color="#7555AA"/>
<stop offset="1" stop-color="#6D43A3"/>
</radialGradient>
<radialGradient id="paint16_radial_4_226" cx="0" cy="0" r="1" gradientUnits="userSpaceOnUse" gradientTransform="translate(36.8544 49.9915) rotate(-61.707) scale(0.763461 0.755888)">
<stop stop-color="#F4BAB3"/>
<stop offset="1" stop-color="#8D6FC7"/>
</radialGradient>
<radialGradient id="paint17_radial_4_226" cx="0" cy="0" r="1" gradientUnits="userSpaceOnUse" gradientTransform="translate(25.7243 42.0704) rotate(-61.7074) scale(0.763458 0.755881)">
<stop stop-color="#F4BAB3"/>
<stop offset="1" stop-color="#8D6FC7"/>
</radialGradient>
<radialGradient id="paint18_radial_4_226" cx="0" cy="0" r="1" gradientUnits="userSpaceOnUse" gradientTransform="translate(50.5699 47.0936) rotate(-61.7076) scale(0.763457 0.755877)">
<stop stop-color="#F4BAB3"/>
<stop offset="1" stop-color="#8D6FC7"/>
</radialGradient>
<radialGradient id="paint19_radial_4_226" cx="0" cy="0" r="1" gradientUnits="userSpaceOnUse" gradientTransform="translate(58.6879 34.4506) rotate(-61.7075) scale(0.763458 0.755875)">
<stop stop-color="#F4BAB3"/>
<stop offset="1" stop-color="#8D6FC7"/>
</radialGradient>
<radialGradient id="paint20_radial_4_226" cx="0" cy="0" r="1" gradientUnits="userSpaceOnUse" gradientTransform="translate(55.6264 21.2822) rotate(-61.7064) scale(0.763465 0.755905)">
<stop stop-color="#F4BAB3"/>
<stop offset="1" stop-color="#8D6FC7"/>
</radialGradient>
<radialGradient id="paint21_radial_4_226" cx="0" cy="0" r="1" gradientUnits="userSpaceOnUse" gradientTransform="translate(39.9449 14.6029) rotate(-61.707) scale(0.76346 0.755889)">
<stop stop-color="#F4BAB3"/>
<stop offset="1" stop-color="#8D6FC7"/>
</radialGradient>
<radialGradient id="paint22_radial_4_226" cx="0" cy="0" r="1" gradientUnits="userSpaceOnUse" gradientTransform="translate(28.6276 17.1666) rotate(-61.707) scale(0.76346 0.755889)">
<stop stop-color="#F4BAB3"/>
<stop offset="1" stop-color="#8D6FC7"/>
</radialGradient>
<radialGradient id="paint23_radial_4_226" cx="0" cy="0" r="1" gradientUnits="userSpaceOnUse" gradientTransform="translate(21.3349 27.8144) rotate(-61.7067) scale(0.763463 0.755896)">
<stop stop-color="#F4BAB3"/>
<stop offset="1" stop-color="#8D6FC7"/>
</radialGradient>
<linearGradient id="paint24_linear_4_226" x1="127.515" y1="71.1853" x2="92.0759" y2="52.1085" gradientUnits="userSpaceOnUse">
<stop stop-color="#A43411"/>
<stop offset="1" stop-color="#C73634"/>
</linearGradient>
<linearGradient id="paint25_linear_4_226" x1="49.2107" y1="7.28832" x2="50.3541" y2="5.16441" gradientUnits="userSpaceOnUse">
<stop stop-color="#FFFF18"/>
<stop offset="1" stop-color="#FF7400"/>
</linearGradient>
<linearGradient id="paint26_linear_4_226" x1="22.7521" y1="55.0678" x2="23.8278" y2="53.0703" gradientUnits="userSpaceOnUse">
<stop stop-color="#FFFF18"/>
<stop offset="1" stop-color="#FF7400"/>
</linearGradient>
<linearGradient id="paint27_linear_4_226" x1="81.8916" y1="73.1152" x2="79.9486" y2="72.069" gradientUnits="userSpaceOnUse">
<stop stop-color="#8DC7FF"/>
<stop offset="0.32" stop-color="#5C4D86"/>
</linearGradient>
<linearGradient id="paint28_linear_4_226" x1="95.1119" y1="43.7104" x2="93.1702" y2="42.6645" gradientUnits="userSpaceOnUse">
<stop stop-color="#8DC7FF"/>
<stop offset="0.32" stop-color="#5C4D86"/>
</linearGradient>
<linearGradient id="paint29_linear_4_226" x1="87.7104" y1="57.1012" x2="85.7674" y2="56.0554" gradientUnits="userSpaceOnUse">
<stop stop-color="#8DC7FF"/>
<stop offset="0.32" stop-color="#5C4D86"/>
</linearGradient>
<radialGradient id="paint30_radial_4_226" cx="0" cy="0" r="1" gradientUnits="userSpaceOnUse" gradientTransform="translate(86.9226 56.3871) rotate(-82.7959) scale(6.50631 6.42408)">
<stop stop-color="#003CEE"/>
<stop offset="0.06" stop-color="#0036D6"/>
<stop offset="0.2" stop-color="#00289E"/>
<stop offset="0.34" stop-color="#001C6D"/>
<stop offset="0.48" stop-color="#001246"/>
<stop offset="0.62" stop-color="#000A27"/>
<stop offset="0.75" stop-color="#000412"/>
<stop offset="0.88" stop-color="#000104"/>
<stop offset="1"/>
</radialGradient>
<radialGradient id="paint31_radial_4_226" cx="0" cy="0" r="1" gradientUnits="userSpaceOnUse" gradientTransform="translate(49.0778 6.04408) rotate(-82.7958) scale(5.19109 5.12547)">
<stop stop-color="#FF9A00"/>
<stop offset="0.09" stop-color="#D68100"/>
<stop offset="0.23" stop-color="#9E5F00"/>
<stop offset="0.36" stop-color="#6E4200"/>
<stop offset="0.5" stop-color="#462A00"/>
<stop offset="0.63" stop-color="#271800"/>
<stop offset="0.76" stop-color="#120B00"/>
<stop offset="0.89" stop-color="#040300"/>
<stop offset="1"/>
</radialGradient>
<radialGradient id="paint32_radial_4_226" cx="0" cy="0" r="1" gradientUnits="userSpaceOnUse" gradientTransform="translate(5.43841 13.9547) rotate(-82.7958) scale(5.19109 5.12547)">
<stop stop-color="#FF9A00"/>
<stop offset="0.09" stop-color="#D68100"/>
<stop offset="0.23" stop-color="#9E5F00"/>
<stop offset="0.36" stop-color="#6E4200"/>
<stop offset="0.5" stop-color="#462A00"/>
<stop offset="0.63" stop-color="#271800"/>
<stop offset="0.76" stop-color="#120B00"/>
<stop offset="0.89" stop-color="#040300"/>
<stop offset="1"/>
</radialGradient>
<radialGradient id="paint33_radial_4_226" cx="0" cy="0" r="1" gradientUnits="userSpaceOnUse" gradientTransform="translate(23.0349 53.9932) rotate(-82.7959) scale(2.68283 2.64892)">
<stop stop-color="#FF9A00"/>
<stop offset="0.09" stop-color="#D68100"/>
<stop offset="0.23" stop-color="#9E5F00"/>
<stop offset="0.36" stop-color="#6E4200"/>
<stop offset="0.5" stop-color="#462A00"/>
<stop offset="0.63" stop-color="#271800"/>
<stop offset="0.76" stop-color="#120B00"/>
<stop offset="0.89" stop-color="#040300"/>
<stop offset="1"/>
</radialGradient>
<radialGradient id="paint34_radial_4_226" cx="0" cy="0" r="1" gradientUnits="userSpaceOnUse" gradientTransform="translate(93.8747 43.7251) rotate(-82.7959) scale(2.50824 2.47655)">
<stop stop-color="#003CEE"/>
<stop offset="0.06" stop-color="#0036D6"/>
<stop offset="0.2" stop-color="#00289E"/>
<stop offset="0.34" stop-color="#001C6D"/>
<stop offset="0.48" stop-color="#001246"/>
<stop offset="0.62" stop-color="#000A27"/>
<stop offset="0.75" stop-color="#000412"/>
<stop offset="0.88" stop-color="#000104"/>
<stop offset="1"/>
</radialGradient>
<radialGradient id="paint35_radial_4_226" cx="0" cy="0" r="1" gradientUnits="userSpaceOnUse" gradientTransform="translate(80.7293 73.2216) rotate(-82.796) scale(2.50824 2.47652)">
<stop stop-color="#003CEE"/>
<stop offset="0.06" stop-color="#0036D6"/>
<stop offset="0.2" stop-color="#00289E"/>
<stop offset="0.34" stop-color="#001C6D"/>
<stop offset="0.48" stop-color="#001246"/>
<stop offset="0.62" stop-color="#000A27"/>
<stop offset="0.75" stop-color="#000412"/>
<stop offset="0.88" stop-color="#000104"/>
<stop offset="1"/>
</radialGradient>
</defs>
</svg>
