<svg width="876" height="438" viewBox="0 0 876 438" fill="none" xmlns="http://www.w3.org/2000/svg">
<path fill-rule="evenodd" clip-rule="evenodd" d="M115.807 311.097V246.521L159.87 261.537V326.916L115.807 311.097ZM212.007 311.097V246.521L167.944 261.537V326.916L212.007 311.097ZM164.922 229.132L206.269 242.462L164.922 256.5L120.392 241.681L164.922 229.132ZM63.3421 220.883V156.22L107.405 171.229V236.608L63.3421 220.883ZM159.556 220.876V156.22L115.493 171.229V236.608L159.556 220.876ZM112.471 138.897L153.818 152.234L112.471 166.272L67.9411 151.453L112.471 138.897ZM166.163 220.876V156.22L210.225 171.229V236.608L166.163 220.876ZM262.362 220.876V156.22L218.299 171.229V236.608L262.362 220.876ZM215.35 138.897L256.697 152.234L215.35 166.272L170.82 151.453L215.35 138.897ZM218.693 130.648V66.0649L262.756 81.081V146.453L218.693 130.648ZM314.834 130.641V66.0649L270.772 81.081V146.453L314.834 130.641ZM267.742 48.6909L309.089 62.0207L267.742 76.0586L223.212 61.2396L267.742 48.6909ZM321.434 130.648V66.0649L365.496 81.081V146.453L321.434 130.648ZM417.56 130.648V66.0649L373.497 81.081V146.453L417.56 130.648ZM370.548 48.6909L411.895 62.0207L370.548 76.0586L326.018 61.2396L370.548 48.6909Z" fill="url(#paint0_linear_5_1543)"/>
<path d="M343.085 284.831L328.281 336.253H321.857L310.177 298.059L299.607 336.253H293.051L277.67 284.831H285.7L296.906 323.156L307.564 284.831H313.433L325.025 323.273L336.545 284.831H343.005H343.085ZM384.024 320.908L391.47 322.368C390.103 326.78 387.315 330.617 383.542 333.281C379.6 336.165 374.986 337.603 369.672 337.603C362.664 337.603 356.985 335.136 352.648 330.186C348.312 325.237 346.078 318.762 346.078 310.746C346.078 302.556 348.268 295.942 352.838 290.89C354.933 288.453 357.541 286.511 360.475 285.202C363.41 283.893 366.598 283.25 369.811 283.32C376.527 283.32 381.914 285.642 386.002 290.292C390.09 294.942 392.178 301.884 392.28 311.141H354.955C354.955 318.915 356.576 324.164 359.832 326.879C363.087 329.595 366.518 330.953 370.139 330.953C376.673 330.953 381.279 327.58 383.951 320.828L384.024 320.908ZM383.586 305.257C383.513 302.373 383.046 299.811 382.162 297.57C381.279 295.329 379.79 293.423 377.687 291.847C375.585 290.27 373.067 289.481 370.117 289.481C368.231 289.451 366.36 289.816 364.624 290.553C362.887 291.289 361.324 292.382 360.036 293.759C357.277 296.679 355.656 300.439 355.386 305.257H383.578H383.586ZM406.727 336.253H402.88V266.903H410.888V293.475C414.538 286.81 419.648 283.474 426.021 283.474C431.905 283.474 436.839 285.81 440.818 290.46C444.796 295.11 446.782 301.877 446.782 310.739C446.782 318.382 444.811 324.792 440.913 329.975C437.014 335.158 431.904 337.749 425.641 337.749C418.662 337.749 413.231 334.435 409.581 327.821L406.661 336.326L406.727 336.253ZM410.888 316.105C411.253 321.382 412.881 325.215 415.742 327.595C418.604 329.975 421.633 331.245 424.824 331.245C428.89 331.245 432.167 329.478 434.664 325.945C437.161 322.412 438.402 317.572 438.402 311.433C438.402 304.811 437.197 299.607 434.795 295.811C432.394 292.015 429.05 290.131 424.78 290.131C421.422 290.131 418.4 291.482 415.699 294.175C412.998 296.869 411.318 300.358 410.895 304.629V316.09L410.888 316.105ZM467.193 322.923L474.828 321.346C476.522 327.806 481.895 331.033 490.918 331.033C494.239 331.033 497.064 330.288 499.371 328.799C500.459 328.154 501.354 327.23 501.964 326.122C502.574 325.014 502.876 323.763 502.839 322.499C502.839 318.484 499.897 315.929 494.02 314.834L483.194 312.776C478.96 311.958 475.58 310.367 473.069 307.987C470.558 305.607 469.31 302.475 469.31 298.497C469.31 294.117 471.018 290.584 474.449 287.678C477.88 284.773 482.479 283.328 488.282 283.328C499.437 283.328 506.313 287.686 508.941 296.409L501.612 297.986C499.51 292.657 495.188 289.978 488.655 289.978C485.399 289.978 482.727 290.708 480.647 291.978C479.672 292.544 478.867 293.362 478.318 294.345C477.768 295.329 477.493 296.443 477.522 297.57C477.522 301.351 480.187 303.724 485.508 304.709L495.509 306.549C505.992 308.447 511.226 313.535 511.226 321.791C511.272 324.034 510.761 326.254 509.74 328.251C508.718 330.249 507.217 331.962 505.372 333.238C501.473 336.143 496.283 337.603 489.794 337.603C477.603 337.603 470.084 332.683 467.193 322.857V322.923ZM553.814 320.908L561.261 322.368C559.91 326.763 557.267 330.398 553.333 333.281C549.398 336.165 544.777 337.603 539.463 337.603C532.455 337.603 526.775 335.136 522.439 330.186C518.103 325.237 515.869 318.762 515.869 310.746C515.869 302.556 518.118 295.942 522.629 290.89C524.723 288.453 527.331 286.511 530.266 285.202C533.201 283.893 536.389 283.25 539.601 283.32C546.303 283.32 551.705 285.642 555.786 290.292C559.866 294.942 561.961 301.884 562.064 311.141H524.746C524.746 318.915 526.367 324.164 529.615 326.879C532.864 329.595 536.302 330.953 539.93 330.953C546.463 330.953 551.07 327.58 553.742 320.828L553.814 320.908ZM553.376 305.257C553.303 302.373 552.829 299.811 551.953 297.57C551.077 295.329 549.588 293.423 547.485 291.847C545.383 290.27 542.865 289.481 539.915 289.481C538.028 289.45 536.155 289.814 534.418 290.551C532.68 291.288 531.116 292.381 529.827 293.759C527.067 296.679 525.447 300.439 525.184 305.257H553.376ZM578.759 336.253H570.75V284.831H577.758V296.818C580.24 291.197 582.723 287.562 585.204 285.904C587.687 284.247 590.314 283.408 592.855 283.408C593.908 283.423 594.961 283.486 596.008 283.598V291.233H594.388C589.986 291.233 586.329 292.869 583.416 296.139C580.503 299.409 578.948 303.709 578.744 309.031V336.26L578.759 336.253ZM645.773 284.831L628.019 336.253H619.719L601.374 284.831H610.236L624.508 326.624L638.67 284.831H645.773ZM660.738 266.815V275.699H652.182V266.815H660.752H660.738ZM660.548 284.824V336.245H652.62V284.824H660.628H660.548ZM702.406 318.243L709.611 319.514C708.589 325.193 706.341 329.639 702.851 332.858C699.362 336.077 695.004 337.676 689.711 337.676C682.63 337.676 677.301 335.048 673.505 329.829C669.709 324.609 667.935 318.149 667.935 310.666C667.935 302.855 669.892 296.358 673.812 291.175C677.732 285.992 683.061 283.401 689.872 283.401C695.464 283.401 699.946 285.08 703.326 288.511C706.706 291.942 708.801 296.176 709.604 301.49L702.399 302.862C701.041 294.372 696.946 290.131 690.098 290.131C688.055 290.062 686.031 290.549 684.241 291.539C682.452 292.528 680.964 293.984 679.937 295.752C677.564 299.497 676.374 304.352 676.374 310.323C676.374 316.893 677.542 322.003 679.907 325.653C680.924 327.368 682.382 328.78 684.129 329.742C685.877 330.703 687.849 331.179 689.843 331.121C696.449 331.121 700.632 326.857 702.399 318.324L702.406 318.243ZM754.791 320.908L762.237 322.368C760.87 326.78 758.082 330.617 754.309 333.281C750.367 336.165 745.753 337.603 740.439 337.603C733.431 337.603 727.737 335.136 723.408 330.186C719.079 325.237 716.838 318.762 716.838 310.746C716.838 302.556 719.028 295.942 723.598 290.89C725.692 288.453 728.3 286.511 731.235 285.202C734.17 283.893 737.358 283.25 740.57 283.32C747.286 283.32 752.688 285.642 756.762 290.292C760.835 294.942 762.938 301.884 763.04 311.141H725.722C725.722 318.915 727.343 324.164 730.599 326.879C733.854 329.595 737.285 330.953 740.906 330.953C747.44 330.953 752.046 327.58 754.718 320.828L754.791 320.908ZM754.353 305.257C754.28 302.373 753.813 299.811 752.929 297.57C752.011 295.278 750.462 293.294 748.462 291.847C746.359 290.27 743.841 289.481 740.892 289.481C739.006 289.447 737.135 289.811 735.399 290.548C733.663 291.285 732.102 292.379 730.818 293.759C728.073 296.679 726.438 300.439 726.167 305.257H754.36H754.353ZM767.639 322.923L775.275 321.346C776.968 327.806 782.334 331.033 791.364 331.033C794.685 331.033 797.496 330.288 799.817 328.799C800.904 328.154 801.798 327.229 802.406 326.121C803.015 325.013 803.315 323.763 803.277 322.499C803.277 318.484 800.336 315.929 794.466 314.834L783.64 312.776C779.406 311.958 776.026 310.367 773.515 307.987C771.004 305.607 769.756 302.475 769.756 298.497C769.756 294.117 771.464 290.584 774.895 287.678C778.326 284.773 782.925 283.328 788.728 283.328C799.883 283.328 806.759 287.686 809.387 296.409L802.058 297.986C799.956 292.657 795.634 289.978 789.101 289.978C785.845 289.978 783.261 290.708 781.093 291.978C780.118 292.544 779.313 293.362 778.764 294.345C778.214 295.329 777.939 296.443 777.968 297.57C777.968 301.351 780.633 303.724 785.955 304.709L795.956 306.549C806.438 308.447 811.672 313.535 811.672 321.791C811.718 324.034 811.207 326.254 810.186 328.251C809.164 330.249 807.663 331.962 805.818 333.238C801.92 336.143 796.729 337.603 790.24 337.603C778.063 337.603 770.53 332.683 767.646 322.857L767.639 322.923Z" fill="white" stroke="white" stroke-width="0.213"/>
<path fill-rule="evenodd" clip-rule="evenodd" d="M587.066 174.937V162.586C587.056 162.171 587.13 161.758 587.285 161.373C587.439 160.987 587.67 160.637 587.963 160.344C588.257 160.05 588.607 159.819 588.992 159.665C589.377 159.511 589.79 159.437 590.205 159.447H645.561C647.327 159.447 648.751 160.731 648.758 162.564V173.149C648.744 174.923 647.247 177.237 644.597 180.923L615.93 221.862C626.574 221.613 637.83 223.205 647.503 228.651C649.693 229.877 650.262 231.687 650.437 233.469V246.645C650.437 248.47 648.452 250.565 646.364 249.47C629.326 240.542 606.725 239.564 587.876 249.572C585.949 250.594 583.934 248.528 583.934 246.711V234.184C583.934 232.176 583.971 228.753 585.993 225.694L619.208 178.025H590.278C589.861 178.044 589.444 177.977 589.053 177.83C588.663 177.682 588.307 177.456 588.006 177.165C587.706 176.875 587.469 176.526 587.308 176.14C587.148 175.755 587.068 175.34 587.073 174.923L587.066 174.937ZM388.966 252.084H372.125C370.519 251.981 369.241 250.77 369.117 249.164L369.124 162.732C369.124 161.001 370.584 159.622 372.373 159.622L388.053 159.614C389.696 159.702 391.01 160.943 391.119 162.52V173.806H391.433C395.521 162.892 403.223 157.797 413.596 157.797C424.13 157.797 430.729 162.892 435.452 173.806C439.54 162.892 448.811 157.797 458.717 157.797C465.798 157.797 473.493 160.717 478.208 167.258C483.552 174.528 482.457 185.084 482.457 194.362L482.442 248.908C482.442 250.638 480.982 252.018 479.194 252.018H462.382C460.703 251.908 459.36 250.572 459.36 248.915V203.159C459.36 199.509 459.674 190.428 458.885 186.968C457.63 181.149 453.775 179.507 448.986 179.507C444.898 179.507 440.65 182.237 438.912 186.603C437.175 190.968 437.343 198.246 437.343 203.159V248.974C437.343 250.704 435.883 252.084 434.094 252.084H417.268C415.574 251.974 414.246 250.638 414.246 248.981L414.231 203.159C414.231 193.523 415.801 179.332 403.865 179.332C391.762 179.332 392.229 193.151 392.229 203.159V248.974C392.229 250.704 390.769 252.084 388.98 252.084H388.966ZM689.434 157.862C714.232 157.862 727.642 179.324 727.642 206.612C727.642 232.987 712.823 253.901 689.434 253.901C665.103 253.901 651.839 232.439 651.839 205.699C651.839 178.784 665.256 157.862 689.434 157.862ZM689.594 177.733C677.272 177.733 676.491 194.647 676.491 205.196C676.491 215.744 676.345 236.075 689.441 236.075C702.391 236.075 703.019 220.11 703.019 209.014C703.019 201.743 702.713 193.005 700.537 186.092C698.661 180.091 694.916 177.726 689.616 177.726L689.594 177.733ZM763.529 252.084H746.753C745.074 251.974 743.731 250.638 743.731 248.981L743.702 162.513C743.848 160.928 745.162 159.695 746.936 159.695L762.558 159.687C763.252 159.714 763.918 159.964 764.458 160.401C764.998 160.838 765.381 161.438 765.551 162.111V175.251H765.872C770.588 163.425 777.187 157.789 788.823 157.789C796.364 157.789 803.759 160.52 808.475 167.973C812.877 174.886 812.877 186.515 812.877 194.895V249.28C812.687 250.74 811.315 252.003 809.65 252.003H792.765C791.211 251.901 789.955 250.762 789.845 249.28V202.341C789.845 192.888 790.94 178.981 779.311 178.981C775.223 178.981 771.449 181.712 769.566 185.894C767.208 191.172 766.887 196.443 766.887 202.268V248.813C766.858 250.543 765.405 251.923 763.602 251.923L763.529 252.084ZM544.857 210.802C544.857 217.372 545.018 222.832 541.704 228.665C539.025 233.41 534.769 236.33 530.046 236.33C523.585 236.33 519.804 231.41 519.804 224.117C519.804 209.78 532.674 207.167 544.843 207.167V210.817L544.857 210.802ZM561.837 251.865C560.72 252.865 559.114 252.93 557.859 252.259C552.267 247.609 551.267 245.47 548.208 241.031C538.966 250.521 532.418 253.273 520.446 253.273C506.27 253.273 495.239 244.513 495.239 227.023C495.239 213.35 502.642 204.057 513.197 199.502C522.337 195.487 535.097 194.757 544.865 193.662V191.472C544.865 187.457 545.179 182.726 542.821 179.259C540.777 176.156 536.835 174.879 533.367 174.879C526.943 174.879 521.235 178.164 519.826 184.997C519.534 186.515 518.424 188.011 516.906 188.092L500.583 186.325C499.123 186.011 497.663 184.909 498.072 182.807C501.824 163.002 519.709 157.023 535.74 157.023C543.93 157.023 554.72 159.213 561.1 165.418C569.298 173.083 568.502 183.281 568.502 194.399V220.635C568.502 228.519 571.787 231.987 574.853 236.243C575.926 237.703 576.167 239.601 574.795 240.717L561.874 251.901L561.83 251.857L561.837 251.865ZM325.996 210.802C325.996 217.372 326.157 222.832 322.842 228.665C320.163 233.41 315.907 236.33 311.184 236.33C304.724 236.33 300.942 231.41 300.942 224.117C300.942 209.78 313.805 207.167 325.981 207.167V210.817L325.996 210.802ZM342.976 251.865C341.859 252.865 340.253 252.93 338.997 252.259C333.406 247.609 332.398 245.47 329.347 241.031C320.105 250.521 313.557 253.273 301.585 253.273C287.408 253.273 276.378 244.513 276.378 227.023C276.378 213.35 283.78 204.057 294.336 199.502C303.476 195.487 316.236 194.757 326.003 193.662V191.472C326.003 187.457 326.317 182.726 323.959 179.259C321.915 176.156 317.973 174.879 314.506 174.879C308.082 174.879 302.373 178.164 300.964 184.997C300.672 186.515 299.504 188.011 298.044 188.092L281.722 186.325C280.262 186.011 278.802 184.909 279.21 182.807C282.955 163.002 300.84 157.023 316.878 157.023C325.069 157.023 335.858 159.213 342.246 165.418C350.436 173.083 349.648 183.281 349.648 194.399V220.635C349.648 228.519 352.933 231.987 355.999 236.243C357.072 237.703 357.313 239.601 355.948 240.717L343.1 251.901L343.056 251.857L342.976 251.865Z" fill="white"/>
<defs>
<linearGradient id="paint0_linear_5_1543" x1="240.451" y1="48.6909" x2="240.451" y2="326.916" gradientUnits="userSpaceOnUse">
<stop stop-color="#B1B3F1"/>
<stop offset="1" stop-color="#F3B9DA"/>
</linearGradient>
</defs>
</svg>
