<svg width="402" height="402" viewBox="0 0 402 402" fill="none" xmlns="http://www.w3.org/2000/svg">
<path d="M167.539 381.565L177.128 366.191L179.867 366.592C186.446 367.557 193.963 368.094 200.947 368.099C207.757 368.099 210.484 367.917 222.296 366.63L225.904 366.237L234.746 380.562C239.609 388.441 243.954 395.387 244.402 395.997C245.186 397.067 245.481 397.037 252.39 395.181C262.151 392.558 273.626 388.517 283.162 384.343C293.638 379.758 309.198 371.227 309.189 370.073C309.189 369.829 307.336 361.852 305.076 352.347L300.965 335.064L307.033 330.122C314.602 323.957 324.934 313.618 330.81 306.329C333.273 303.273 335.674 300.773 336.145 300.773C336.616 300.773 344.553 302.532 353.785 304.682C363.015 306.832 370.677 308.591 370.81 308.591C371.454 308.591 377.702 297.374 381.934 288.621C387.643 276.815 391.845 265.674 395.147 253.594C397.042 246.663 397.432 244.495 396.848 244.141C396.431 243.888 389.46 239.538 381.356 234.473C369.6 227.126 366.651 225.026 366.76 224.081C368.604 208.198 368.523 187.606 366.58 178.02C366.276 176.524 367.028 175.963 381.109 167.196C389.277 162.11 396.245 157.765 396.595 157.539C397.925 156.682 392.306 137.503 386.8 124.108C382.834 114.46 374.064 97.2714 370.86 92.8665C370.806 92.7918 362.794 94.6268 353.057 96.9443L335.352 101.158L333.548 98.8939C324.767 87.8745 315.735 78.7601 305.133 70.2196C302.736 68.2879 300.774 66.6096 300.774 66.4902C300.774 66.3707 302.533 58.7021 304.682 49.4488C306.832 40.1956 308.591 32.2303 308.591 31.7481C308.591 30.0548 290.862 20.4688 277.797 15.0986C264.494 9.63026 245.224 3.97239 244.355 5.27946C244.129 5.61851 239.783 12.5885 234.696 20.7684C228.684 30.4369 225.173 35.5357 224.664 35.3402C224.233 35.1747 218.835 34.7015 212.67 34.2887C203.668 33.6859 199.306 33.6881 190.529 34.2996C184.517 34.7186 178.911 35.1987 178.071 35.3665C176.641 35.6522 175.953 34.718 167.302 20.7378C162.219 12.5243 157.868 5.58258 157.633 5.31178C156.67 4.20263 137.237 9.90805 124.951 14.9071C111.877 20.2273 93.3239 30.252 93.3103 32.0039C93.3005 32.5222 95.062 40.3311 97.2119 49.3571C99.3617 58.383 101.121 66.1012 101.121 66.5086C101.121 66.916 98.8882 68.9735 96.1594 71.0808C89.777 76.0097 76.01 89.7767 71.0812 96.1591C68.9738 98.8878 66.8199 101.116 66.2946 101.111C65.7694 101.105 57.7623 99.3623 48.5013 97.2363L31.6632 93.371L30.6417 94.6899C28.8271 97.0331 21.8747 109.663 18.826 116.154C14.6745 124.994 10.2267 137.228 7.35025 147.718C6.00395 152.629 4.90247 156.827 4.90247 157.047C4.90247 157.268 11.8216 161.755 20.2782 167.02L35.6538 176.592L35.2929 180.2C33.6821 196.303 33.743 209.723 35.483 222.117L35.9644 225.547L23.5906 233.211C16.785 237.427 9.81471 241.766 8.10111 242.853L4.98542 244.83L7.0111 252.506C9.73872 262.841 13.9609 274.813 18.1197 284.005C21.637 291.78 28.9124 305.084 31.0618 307.672L32.2645 309.12L49.7041 304.971L67.1436 300.822L68.6471 302.734C76.8122 313.116 87.3746 323.863 96.7624 331.342C100.001 333.922 101.635 335.619 101.465 336.226C100.653 339.122 93.9043 369.419 93.9043 370.167C93.9043 371.95 113.743 382.56 126.378 387.536C136.179 391.395 153.819 396.841 156.747 396.911C157.679 396.934 160.107 393.48 167.539 381.565V381.565ZM183.828 335.916C137.989 329.678 99.2318 302.015 79.4034 261.384C69.234 240.546 65.3725 223.9 65.3833 200.947C65.3941 177.928 69.0571 162.028 79.219 140.889C85.7556 127.292 92.8865 117.208 104.084 105.729C125.957 83.3059 155.323 68.994 186.39 65.6157C195.016 64.6777 215.345 65.1767 223.189 66.519C261.033 72.9953 294.68 94.959 315.35 126.679C322.879 138.232 330.598 156.412 333.735 169.977C340.859 200.787 336.965 233.766 322.873 261.962C302.371 302.983 262.617 330.611 215.997 336.24C208.999 337.085 191.094 336.904 183.828 335.916ZM262.611 289.321C263.711 288.105 263.612 287.98 253.684 278.039C245.199 269.543 243.644 267.709 243.644 266.196C243.644 264.699 244.995 263.052 251.905 256.13C262.992 245.022 261.426 244.905 274.34 257.803C284.27 267.719 284.306 267.748 285.427 266.508C286.532 265.288 286.499 265.064 283.661 254.304L280.77 243.343L275.031 237.514L269.292 231.685L258.423 229.146L247.553 226.608L213.247 192.409L178.942 158.209L176.965 149.961C173.339 134.833 174.02 136.244 167.372 130.109L161.439 124.635L150.674 121.627C140.004 118.646 139.898 118.63 138.726 119.789C137.552 120.951 137.616 121.033 147.596 131.075C155.996 139.528 157.649 141.48 157.649 142.948C157.649 144.405 156.19 146.166 149.087 153.281C142.63 159.75 140.156 161.858 139.021 161.858C137.877 161.858 135.112 159.457 127.494 151.849C117.462 141.83 116.155 140.949 115.162 143.536C114.962 144.057 116.085 149.448 117.659 155.515L120.519 166.545L126.305 172.262L132.091 177.979L143.027 180.547L153.963 183.115L188.171 217.439L222.379 251.762L224.926 262.701L227.473 273.641L233.494 279.192L239.514 284.743L249.848 287.605C255.531 289.18 260.478 290.487 260.84 290.509C261.202 290.532 261.999 289.997 262.611 289.321ZM150.433 282.063C153.952 280.434 156.528 278.073 176.289 258.358L198.236 236.461L194.66 232.846L191.083 229.232L181.955 238.242C173.644 246.445 172.635 247.252 170.693 247.252C169.106 247.252 168.242 246.847 167.314 245.668C164.7 242.343 165.336 241.215 175.76 230.702L184.119 222.27L180.355 218.564L176.592 214.858L167.143 223.839C156.955 233.522 155.822 234.138 153.027 231.512C152.086 230.628 151.635 229.522 151.635 228.098C151.635 226.187 152.476 225.144 160.653 216.905L169.671 207.82L166.057 204.244L162.444 200.668L140.779 222.306C117.114 245.942 116.175 247.13 114.828 255.131C113.886 260.728 114.904 264.91 118.309 269.441C121.217 273.309 127.086 278.986 130.525 281.255C136.052 284.903 143.63 285.211 150.433 282.063ZM220.191 178.703L199.444 158.342L196.577 161.14L193.711 163.937L214.312 184.545L234.914 205.153L237.926 202.108L240.938 199.064L220.191 178.703ZM245.308 163.206L260.345 147.715L267.48 145.383L274.614 143.051L280.895 133.913C284.349 128.887 287.268 124.499 287.381 124.16C287.494 123.821 284.609 120.778 280.97 117.396L274.355 111.248L265.069 117.904L255.783 124.559L253.472 131.179L251.161 137.799L235.38 153.578L219.598 169.358L224.24 174.027C226.793 176.595 229.195 178.697 229.576 178.697C229.958 178.697 237.037 171.726 245.308 163.206Z" fill="url(#paint0_linear_7_1597)"/>
<defs>
<linearGradient id="paint0_linear_7_1597" x1="201" y1="5.08911" x2="201" y2="396.911" gradientUnits="userSpaceOnUse">
<stop stop-color="#B1B3F1"/>
<stop offset="1" stop-color="#F3B9DA"/>
</linearGradient>
</defs>
</svg>
