<svg width="295" height="318" viewBox="0 0 295 318" fill="none" xmlns="http://www.w3.org/2000/svg">
<g clip-path="url(#clip0_7_1600)">
<path d="M7.49364 155.066C6.54387 155.098 5.59703 154.944 4.70721 154.611C3.8174 154.278 3.00204 153.773 2.30774 153.125C1.60383 152.456 1.03978 151.654 0.648138 150.765C0.2565 149.877 0.0450312 148.92 0.0259388 147.949C-0.00517151 146.996 0.1528 146.045 0.490783 145.152C0.828767 144.26 1.3401 143.442 1.99543 142.748C2.65076 142.053 3.43718 141.494 4.30953 141.103C5.18187 140.712 6.12296 140.497 7.07876 140.47L29.5078 139.694C31.4277 139.647 33.2895 140.353 34.6937 141.661C35.7373 142.646 36.466 143.916 36.7882 145.313C37.1105 146.71 37.0119 148.171 36.5048 149.512C35.9978 150.853 35.105 152.015 33.9385 152.851C32.772 153.687 31.3839 154.161 29.9486 154.212L7.49364 154.963V155.066ZM176.58 104.602C178.469 104.572 180.348 104.879 182.129 105.508C185.776 106.783 189.01 109.019 191.489 111.978C194.207 115.121 195.914 119.007 196.39 123.132C196.607 125.206 196.502 127.3 196.079 129.343C197.948 130.992 199.549 132.922 200.824 135.062C202.629 138.132 203.528 141.649 203.417 145.206C203.285 148.957 201.99 152.574 199.709 155.558C197.984 157.84 195.879 159.809 193.486 161.381C193.771 166.432 192.377 171.436 189.519 175.614C186.891 179.741 182.733 182.663 177.954 183.74C176.678 188.148 173.774 191.909 169.827 194.263C165.881 196.616 161.186 197.388 156.692 196.421C154.683 195.854 152.817 194.87 151.217 193.531C149.617 192.193 148.319 190.532 147.409 188.657C146.327 190.68 144.819 192.444 142.988 193.829C141.158 195.214 139.048 196.187 136.804 196.679C134.465 197.118 132.058 197.047 129.748 196.471C127.439 195.894 125.282 194.827 123.424 193.341C120.314 190.975 118.168 187.564 117.383 183.74C115.784 183.673 114.204 183.377 112.69 182.86C109.132 181.601 105.967 179.432 103.511 176.572C100.865 173.555 99.1375 169.847 98.5321 165.884C98.2107 163.619 98.2896 161.315 98.7655 159.077C97.0821 157.567 95.6239 155.824 94.4353 153.902C92.497 150.796 91.4727 147.209 91.4793 143.55C91.5515 139.63 92.8679 135.833 95.2391 132.707C96.884 130.515 98.8714 128.601 101.125 127.039C101.125 126.341 101.125 125.616 101.125 124.917C101.303 119.926 103.126 115.132 106.311 111.279C109.058 107.777 113.015 105.423 117.409 104.68C117.547 104.011 117.738 103.353 117.979 102.713C119.395 99.0666 122.022 96.0155 125.421 94.0696C128.838 92.0248 132.893 91.315 136.804 92.0769C138.926 92.5329 140.929 93.427 142.684 94.7017C144.439 95.9763 145.907 97.6034 146.994 99.4783C148.092 97.6067 149.567 95.9826 151.325 94.7086C153.083 93.4347 155.088 92.5386 157.211 92.0769C160.739 91.4008 164.392 91.9295 167.582 93.5779C170.732 95.1588 173.334 97.6471 175.05 100.72C175.701 101.928 176.19 103.215 176.502 104.551L176.58 104.602ZM151.091 106.906V178.098C151.421 178.542 151.643 179.056 151.739 179.599C152.751 185.81 155.447 188.812 158.507 189.64C159.995 189.961 161.535 189.951 163.018 189.611C164.501 189.271 165.891 188.61 167.09 187.674C168.33 186.886 169.369 185.822 170.125 184.564C170.881 183.306 171.333 181.89 171.446 180.428C171.446 177.27 169.164 173.673 162.941 170.516C162.503 170.333 162.107 170.061 161.779 169.718C161.451 169.375 161.197 168.968 161.034 168.522C160.871 168.077 160.802 167.602 160.832 167.129C160.861 166.655 160.988 166.193 161.205 165.771C161.422 165.349 161.724 164.976 162.092 164.676C162.46 164.376 162.886 164.155 163.343 164.027C163.801 163.899 164.28 163.867 164.751 163.933C165.222 163.998 165.674 164.16 166.079 164.408C172.976 167.902 176.45 172.172 177.799 176.597C180.323 175.699 182.482 173.999 183.944 171.758C186.225 168.455 187.204 164.428 186.692 160.449C186.539 159.739 186.614 158.999 186.907 158.334C187.201 157.669 187.697 157.114 188.326 156.748C190.671 155.451 192.727 153.69 194.368 151.573C195.816 149.717 196.642 147.453 196.727 145.103C196.759 142.816 196.148 140.565 194.964 138.607C193.78 136.589 192.202 134.829 190.323 133.431C189.665 133.015 189.166 132.393 188.903 131.661C188.64 130.93 188.628 130.133 188.871 129.394C189.509 127.586 189.731 125.658 189.519 123.753C189.152 121.053 188.008 118.518 186.226 116.455C184.557 114.453 182.381 112.934 179.925 112.055C178.787 111.649 177.579 111.473 176.373 111.538C175.711 113.783 174.57 115.858 173.028 117.619C172.757 118.016 172.407 118.351 171.998 118.603C171.59 118.855 171.133 119.019 170.657 119.083C170.181 119.147 169.696 119.111 169.235 118.976C168.774 118.841 168.347 118.611 167.981 118.301C167.615 117.99 167.319 117.606 167.111 117.174C166.904 116.742 166.79 116.271 166.776 115.791C166.763 115.312 166.851 114.836 167.035 114.392C167.218 113.949 167.493 113.55 167.842 113.22C169.01 112.031 169.764 110.498 169.993 108.849C170.222 107.199 169.913 105.52 169.112 104.059C168.088 102.212 166.523 100.723 164.626 99.7888C162.806 98.8289 160.714 98.5098 158.689 98.8831C155.759 99.4783 152.932 101.911 151.169 106.931L151.091 106.906ZM168.671 130.197C167.985 129.642 167.537 128.846 167.422 127.972C167.306 127.098 167.531 126.213 168.049 125.499C168.568 124.786 169.341 124.298 170.21 124.137C171.078 123.976 171.975 124.153 172.716 124.633C173.443 125.15 174.091 125.694 174.713 126.237C179.104 130.146 181.808 135.599 182.259 141.454C182.716 147.232 181.078 152.981 177.643 157.654C177.15 158.327 176.58 159 175.932 159.724C175.32 160.411 174.46 160.826 173.54 160.88C172.621 160.933 171.719 160.62 171.031 160.009C170.343 159.398 169.927 158.54 169.873 157.622C169.82 156.705 170.134 155.804 170.746 155.118C171.177 154.638 171.584 154.138 171.965 153.617C174.428 150.264 175.613 146.144 175.309 141.997C175.017 137.918 173.159 134.108 170.124 131.361C169.673 130.944 169.197 130.555 168.697 130.197H168.671ZM144.168 110.503L144.012 110.244C142.353 103.541 139.112 100.462 135.767 99.8924C133.513 99.4912 131.19 99.9236 129.233 101.109C127.26 101.914 125.591 103.317 124.462 105.12C123.932 106.805 123.942 108.613 124.49 110.292C125.039 111.972 126.098 113.438 127.521 114.488C128.192 115.109 128.588 115.971 128.622 116.883C128.656 117.796 128.325 118.684 127.703 119.353C127.395 119.685 127.024 119.952 126.612 120.141C126.201 120.329 125.756 120.435 125.303 120.451C124.389 120.485 123.499 120.156 122.828 119.534C120.426 117.464 118.634 114.78 117.642 111.771C115.238 112.416 113.114 113.835 111.601 115.808C109.419 118.495 108.18 121.822 108.074 125.28C108.047 126.327 108.108 127.374 108.256 128.411C108.342 129.07 108.236 129.741 107.951 130.342C107.666 130.943 107.214 131.449 106.648 131.801C104.374 133.137 102.376 134.894 100.762 136.977C99.2542 138.942 98.4099 141.334 98.3506 143.809C98.3601 146.156 99.0342 148.453 100.295 150.434C101.428 152.24 102.898 153.813 104.626 155.066C105.242 155.497 105.702 156.116 105.936 156.83C106.17 157.544 106.165 158.315 105.922 159.026C105.26 160.954 105.055 163.009 105.326 165.03C105.745 167.697 106.914 170.192 108.697 172.224C110.354 174.15 112.479 175.62 114.868 176.494C115.781 176.799 116.732 176.973 117.694 177.011C119.042 172.56 122.88 168.083 129.829 164.486C130.234 164.238 130.686 164.076 131.157 164.01C131.627 163.945 132.107 163.977 132.564 164.105C133.022 164.233 133.448 164.454 133.816 164.754C134.184 165.054 134.486 165.427 134.703 165.849C134.92 166.271 135.047 166.733 135.076 167.206C135.105 167.68 135.036 168.154 134.873 168.6C134.71 169.045 134.457 169.452 134.129 169.795C133.8 170.139 133.405 170.41 132.967 170.594C126.432 173.932 123.969 177.762 123.969 181.126C124.031 182.454 124.392 183.75 125.025 184.92C125.658 186.089 126.547 187.101 127.625 187.881C128.702 188.753 129.953 189.386 131.294 189.738C132.635 190.091 134.036 190.155 135.404 189.925C138.749 189.226 141.99 186.147 143.649 179.418C143.752 179.011 143.928 178.625 144.168 178.28V110.503ZM118.55 126.988C118.878 126.672 119.266 126.423 119.691 126.257C120.116 126.09 120.569 126.009 121.025 126.017C121.482 126.026 121.932 126.124 122.35 126.306C122.768 126.488 123.147 126.75 123.463 127.078C123.78 127.406 124.029 127.793 124.196 128.217C124.363 128.641 124.444 129.094 124.436 129.549C124.427 130.004 124.329 130.454 124.147 130.871C123.964 131.289 123.701 131.666 123.373 131.982C120.451 134.836 118.735 138.697 118.576 142.774C118.41 147.023 119.812 151.185 122.517 154.471C123.091 155.185 123.358 156.097 123.258 157.007C123.158 157.917 122.701 158.75 121.985 159.323C121.631 159.607 121.225 159.818 120.789 159.945C120.353 160.072 119.896 160.112 119.444 160.063C118.533 159.963 117.698 159.507 117.124 158.793C113.358 154.153 111.422 148.299 111.678 142.334C111.886 136.469 114.347 130.91 118.55 126.806V126.988ZM115.594 264.43C114.121 264.47 112.687 263.955 111.578 262.987C110.469 262.019 109.766 260.669 109.609 259.207C109.452 257.745 109.852 256.277 110.731 255.097C111.609 253.916 112.901 253.109 114.349 252.837C111.004 233.867 101.851 223.438 92.1794 212.388C84.6599 203.796 76.8551 194.868 70.6838 181.721C64.5968 169.184 61.4237 155.437 61.4011 141.506C61.7094 126.472 65.6026 111.728 72.7582 98.4949L72.9138 98.2361C81.9706 82.5401 95.9998 70.2954 112.793 63.429C125.944 58.1539 140.175 56.1211 154.281 57.5027C168.265 58.7689 181.795 63.1082 193.901 70.2093C209.419 79.1205 221.579 92.8662 228.517 109.338C232.51 118.999 234.723 129.3 235.051 139.746C235.315 151.986 233.028 164.147 228.335 175.459C221.464 192.409 212.389 202.942 203.91 212.802C196.131 221.86 188.819 230.322 184.774 243.261C186.092 243.586 187.257 244.357 188.069 245.443C188.88 246.529 189.289 247.863 189.225 249.217C189.161 250.571 188.627 251.86 187.716 252.865C186.805 253.87 185.572 254.527 184.229 254.726L182.259 255.011C181.896 257.831 181.662 260.833 181.558 264.068H182.207C182.969 263.963 183.745 264.008 184.491 264.202C185.236 264.396 185.935 264.735 186.549 265.199C187.163 265.663 187.68 266.242 188.069 266.905C188.458 267.568 188.713 268.302 188.819 269.063C188.924 269.824 188.879 270.599 188.684 271.342C188.49 272.086 188.151 272.784 187.686 273.397C187.221 274.01 186.64 274.525 185.976 274.914C185.312 275.302 184.577 275.557 183.814 275.662L181.818 275.947V277.111C181.972 279.291 181.972 281.479 181.818 283.658H182.155C183.658 283.556 185.143 284.033 186.304 284.991C187.466 285.949 188.215 287.314 188.398 288.807C188.58 290.299 188.183 291.805 187.287 293.013C186.391 294.222 185.064 295.042 183.581 295.304L179.225 295.822C176.393 303.338 171.055 309.653 164.108 313.704C159.691 316.268 154.738 317.774 149.639 318.103C144.522 318.353 139.425 317.293 134.833 315.024C129.027 312.128 124.262 307.509 121.195 301.8C120.336 301.367 119.599 300.73 119.047 299.944C118.495 299.159 118.146 298.249 118.031 297.297C117.933 296.525 117.995 295.741 118.213 294.993C117.136 291.798 116.38 288.504 115.957 285.159H115.775C114.235 285.372 112.673 284.966 111.433 284.029C110.819 283.565 110.302 282.985 109.913 282.322C109.524 281.659 109.269 280.926 109.163 280.165C109.058 279.404 109.103 278.629 109.298 277.885C109.492 277.142 109.831 276.444 110.296 275.831C111.235 274.593 112.627 273.778 114.168 273.566L115.568 273.385C115.568 270.201 115.568 267.225 115.568 264.405L115.594 264.43ZM125.265 251.284L172.95 244.53C177.047 227.268 185.915 216.917 195.612 205.711C203.547 196.498 212.026 186.664 218.197 171.396C222.345 161.467 224.376 150.785 224.161 140.031C223.863 130.886 221.903 121.872 218.378 113.427C212.356 99.1715 201.806 87.2869 188.352 79.6033C177.655 73.3075 165.689 69.4624 153.321 68.346C140.937 67.1272 128.441 68.9025 116.89 73.5218C102.353 79.494 90.2071 90.1051 82.3521 103.697C76.0511 115.355 72.612 128.34 72.3174 141.583C72.3481 153.896 75.1669 166.043 80.563 177.115C85.7426 187.413 92.4277 196.885 100.399 205.22C111.315 217.693 121.635 229.494 125.265 251.284ZM171.135 256.615L126.484 262.929C126.484 265.75 126.666 268.726 126.484 271.858L170.564 265.621C170.564 262.438 170.746 259.436 171.005 256.615H171.135ZM127.055 283.633C127.339 285.839 127.798 288.02 128.429 290.154L171.083 284.978C171.371 282.634 171.423 280.268 171.238 277.913V277.422L127.158 283.684L127.055 283.633ZM134.496 301.204C136.057 302.844 137.891 304.201 139.916 305.216C142.868 306.635 146.135 307.277 149.406 307.079C152.797 306.846 156.089 305.837 159.026 304.129C161.964 302.414 164.494 300.083 166.442 297.297L134.496 301.204ZM286.988 129.394C287.938 129.294 288.899 129.382 289.815 129.653C290.731 129.924 291.585 130.373 292.327 130.974C293.069 131.575 293.685 132.317 294.139 133.156C294.593 133.995 294.877 134.915 294.974 135.864C295.17 137.782 294.594 139.7 293.374 141.194C292.153 142.689 290.388 143.639 288.466 143.835L266.141 146.19C265.188 146.29 264.225 146.2 263.308 145.924C262.391 145.649 261.538 145.193 260.799 144.585C259.658 143.682 258.815 142.459 258.377 141.074C257.94 139.688 257.928 138.203 258.344 136.811C258.759 135.418 259.584 134.182 260.71 133.262C261.836 132.341 263.213 131.778 264.663 131.646L286.988 129.317V129.394ZM244.982 38.8181C246.067 37.2264 247.733 36.1211 249.623 35.7386C250.558 35.5497 251.521 35.5466 252.457 35.7292C253.393 35.9119 254.284 36.2768 255.078 36.8031C255.873 37.3294 256.556 38.0068 257.088 38.7966C257.62 39.5864 257.991 40.4731 258.18 41.406C258.368 42.3388 258.368 43.2993 258.181 44.2322C257.994 45.165 257.624 46.0516 257.091 46.8406L244.619 65.4734C244.089 66.2714 243.406 66.9566 242.61 67.4897C241.813 68.0227 240.918 68.3929 239.978 68.5789C238.087 68.9321 236.132 68.5327 234.532 67.4661C233.731 66.9395 233.043 66.2585 232.509 65.4631C231.974 64.6676 231.605 63.7737 231.421 62.8338C231.233 61.8996 231.234 60.9371 231.426 60.0036C231.617 59.0701 231.995 58.1844 232.536 57.3992L244.982 38.7664V38.8181ZM148.576 7.09061C148.604 5.13881 149.406 3.2776 150.806 1.91483C151.85 0.929764 153.162 0.274644 154.578 0.0318161C155.994 -0.211012 157.45 -0.0307104 158.763 0.550056C160.077 1.13082 161.189 2.08614 161.96 3.29591C162.731 4.50569 163.126 5.91594 163.097 7.3494L162.552 29.7346C162.586 30.7231 162.418 31.7081 162.057 32.6295C161.697 33.5508 161.152 34.389 160.456 35.0929C159.759 35.7967 158.927 36.3515 158.008 36.7231C157.09 37.0948 156.105 37.2756 155.114 37.2545C154.124 37.2333 153.148 37.0107 152.246 36.6001C151.344 36.1896 150.536 35.5998 149.871 34.8669C149.205 34.1339 148.697 33.2732 148.376 32.3374C148.055 31.4015 147.929 30.4102 148.006 29.4241L148.576 7.01297V7.09061ZM36.3013 43.0623C34.9455 41.7352 34.1624 39.9322 34.1188 38.0374C34.0752 36.1425 34.7746 34.3056 36.068 32.9178C37.3628 31.5755 39.1289 30.7869 40.9946 30.718C42.9104 30.6669 44.7707 31.3631 46.1805 32.659C51.5997 37.8347 57.1486 42.8811 62.5938 47.9534C63.3083 48.6178 63.8827 49.4177 64.2835 50.3065C64.6842 51.1953 64.9031 52.1549 64.9275 53.1292C64.9706 55.0399 64.2741 56.8937 62.9828 58.305C61.6531 59.6581 59.8466 60.4397 57.948 60.4832C56.0495 60.5267 54.2089 59.8287 52.8184 58.5379C47.6325 53.5432 41.7984 47.9534 36.3532 43.2176L36.3013 43.0623Z" fill="url(#paint0_linear_7_1600)"/>
</g>
<defs>
<linearGradient id="paint0_linear_7_1600" x1="147.517" y1="-0.0732422" x2="147.517" y2="318.139" gradientUnits="userSpaceOnUse">
<stop stop-color="#B1B3F1"/>
<stop offset="1" stop-color="#F3B9DA"/>
</linearGradient>
<clipPath id="clip0_7_1600">
<rect width="295" height="318" fill="white"/>
</clipPath>
</defs>
</svg>
