<svg width="295" height="342" viewBox="0 0 295 342" fill="none" xmlns="http://www.w3.org/2000/svg">
<g clip-path="url(#clip0_5_1562)">
<path fill-rule="evenodd" clip-rule="evenodd" d="M156.688 6.79102C176.966 20.1044 198.83 30.8198 221.771 38.6865C238.793 44.6139 256.834 47.0466 274.816 45.8394L293.471 44.1416L294.388 62.9004C297.808 131.896 286.687 191.846 263.362 239.161C239.091 288.34 201.782 323.881 153.88 341.944H141.425C94.58 324.828 57.5765 290.26 33.0001 240.441C10.0918 193.655 -1.69599 133.26 0.194499 61.2305L0.667121 42.7222L19.0716 43.6685C39.0764 44.9678 59.1574 42.9077 78.4831 37.5732C99.4071 31.4677 118.944 21.3434 136.004 7.76514L145.985 0L156.688 6.79102Z" fill="#363861"/>
<path fill-rule="evenodd" clip-rule="evenodd" d="M147.041 22.0151C195.36 52.6304 238.98 67.1587 276.457 63.7632C282.99 196.216 234.143 292.487 147.542 325.106C63.9431 294.546 14.4845 201.643 18.1543 61.7314C62.1082 64.0137 105.256 54.523 147.041 22.0151Z" fill="white"/>
<path fill-rule="evenodd" clip-rule="evenodd" d="M147.125 45.394C187.353 70.916 223.69 82.9951 254.883 80.1563C260.443 190.455 219.631 274.507 147.542 301.699C77.8437 276.261 36.6977 194.991 39.7559 78.4863C76.3703 80.4067 112.317 72.4746 147.125 45.394Z" fill="url(#paint0_linear_5_1562)"/>
<path fill-rule="evenodd" clip-rule="evenodd" d="M103.226 138.409H111.205V132.842C111.179 122.949 114.986 113.431 121.825 106.29C125.127 102.769 129.115 99.9617 133.543 98.0428C137.971 96.124 142.745 95.134 147.57 95.134C152.394 95.134 157.168 96.124 161.596 98.0428C166.024 99.9617 170.012 102.769 173.314 106.29C180.143 113.437 183.949 122.951 183.934 132.842V138.409H191.829C193.402 138.409 194.911 139.032 196.026 140.143C197.141 141.254 197.771 142.762 197.779 144.337V219.233C197.771 220.808 197.141 222.315 196.026 223.426C194.911 224.537 193.402 225.161 191.829 225.161H103.226C101.656 225.161 100.15 224.536 99.0391 223.425C97.9286 222.313 97.3047 220.805 97.3047 219.233V144.337C97.3047 143.558 97.4579 142.787 97.7554 142.068C98.053 141.349 98.4892 140.695 99.0391 140.145C99.589 139.594 100.242 139.158 100.96 138.86C101.679 138.562 102.449 138.409 103.226 138.409ZM135.559 180.602C137.053 181.855 138.456 183.213 139.757 184.665C143.725 178.308 148.119 172.227 152.907 166.463C165.918 150.71 160.025 153.744 178.095 153.744L175.565 156.527C169.44 163.507 163.863 170.952 158.885 178.793C152.6 187.832 146.89 197.258 141.787 207.015L140.23 210.048L138.784 206.959C136.226 201.389 132.996 196.155 129.165 191.373C125.707 187.032 121.578 183.273 116.932 180.24C119.296 172.503 130.499 176.455 135.504 180.713L135.559 180.602ZM122.326 138.409H172.619V132.842C172.636 125.871 169.967 119.162 165.168 114.111C162.907 111.68 160.17 109.742 157.128 108.416C154.086 107.091 150.804 106.407 147.486 106.407C144.168 106.407 140.886 107.091 137.844 108.416C134.802 109.742 132.065 111.68 129.804 114.111C124.988 119.165 122.309 125.886 122.326 132.87V138.436V138.409Z" fill="white"/>
</g>
<defs>
<linearGradient id="paint0_linear_5_1562" x1="147.491" y1="45.394" x2="147.491" y2="301.699" gradientUnits="userSpaceOnUse">
<stop stop-color="#B1B3F1"/>
<stop offset="1" stop-color="#F3B9DA"/>
</linearGradient>
<clipPath id="clip0_5_1562">
<rect width="295" height="342" fill="white"/>
</clipPath>
</defs>
</svg>
